<svg width="47" height="47" viewBox="0 0 47 47" fill="none" xmlns="http://www.w3.org/2000/svg">
<path d="M23.4347 0C10.4924 0 0 10.4924 0 23.4347C0 36.377 10.4924 46.8694 23.4347 46.8694C36.377 46.8694 46.8694 36.377 46.8694 23.4347C46.8694 10.4924 36.377 0 23.4347 0ZM45.3455 23.4347C45.3455 35.5351 35.5365 45.3455 23.4347 45.3455C11.3329 45.3455 1.52392 35.5351 1.52392 23.4347C1.52392 11.3343 11.3343 1.52392 23.4347 1.52392C35.5351 1.52392 45.3455 11.3343 45.3455 23.4347Z" fill="#161718"/>
<path d="M34.7925 13.492C35.1108 13.8338 35.5696 14.3849 35.8273 14.7197L40.5726 11.7077C40.3356 11.3977 39.9581 10.9265 39.6756 10.5944L36.6705 12.5813L36.4652 12.7576L36.6181 12.5344L37.945 9.88617L37.0067 8.94785L34.3571 10.2747L34.1339 10.4277L34.3116 10.2224L36.2999 7.21863C35.9499 6.92101 35.6137 6.64819 35.1852 6.3175L32.1732 11.0587C32.5548 11.3522 33.0577 11.7835 33.3788 12.077L36.2144 10.6054L36.3963 10.4718L36.2627 10.6536L34.7925 13.492Z" fill="#161718"/>
<path d="M24.0245 7.48319L25.3211 4.57865L25.4037 4.32099L25.3803 4.58968L25.5167 8.47112C25.9714 8.51383 26.4413 8.57722 26.9042 8.65438L26.6934 2.90592C26.0458 2.83428 25.401 2.78329 24.7561 2.75574L23.4789 5.9262L23.4334 6.16182L23.3879 5.9262L22.112 2.75574C21.4672 2.78329 20.8223 2.83428 20.1747 2.90592L19.9639 8.65438C20.4269 8.57722 20.8967 8.51521 21.3514 8.47112L21.4878 4.58968L21.4644 4.32099L21.5471 4.57865L22.8437 7.48319H24.0245Z" fill="#161718"/>
<path d="M13.5375 12.0646C14.2871 11.2751 14.7114 10.3629 13.9619 9.49213C13.554 9.01952 12.8692 8.91618 12.3016 9.14904L12.2451 9.17109L12.263 9.12149C12.347 8.89689 12.4008 8.1804 11.7904 7.68575C11.4928 7.44462 11.1194 7.35506 10.7418 7.39364C10.0377 7.46529 9.49623 7.94617 8.02191 9.58996C7.57686 10.086 6.92927 10.8686 6.54071 11.3757L10.5903 15.2172C11.9323 13.7318 12.4793 13.1793 13.5375 12.0646ZM8.2534 11.1249C9.06909 10.1273 9.93577 9.22207 10.3285 8.86382C10.4525 8.75084 10.5875 8.63786 10.7515 8.59376C11.0174 8.52074 11.2916 8.7095 11.3536 8.98232C11.4156 9.25652 11.2434 9.51693 11.0518 9.73188C10.6206 10.2183 9.03878 11.8731 9.03878 11.8731L8.2534 11.1249ZM9.83932 12.6295C9.83932 12.6295 11.3798 11.0009 11.8827 10.4801C12.0825 10.2734 12.2106 10.148 12.3484 10.0805C12.5262 9.99367 12.7204 9.97576 12.894 10.0915C13.0649 10.2059 13.1434 10.4029 13.1007 10.5986C13.0497 10.8314 12.8596 11.0533 12.7025 11.2227C12.4903 11.4501 10.6633 13.4053 10.6605 13.408L9.83932 12.6295Z" fill="#161718"/>
<path d="M37.3318 23.4347H23.4347V9.5376C31.1149 9.5376 37.3318 15.7545 37.3318 23.4347Z" fill="#161718"/>
<path d="M23.4347 23.4347V37.3318C15.7545 37.3318 9.5376 31.1149 9.5376 23.4347H23.4347Z" fill="#161718"/>
<path d="M23.4347 9.5376V23.4347H9.5376C9.5376 15.7545 15.7545 9.5376 23.4347 9.5376Z" fill="#E2E2E2"/>
<path d="M37.3318 23.4347C37.3318 31.1149 31.1149 37.3318 23.4347 37.3318V23.4347H37.3318Z" fill="#E2E2E2"/>
</svg>
