<svg width="65" height="26" viewBox="0 0 65 26" fill="none" xmlns="http://www.w3.org/2000/svg">
<path d="M14.2019 11.8892H8.62253L8.19118 9.33246H32.1479V11.8892H31.5009V9.93203H13.9992L14.2019 11.8892ZM8.09413 8.74907H32.1414V6.87489H7.78249L8.09413 8.74907ZM23.135 15.037H32.1447V13.6944H23.1383L23.135 15.037ZM7.54741 6.27856H13.2465L12.1682 4.4033H31.502V6.27101H32.149V3.75521H5.78214L7.54741 6.27856ZM41.9469 3.75521H32.8575V7.5219H41.9512L41.9469 3.75521ZM9.91979 18.2796C10.0675 18.5039 10.3414 18.7648 11.2505 19.0118C11.6904 19.1196 12.18 19.2274 12.8572 19.3784H22.5053V18.0488H9.7947C9.8284 18.1294 9.86955 18.2066 9.91763 18.2796H9.91979ZM9.36875 16.248H22.5053V12.492H8.72281L9.36875 16.248ZM23.135 21.5168C26.4995 22.1789 29.7885 22.7903 32.1501 23.1602V16.8572H23.135V21.5168ZM42.5702 11.8892H56.3818L57.0126 8.12147H42.5702V11.8892ZM42.5702 4.95326V6.29042L57.4256 6.28503L58.3573 4.95326H42.5702ZM65 0.780029L60.624 6.95792C60.1442 9.58156 58.89 16.3396 58.7477 16.9974C58.3358 18.8888 58.1384 20.0394 54.4257 20.9226C49.4825 22.0948 38.1759 24.3734 32.4962 25.263C26.8187 24.3744 15.5175 22.0948 10.5743 20.9226C6.86157 20.0394 6.66423 18.8888 6.2523 16.9974C6.10996 16.3439 4.85583 9.58156 4.37596 6.95792L0 0.780029H65ZM61.5493 1.94142H3.45505L6.90578 6.86842C7.76847 11.9928 8.30225 15.2871 8.52332 16.4356C8.90721 18.4338 8.97515 19.2954 11.0391 19.8518C15.1433 20.8223 27.0376 23.268 32.5038 24.093C37.97 23.268 49.8653 20.8256 53.9717 19.8518C56.0356 19.2954 56.1036 18.4338 56.4875 16.4356C56.7031 15.2871 57.2423 11.9928 58.105 6.86842L61.5493 1.94142ZM32.8575 15.037H33.5045V13.1401H50.6913C50.6687 13.3245 50.508 14.5959 50.425 15.0424H55.8523L56.2837 12.492H32.8575V15.037ZM32.8575 17.4935H55.3951L55.7596 15.6268H32.8575V17.4935ZM41.9512 9.33354H32.8575V10.6782H41.9512V9.33354ZM32.8575 18.0488H55.2139C55.1824 18.13 55.1419 18.2074 55.0932 18.2796C54.9454 18.5039 54.6748 18.7799 53.7603 19.0075C49.7122 20.0146 38.5868 22.221 32.8575 23.158V18.0488ZM33.5045 22.4032C34.5354 22.2166 37.0544 21.7778 37.9527 21.6063C47.0993 19.8583 48.6683 19.5919 49.4307 18.6947H33.5045V22.4032Z" fill="#161718"/>
</svg>
