<svg width="43" height="32" viewBox="0 0 43 32" fill="none" xmlns="http://www.w3.org/2000/svg">
<path d="M33.2645 26.7993C35.699 26.7993 37.3216 24.8008 37.3216 22.4003C37.3216 20.3996 35.699 18.3999 33.2645 18.3999H24.7463V26.7993H33.2645ZM33.2645 12.3998C33.7446 12.402 34.2203 12.3103 34.6643 12.1302C35.1082 11.9501 35.5116 11.685 35.8511 11.3504C36.1906 11.0157 36.4595 10.618 36.6423 10.1804C36.8251 9.74267 36.9182 9.27362 36.9162 8.80026C36.9184 8.32681 36.8254 7.85763 36.6427 7.4198C36.4599 6.98198 36.191 6.5842 35.8515 6.24941C35.512 5.91463 35.1086 5.64948 34.6645 5.46928C34.2205 5.28908 33.7447 5.1974 33.2645 5.19953H24.7463V12.3998H33.2645ZM12.5776 18.3999V20.3996H7.30334V10.4002H12.5764V12.3987H17.8507V5.19953H5.27424V7.60002H0V0H33.2634C38.1323 0 42.5935 3.99928 42.5935 9.19996C42.5935 11.6004 41.7828 13.5989 40.159 15.2C41.7828 17.1997 43 19.599 43 21.9995C43 27.5999 38.5376 32 33.2634 32H0V24.0003H5.27424V26.7993H17.8495V18.3999H12.5776Z" fill="#161718"/>
</svg>
