<svg width="39" height="53" viewBox="0 0 39 53" fill="none" xmlns="http://www.w3.org/2000/svg">
<path fill-rule="evenodd" clip-rule="evenodd" d="M16.9345 32.5329C16.9345 32.5329 16.8888 31.4103 17.1124 31.4963C17.3362 31.5832 20.3913 34.0564 20.6581 34.66C20.928 35.2642 21.4068 34.9625 21.5543 34.5305C21.7005 34.0992 22.2823 32.1873 22.6848 32.1009C23.0867 32.0142 23.7137 32.1435 23.4902 32.6198C23.2664 33.0937 22.9979 33.5377 22.953 33.7544C22.9086 33.969 22.8637 34.7041 22.5049 35.2216C22.1483 35.7388 22.2953 36.0839 21.7908 36.1722C21.2846 36.2577 21.1062 36.301 20.7933 36.301C20.4804 36.301 19.451 36.0839 19.2731 35.4811C19.0937 34.8756 19.2161 34.543 18.3642 33.7111C17.517 32.8786 16.9345 32.5329 16.9345 32.5329Z" fill="white"/>
<path fill-rule="evenodd" clip-rule="evenodd" d="M17.4755 0.267572C17.633 0.621909 18.1838 0.889342 17.9588 1.33893C17.6253 1.38064 17.3734 1.1679 17.0915 1.07821C16.9894 1.00684 16.8783 0.940789 16.8509 0.830711C16.7827 0.539408 17.2056 0.443697 17.1203 0.144283C17.14 0.0902868 17.1633 0.0318885 17.2202 0.00686016C17.4051 -0.0369395 17.3621 0.18623 17.4755 0.267572Z" fill="#161718"/>
<path fill-rule="evenodd" clip-rule="evenodd" d="M19.1117 0.240747C19.4801 0.429619 19.5733 0.855797 19.9637 1.03725C20.1347 1.18858 20.1635 1.4289 20.364 1.55821C21.373 1.4289 22.2965 1.71348 22.9516 2.50581C23.1752 2.76004 23.5394 2.69075 23.8761 2.72528C24.2413 2.7079 24.6423 2.75679 25.0001 2.68403C25.265 2.6977 25.5277 2.73941 25.769 2.86224C25.8437 2.92087 25.8627 3.02724 25.8386 3.12411C25.7661 3.21217 25.6129 3.1642 25.5262 3.21982C24.9936 3.34056 24.4577 3.46987 24.0473 3.80984C24.17 3.91227 24.3662 3.93313 24.5441 3.98805C25.1012 4.20334 25.6093 4.61538 26.0524 5.08698C26.2459 5.21235 26.4976 5.21931 26.7348 5.29161C27.5733 5.47284 27.6814 6.36157 28.3134 6.84267C28.3035 6.8626 28.2762 6.87558 28.2704 6.89806C27.5846 6.99655 27.4367 6.10503 26.8474 6.06054C26.0075 6.12821 25.3291 5.77132 24.6719 5.4149C24.5384 5.38338 24.3503 5.34677 24.2598 5.45592C24.2694 5.61744 24.4615 5.61744 24.5722 5.70412C25.094 5.81304 25.368 6.37594 25.7685 6.70618C25.9505 6.88647 26.2644 6.80096 26.5206 6.85681C27.2676 6.95831 27.9551 7.2225 28.5122 7.81716C28.5953 7.90267 28.6244 8.03314 28.5972 8.16037C28.5761 8.2102 28.5019 8.22456 28.4685 8.20209C28.2793 8.02897 28.1429 7.81646 27.9289 7.69387C27.7609 7.61044 27.5925 7.53814 27.416 7.51566C26.7893 7.61044 25.9402 7.82944 25.4266 7.37824L25.2981 7.33745V7.39237C25.4955 7.67232 25.6919 8.0934 26.0949 8.17474C26.5835 8.27624 27.0201 8.52977 27.459 8.80578C27.5899 8.86928 27.7707 8.83521 27.9289 8.88758C27.9515 8.92026 27.9808 8.97588 27.9573 9.02478C27.5419 9.4009 27.0424 9.01319 26.6212 8.95618C26.1633 8.7833 25.606 8.85885 25.2129 8.58585L24.5439 8.25585C24.4786 8.25145 24.4291 8.28598 24.4173 8.33905C24.6846 8.73857 25.1377 9.00346 25.4691 9.39649C25.7976 9.68571 25.9256 10.0628 26.0524 10.4526C26.3602 10.7594 26.8645 10.9856 26.8052 11.5086C26.9502 11.8029 27.2583 11.9568 27.5018 12.1818C27.495 12.2077 27.4828 12.2319 27.4659 12.2531C27.4491 12.2743 27.4279 12.2919 27.4038 12.3049C26.7967 12.3 26.4044 11.7366 26.0235 11.3445C25.3257 11.0268 24.675 10.5747 24.1177 10.04C24.0845 10.0257 24.0701 10.0493 24.0607 10.0686C24.067 10.2896 24.2733 10.4331 24.4173 10.6176C25.0196 11.1381 26.0283 11.3904 26.2077 12.2775C26.3667 12.8486 27.0237 12.9241 27.5166 13.0875C27.6072 13.1677 27.7983 13.2268 27.7582 13.3897C27.4448 13.566 26.9922 13.5049 26.6776 13.4446C26.2353 13.319 25.8432 13.0342 25.539 12.69C25.1187 12.3855 24.5573 12.4335 24.1177 12.2224C24.0555 12.2305 23.9897 12.2377 23.9753 12.3047C23.9474 12.4537 23.9784 12.6112 24.145 12.6754C24.6748 12.8627 24.7307 13.5554 25.3262 13.6365C25.8511 13.8497 26.3499 14.3507 26.6068 14.858C26.7571 15.0413 26.8359 15.3081 27.0892 15.4211C27.0907 15.5004 27.0174 15.5282 26.9627 15.5579C26.5482 15.4867 26.3307 14.9857 25.9517 14.886C25.496 14.8249 25.1898 14.4406 24.7151 14.4745C24.6349 14.4958 24.6772 14.5567 24.7151 14.5975L25.1704 15.0511C25.2076 15.0995 25.1449 15.1577 25.113 15.1882C24.8054 15.2258 24.5998 14.9593 24.3453 14.886C24.1806 14.8142 24.007 14.7869 23.8468 14.7482C23.7709 14.7635 23.751 14.8392 23.7911 14.8995C24.1702 15.4112 24.8709 15.2471 25.3697 15.5579C25.7911 15.8775 26.1928 16.2584 26.7492 16.3138C26.8294 16.3685 26.8724 16.4816 26.821 16.5741C26.3395 16.7565 25.7697 16.5882 25.3411 16.4095C24.8709 16.1358 24.2442 15.8061 23.72 16.1625L23.7774 16.2174C24.2236 16.2656 24.6851 16.3002 25.0858 16.5052C25.4287 16.787 25.7488 17.1474 26.1371 17.3706C26.1369 17.4183 26.0965 17.4528 26.0668 17.4943C25.5892 17.3639 25.1874 16.9968 24.6591 17.1224C24.1028 17.2158 23.4765 17.2158 22.9089 17.178C22.887 17.1954 22.8445 17.2058 22.8666 17.2461C23.0424 17.3805 23.2558 17.4626 23.4787 17.5488C24.2334 17.6107 24.8452 18.1497 25.3411 18.7566C25.8516 19.1307 26.5986 18.9798 27.132 18.7291C27.1922 18.6843 27.2311 18.5504 27.3325 18.619C27.3738 18.7084 27.2979 18.7872 27.26 18.8665C26.7007 19.3566 25.7834 19.4178 25.0988 19.1814C24.4968 18.8899 23.8994 18.6088 23.2064 18.578C22.9074 18.4714 22.602 18.393 22.3114 18.3173C22.2826 18.3342 22.2473 18.3553 22.2684 18.3991C22.3326 18.4927 22.4507 18.4788 22.5532 18.5235C23.2465 18.7601 23.9275 19.0486 24.4882 19.6482C24.6217 19.765 24.8217 19.8783 24.8997 20.0609C24.881 20.1457 24.9274 20.2834 24.8287 20.3209C24.5902 20.2456 24.4233 20.0285 24.231 19.8964C23.8622 19.6141 23.4338 19.4572 22.9658 19.498C22.9326 19.5082 22.9264 19.5316 22.9377 19.5664C23.1209 19.717 23.3915 19.6929 23.5918 19.8544C23.8826 20.0662 24.2238 20.3895 24.3455 20.7466C24.4834 20.9696 24.7429 21.1448 24.9576 21.2954C24.9809 21.3536 24.8981 21.3842 24.8726 21.4198C24.146 21.2057 23.6451 20.4929 22.9379 20.2794C22.5283 20.0704 22.0199 20.1221 21.6302 19.923C21.3684 19.8025 21.1631 19.5828 20.8752 19.5803C20.7761 19.6243 20.8104 19.7276 20.7907 19.8139C20.7324 21.2711 21.5786 22.379 22.3686 23.5188C22.8971 24.2418 23.5344 24.969 24.2468 25.6054C24.8599 25.9507 25.4612 26.359 26.0668 26.7859C26.9744 27.4941 27.8591 28.2595 28.6544 29.1471C29.4057 30.0637 30.0286 31.0414 30.3893 32.1392C30.4981 32.2599 30.7043 32.2254 30.8746 32.221C31.5858 32.1392 32.19 31.7897 32.7937 31.4256C34.0743 30.4611 34.8057 29.1443 34.7411 27.5822C34.7349 26.4211 34.587 25.2647 34.3005 24.137C34.0154 23.1959 33.5971 22.3176 33.5765 21.2954C33.363 18.9726 34.8196 16.9245 36.9315 15.9152H36.9889V16.0385C35.8831 16.9106 35.1728 18.0151 34.7999 19.2229C34.6643 19.6862 34.6643 20.2588 34.7411 20.7608C34.7569 20.8046 34.8134 20.7941 34.87 20.8015C35.5285 20.1385 36.1141 19.3534 36.9174 18.8524C37.2338 18.4857 37.4336 18.0635 37.7136 17.6994C37.7275 17.682 37.742 17.7075 37.7698 17.7268C37.8591 18.1831 37.6058 18.5407 37.4862 18.9349C37.0876 19.6173 36.4261 20.2013 36.1504 20.939C35.904 21.5624 35.6689 22.3997 36.0219 23.0657C36.0671 23.1234 36.16 23.1445 36.2474 23.1213C36.5749 22.9218 36.5536 22.5399 36.8184 22.2972C37.152 21.8124 37.7737 21.5459 37.9835 20.9934C38.033 20.8727 38.033 20.6912 38.1831 20.6637C38.3243 20.8896 38.3634 21.1985 38.2683 21.4734C37.6675 22.1869 37.2399 22.9755 37.1167 23.8891C36.8321 25.2327 37.3424 26.4719 37.443 27.7875C37.4817 28.7223 37.3832 29.6417 37.1448 30.4915C36.7032 31.7851 35.3525 32.8075 34.0726 33.2226C33.9453 33.2603 34.044 33.3602 34.044 33.4425C34.1557 33.6798 34.2577 33.9292 34.3564 34.198C34.4772 34.5924 34.5279 35.1546 34.3715 35.5694C34.2296 36.0976 34.2445 36.7284 34.3564 37.2862L34.3427 37.45C34.2577 37.4452 34.226 37.3808 34.2147 37.3407C33.7398 36.5571 33.7679 35.5896 33.588 34.7192C33.4648 34.3688 33.1884 34.0942 32.9344 33.827C32.8578 33.7753 32.7824 33.8235 32.7641 33.8949C32.7437 34.2513 33.1575 34.4476 33.1769 34.8149C33.4622 35.9602 33.0561 37.0758 32.5944 38.0542C32.0474 38.8016 31.2108 39.4426 31.2566 40.4433C31.211 40.4829 31.144 40.4481 31.0998 40.4699C30.9483 40.3313 30.9346 40.1522 30.9164 39.9893C30.8345 39.364 31.0729 38.8426 31.4134 38.3837C31.8862 37.4982 32.3307 36.4406 31.9686 35.4056C31.915 35.3391 31.8329 35.3261 31.783 35.3634C31.514 35.6758 31.6634 36.1634 31.4699 36.517C31.3671 36.7729 31.2331 37.0209 31.2566 37.3407C31.2643 37.5008 31.2792 37.7033 31.2432 37.8765C31.2182 37.8892 31.1865 37.8746 31.1714 37.8894C31.0278 37.7624 31.0302 37.5877 30.9862 37.45C30.8172 36.667 31.1507 35.9917 31.0854 35.2137C31.0727 34.8042 31.0727 34.3936 30.7591 34.1424C30.657 34.1152 30.5775 34.1009 30.5031 34.156C30.3194 34.3593 30.4186 34.6842 30.3602 34.9523C29.9501 37.2718 27.7609 39.0996 25.7685 40.4025C25.1442 40.9971 24.8445 41.903 25.198 42.7352C25.3149 43.2098 25.8432 43.5322 25.9239 44.0531C25.8828 44.5203 26.0603 45.0139 25.8226 45.4394C24.9509 45.9303 24.0442 46.3595 23.3344 47.1824C23.021 47.6521 22.5525 48.1091 22.0413 48.3766C21.8345 48.5796 21.8485 48.8841 21.6993 49.1316C21.4254 49.5401 20.9965 49.9573 20.5463 50.1881C20.4041 50.326 20.5033 50.5656 20.4625 50.764C20.4581 51.5257 19.6042 51.7598 19.0548 52.0543C18.5561 52.2084 17.9841 52.477 17.4469 52.2471C17.2301 52.0754 17.2419 51.7936 17.2757 51.5605C17.4405 50.8126 17.8499 50.1784 18.3714 49.5978C18.741 49.1823 19.1886 48.8815 19.4518 48.4449C19.7577 48.0751 20.1503 47.8415 20.5892 47.7448C21.361 47.0352 22.0504 46.2809 22.795 45.5342C23.0844 45.1071 23.4864 44.7187 23.4624 44.2033C22.6752 43.0006 21.8372 41.8314 21.4153 40.5102C21.0373 39.5348 20.7821 38.3726 21.0733 37.3136C21.2611 36.5096 21.6993 35.8172 22.2396 35.1722C22.6378 34.6093 22.6589 33.8986 22.7381 33.2226C22.8207 32.9243 22.9972 32.6708 23.1788 32.4263C23.2054 32.3382 23.1134 32.3002 23.0789 32.2752C22.7869 32.2594 22.6013 32.5637 22.5098 32.7843C22.4449 33.134 22.4529 33.5218 22.3395 33.8684C22.2495 34.2042 22.108 34.5238 21.9695 34.8561C21.7486 35.1954 21.5214 35.7342 21.0311 35.7894C20.5542 35.6957 20.0278 35.2958 19.9505 34.8281C19.9104 33.953 19.1936 33.3507 18.5422 32.7568C17.5214 31.7892 16.2987 31.3227 15.2421 30.4917C13.6614 29.3163 11.9584 27.8987 11.1189 26.2093C11.056 25.9947 11.3045 25.9507 11.3326 25.7836L11.2474 25.7298C10.0854 25.8204 8.84153 25.7518 8.17446 24.7278C7.4231 24.204 6.5488 23.9811 5.79985 23.4912C5.31479 23.2817 4.95532 22.763 4.36293 22.8879C3.9576 23.1032 4.01043 23.5493 4.03612 23.9454C4.17371 24.4587 4.4513 24.928 4.50461 25.4953C4.58241 26.0394 4.71088 26.5752 4.94572 27.0749C4.99807 27.3917 5.40028 27.581 5.42909 27.9242C5.50377 28.13 5.36858 28.4345 5.6003 28.5842C6.18165 28.6373 6.75051 29.1172 6.89411 29.682C7.07468 30.424 7.15248 31.402 6.55241 31.9883C6.48109 32.0126 6.41697 32.0604 6.33989 32.0701C5.57437 31.8891 5.19833 31.0787 4.79036 30.5334C4.39751 29.9814 4.3334 29.2855 3.70835 28.8723C3.23218 28.4445 3.41683 27.7624 3.15317 27.2663C3.03959 26.9221 3.01822 26.5544 2.95411 26.2091C2.79058 25.2466 2.4777 24.3514 2.34275 23.3955C2.24694 22.8145 2.02626 22.1732 2.25798 21.5976C2.50675 21.1881 2.65899 20.698 3.15317 20.444C3.90333 19.8813 5.00143 20.2521 5.81354 20.444C6.37039 20.4162 6.83575 20.6226 7.36427 20.7054C7.49442 20.5944 7.31649 20.4813 7.27879 20.389C7.17025 20.2829 7.07084 20.1728 6.95102 20.129C6.26089 19.5416 5.70572 18.8621 5.20217 18.1933C4.95845 18.0392 4.67894 17.7479 4.40519 17.9455C4.17731 18.2069 4.25487 18.5981 4.12064 18.9068C3.9528 19.4173 3.62959 20.0901 2.99709 20.2104C1.9415 20.8451 1.78085 22.0467 1.95975 23.1623C2.0229 23.5799 2.22244 23.954 2.22893 24.411C2.26855 24.5915 2.31898 24.7762 2.32906 24.9878C2.27191 25.4728 1.7638 25.7433 1.51815 26.168C1.29772 26.3544 1.08473 26.5917 0.778324 26.5388C0.586943 26.3108 0.615278 26.0081 0.536276 25.756C0.501458 25.1783 0.572055 24.6527 0.693799 24.1503C0.686115 23.614 0.615038 22.9927 0.80738 22.5167C1.41922 21.5105 1.52848 20.3107 2.04499 19.2774C2.23997 18.8994 2.34251 18.492 2.39966 18.0695C2.55646 17.3393 2.84365 16.6631 3.16782 16.0102C3.21081 15.5166 3.64735 15.1025 4.09207 14.8988C5.00527 14.5336 5.94729 14.941 6.60859 15.5989C7.23749 16.3474 8.15405 16.5534 8.91333 17.0816L9.6109 17.5061C9.84406 17.5411 10.0213 17.3532 10.2357 17.2874C10.5637 17.2663 10.739 16.8753 11.0188 16.724C11.7055 16.1208 12.6266 16.0007 13.2234 15.229C13.4517 14.2342 14.6022 13.805 15.172 12.9774C16.3618 11.7879 16.8961 10.3163 17.4746 8.87391C17.493 8.65213 17.457 8.41228 17.2332 8.29687C16.6437 8.19305 16.0071 8.22039 15.4563 8.06373C15.075 7.98656 14.7374 7.82851 14.3887 7.72052C14.1519 7.81229 13.9135 7.72979 13.6774 7.72052C13.0145 7.89781 12.1036 8.48783 11.5153 7.81623C11.5065 7.7328 11.5607 7.65424 11.6431 7.63802C12.0595 7.50268 12.5268 7.46259 12.8819 7.19817C12.904 7.13908 12.8802 7.07488 12.8526 7.0341C12.7892 6.95739 12.69 6.99841 12.6254 7.01973C12.0936 7.22551 11.5211 7.33444 10.9328 7.39144C10.5145 7.20165 10.7138 6.70062 10.6494 6.34836C10.6922 5.76414 11.255 5.38941 11.4719 4.87911C11.731 4.43207 12.2744 4.58386 12.7258 4.53589C14.1145 4.30971 15.1396 3.21495 16.4936 2.87522C16.5654 2.76166 16.7799 2.78321 16.7645 2.62841C16.6788 2.494 16.3587 2.5663 16.5078 2.32598C16.4022 2.22309 16.2814 2.28519 16.1527 2.27106C15.6424 2.08983 15.1184 1.86991 14.5318 1.98277C14.4199 2.00015 14.3229 2.0516 14.2033 2.03816C14.1731 2.0071 14.1865 1.96238 14.1899 1.92877C14.3714 1.77095 14.6022 1.72206 14.83 1.65369C15.0932 1.57119 15.3062 1.74268 15.5836 1.6669C15.6193 1.63932 15.6222 1.59807 15.6273 1.55682C15.4887 1.43052 15.3043 1.43701 15.1425 1.40619C15.0721 1.3654 15.0896 1.27618 15.1136 1.22844C15.2114 1.09496 15.438 1.1902 15.598 1.14594C16.4483 0.861359 17.1341 1.38278 17.8748 1.59807C18.1289 1.63724 18.4067 1.60572 18.5844 1.41986C18.6135 1.15961 18.2821 0.997624 18.3842 0.719763C18.51 0.473419 18.7006 0.253261 18.8267 0.00575862C18.9972 -0.0368823 18.9874 0.168906 19.1117 0.240747Z" fill="#161718"/>
<path fill-rule="evenodd" clip-rule="evenodd" d="M21.7288 2.5054C21.7099 2.53599 21.7493 2.54966 21.7428 2.5879C21.6522 2.63935 21.5389 2.60505 21.4726 2.56079C21.3511 2.53993 21.2126 2.54642 21.1602 2.43657C21.1559 2.35407 21.2484 2.36056 21.3019 2.32649C21.4755 2.29683 21.6318 2.34804 21.7288 2.5054ZM21.9411 3.24628C21.8964 3.28685 21.8416 3.31572 21.7821 3.33015C21.7225 3.34459 21.6602 3.34412 21.6009 3.32879C21.5444 3.3216 21.5017 3.26668 21.4868 3.23238C21.5072 3.15753 21.5867 3.14038 21.6563 3.12346C21.7562 3.13319 21.8945 3.13319 21.9411 3.24628ZM18.4288 3.43886C18.3851 3.59321 18.2086 3.65485 18.0736 3.68637C17.9927 3.68127 17.9421 3.63793 17.93 3.57583C17.9421 3.43886 18.0953 3.38324 18.2156 3.35636C18.2895 3.35938 18.4117 3.32577 18.4288 3.43886ZM15.6702 4.04163C15.6553 4.21382 15.4493 4.33316 15.3285 4.44093C14.9023 4.62586 14.4905 4.82075 14.0198 4.87985C13.9103 4.94103 13.7396 4.92782 13.6349 4.89422C13.6539 4.81774 13.7545 4.79758 13.8217 4.75633C14.3658 4.4196 14.9597 4.20061 15.5843 4.02842L15.6702 4.04163ZM17.5761 4.39921C17.6717 4.58762 17.8033 4.83443 17.6753 5.05806C17.4241 5.20846 17.1249 5.07127 16.9071 4.97649C16.7157 4.88981 16.5666 4.73848 16.3964 4.64648C16.3205 4.54289 16.3844 4.42355 16.4518 4.34498C16.6045 4.20038 16.8077 4.15519 17.0209 4.12459C17.237 4.12112 17.4409 4.19643 17.5761 4.39921ZM21.956 4.86664C21.963 4.97556 21.7493 5.11924 21.956 5.18204L22.6384 5.08657C22.6814 5.09885 22.6838 5.17787 22.667 5.22306C22.2965 5.37694 21.9303 5.52456 21.6009 5.74449C21.5072 5.76488 21.3934 5.81262 21.3158 5.7577C21.116 5.51738 21.3542 5.28424 21.4304 5.0722C21.5041 4.8868 21.7 4.79712 21.8977 4.78391L21.956 4.86664ZM12.1139 5.7862C12.1404 5.89512 12.173 6.0286 12.1139 6.14262C11.9029 6.33706 11.6471 6.51527 11.3758 6.54053C11.2485 6.47124 11.2617 6.31041 11.2898 6.19778C11.3657 5.97785 11.4546 5.71366 11.7151 5.62143C11.8632 5.6263 12.0169 5.63418 12.1139 5.7862ZM12.8677 5.79941C12.898 5.88469 12.8384 5.98365 12.7544 6.03255C12.6698 6.05595 12.6278 5.99083 12.5834 5.95004C12.5356 5.87774 12.5918 5.81262 12.6264 5.75746C12.6876 5.64715 12.8163 5.72386 12.8677 5.79941ZM17.93 6.62349C17.9421 6.77969 17.7247 6.81167 17.6887 6.95234C17.6613 7.06844 17.6253 7.19173 17.5192 7.26797C17.2202 7.2981 16.9614 7.41467 16.6643 7.43297C16.6122 7.41165 16.637 7.36739 16.637 7.33726C17.0219 7.08976 17.4018 6.81422 17.8033 6.58155C17.8426 6.57761 17.8993 6.56764 17.93 6.62349ZM13.7792 6.7878C13.8011 6.8659 13.7336 6.928 13.6784 6.96647C13.5874 6.98965 13.5564 6.92105 13.5369 6.87099C13.5581 6.80472 13.524 6.70808 13.6224 6.69186C13.68 6.69371 13.7449 6.72221 13.7792 6.7878ZM22.667 6.80124C22.7186 6.87934 22.6137 6.91665 22.5676 6.95234C22.5025 6.95141 22.4423 6.90715 22.4963 6.85663C22.5159 6.83221 22.5426 6.81392 22.573 6.80407C22.6034 6.79422 22.6361 6.79324 22.667 6.80124ZM19.3826 7.02047C19.3775 7.44201 18.8788 7.57179 18.5854 7.72103C18.5181 7.74745 18.4463 7.72011 18.4 7.69346C18.4859 7.38384 18.8452 7.20865 19.0555 6.96601C19.1336 6.87285 19.3391 6.88606 19.3826 7.02047ZM22.8798 7.43297C22.8659 7.47096 22.8434 7.50549 22.814 7.53403C22.7845 7.56257 22.7488 7.58442 22.7095 7.59798C22.6596 7.61791 22.5885 7.59288 22.5815 7.54305C22.5774 7.51592 22.5838 7.48826 22.5996 7.46547C22.6154 7.44268 22.6394 7.42638 22.667 7.41977C22.7299 7.41768 22.8293 7.34236 22.8798 7.43297ZM19.9786 7.68048C19.9968 7.89136 19.8393 8.04918 19.6943 8.18753C19.3494 8.35114 18.9943 8.47466 18.5995 8.50317C18.539 8.48486 18.4672 8.47814 18.4574 8.42113C18.5136 8.21001 18.7767 8.23041 18.9547 8.16019C19.3134 8.06355 19.5442 7.6682 19.9361 7.62486L19.9786 7.68048ZM22.8663 8.14698C22.8113 8.24176 22.6877 8.27838 22.5813 8.2844C22.5275 8.2559 22.5419 8.19031 22.5674 8.16019C22.6413 8.11129 22.8214 8.00121 22.8663 8.14698ZM22.8368 8.65519C22.8044 8.82529 22.6017 8.81811 22.4821 8.87489C22.411 8.83966 22.4533 8.7998 22.4687 8.76527C22.553 8.65009 22.7129 8.57733 22.8368 8.65519ZM22.8368 9.34046C22.8716 9.43107 22.7672 9.51056 22.6961 9.56039C22.5962 9.5583 22.5138 9.62759 22.4264 9.5875C22.3712 9.51682 22.4394 9.46259 22.4689 9.40883C22.5554 9.31497 22.7299 9.21625 22.8368 9.34046ZM22.8663 10.1094C22.8831 10.197 22.7945 10.2348 22.7388 10.2744C22.606 10.2837 22.4351 10.3416 22.3402 10.2461C22.3493 10.1835 22.4139 10.1214 22.4824 10.1094C22.5772 10.0464 22.777 9.98077 22.8663 10.1094ZM18.8276 10.2744C18.8305 10.6767 18.6279 11.034 18.4859 11.3997C17.9665 12.3856 17.2306 13.3225 16.3527 14.1311C16.3104 14.1494 16.2604 14.1352 16.2254 14.1445C16.1368 14.1047 16.1579 14.0157 16.1817 13.967C16.7402 13.3763 16.8401 12.609 17.306 11.9905C17.5867 11.4113 17.961 10.873 18.3428 10.3428C18.418 10.2897 18.4358 10.1805 18.5426 10.1778C18.6463 10.1664 18.7664 10.1694 18.8276 10.2744ZM22.7813 10.8368C22.7299 10.9933 22.5277 11.0236 22.3825 11.0565C22.3397 11.0507 22.3114 11.0378 22.2975 11.0155C22.3227 10.8452 22.5049 10.8009 22.6533 10.7692C22.705 10.7453 22.7515 10.7865 22.7813 10.8368ZM22.7955 11.5369C22.7088 11.7205 22.473 11.7135 22.2972 11.743C22.2322 11.7033 22.2177 11.638 22.255 11.5912C22.3753 11.4771 22.6814 11.308 22.7955 11.5369ZM22.7813 12.2641C22.8116 12.3751 22.7186 12.4375 22.6384 12.4704C22.4814 12.4678 22.2744 12.5302 22.17 12.415C22.1827 12.2247 22.3964 12.19 22.5386 12.127C22.6332 12.1147 22.7186 12.1768 22.7813 12.2641ZM22.5251 12.9364C22.4708 13.075 22.3143 13.072 22.212 13.129C22.1183 13.1311 22.0439 13.0854 22.0127 13.0189C21.9577 12.9445 22.023 12.8866 22.0691 12.8407C22.2141 12.7842 22.4351 12.7969 22.5251 12.9364ZM22.3253 13.6646C22.3323 13.8229 22.1438 13.8815 22.0417 13.9529C21.9342 13.9436 21.8271 13.964 21.7721 13.8838C21.7245 13.7614 21.8415 13.6896 21.9272 13.6502C22.0439 13.6273 22.2213 13.4903 22.3253 13.6646ZM21.956 14.516C21.9728 14.5343 21.9579 14.5751 21.9702 14.611C21.8881 14.7188 21.7529 14.7327 21.6431 14.7067C21.5783 14.6666 21.5644 14.6024 21.6009 14.5568C21.6563 14.4133 21.8554 14.4611 21.956 14.516ZM21.8006 15.2425C21.7754 15.3561 21.6354 15.3707 21.5579 15.4212C21.4854 15.4217 21.4157 15.4112 21.4011 15.3519C21.4004 15.2849 21.4292 15.2226 21.5017 15.2013C21.5783 15.1609 21.7425 15.1338 21.8006 15.2425ZM4.90366 15.7373C4.88854 15.9398 4.61479 15.8882 4.46255 15.9429C4.36338 15.947 4.23131 15.9329 4.17848 15.8474C4.13958 15.7241 4.28102 15.6868 4.34897 15.6404C4.52234 15.6043 4.78936 15.5556 4.90366 15.7373ZM21.5442 15.9568C21.5466 16.0323 21.4719 16.0701 21.4157 16.1079C21.325 16.1282 21.2167 16.1148 21.1737 16.0666C21.1477 15.9783 21.2222 15.9051 21.3017 15.8879C21.3756 15.8645 21.5038 15.8432 21.5442 15.9568ZM16.551 16.56C16.5553 16.6362 16.6473 16.7185 16.5805 16.8073C16.3815 16.8898 16.1901 16.7359 16.0107 16.6972C15.3367 16.5331 14.5397 16.3964 13.8784 16.6564C13.7079 16.6429 13.4949 16.8694 13.3936 16.6564C13.4282 16.427 13.6969 16.3375 13.8916 16.2724C14.611 16.1004 15.5843 15.8539 16.2821 16.2724L16.551 16.56ZM21.3158 16.5324C21.3194 16.5954 21.2411 16.6158 21.2018 16.6425C21.1449 16.6608 21.08 16.6467 21.0315 16.6569C20.9542 16.6191 20.9597 16.5366 20.9888 16.4928C21.0803 16.4001 21.2546 16.4031 21.3158 16.5324ZM3.63796 17.0955C3.6843 17.3952 3.4994 17.6378 3.46699 17.9328C3.29242 18.1903 3.28905 18.5847 2.9548 18.7291C2.84866 18.6568 2.91206 18.547 2.89813 18.4411C2.98073 18.0941 3.00066 17.7303 3.15362 17.4246C3.20333 17.2434 3.36758 17.0793 3.52414 16.9855C3.58105 16.9827 3.60554 17.049 3.63796 17.0955ZM6.75288 18.6051C6.74063 18.6336 6.76657 18.6779 6.7243 18.7018C6.46737 18.5889 6.21139 18.3555 6.08389 18.1247L6.09925 18.0568C6.36099 18.118 6.59872 18.3757 6.75288 18.6051ZM17.9728 18.4543C18.084 18.6121 18.1121 18.8941 18.0009 19.0723C17.7997 19.2123 17.5696 19.0345 17.3902 18.9622C17.2952 18.8834 17.2171 18.7905 17.2762 18.6872C17.3338 18.5087 17.5216 18.3959 17.7046 18.3727C17.7999 18.3655 17.8856 18.4033 17.9728 18.4543ZM9.71124 18.7159C9.65097 19.2264 9.4178 19.6732 9.26964 20.1571C9.15414 20.5233 8.83766 20.9311 8.44409 21.076C8.3939 21.0788 8.36221 21.0549 8.35932 21.0208V20.9393C8.67869 20.3752 8.98413 19.8139 9.14142 19.1958C9.24242 18.9704 9.39292 18.7689 9.58253 18.6051C9.65096 18.5917 9.68386 18.6568 9.71124 18.7159ZM20.2922 21.1175C20.5522 22.2081 21.0483 23.2092 21.7286 24.151C22.0057 24.5445 22.375 24.9074 22.6668 25.3174C22.4672 25.3093 22.2996 25.1653 22.1395 25.071C20.9381 24.2632 20.3582 23.0688 19.9361 21.9003C19.8467 21.587 19.7053 21.2744 19.8088 20.9395C19.8335 20.8834 19.8828 20.8222 19.951 20.8155C20.1318 20.7942 20.2206 20.9761 20.2922 21.1175ZM3.36782 20.9525C3.35859 21.0568 3.32724 21.1582 3.27574 21.2504C3.22423 21.3425 3.15365 21.4235 3.06838 21.4883H3.01219C2.98073 21.2509 3.06838 21.0076 3.28233 20.8843C3.31379 20.8871 3.35317 20.9075 3.36782 20.9525ZM7.6764 23.5329C7.71098 23.5765 7.77558 23.6347 7.73452 23.7116C7.69009 23.7651 7.5974 23.7489 7.54794 23.7387C6.95795 23.5839 6.53532 23.0484 5.98447 22.8335C6.01545 22.808 6.15064 22.7946 6.21211 22.8467C6.72358 23.0076 7.22809 23.1923 7.6764 23.5329ZM3.4533 24.6177C3.65501 25.0648 3.69079 25.6075 3.75082 26.1129C3.73713 26.1839 3.65501 26.1289 3.62355 26.1268C3.31355 25.6105 3.22158 25.017 3.15386 24.4251C3.16107 24.2798 3.16875 24.1329 3.28233 24.0551C3.5347 24.094 3.38919 24.4238 3.4533 24.6177ZM1.42015 25.208C1.40862 25.2685 1.3558 25.3192 1.29144 25.3447C1.2206 25.3366 1.14641 25.2916 1.1344 25.2346C1.13488 25.1686 1.20284 25.144 1.24918 25.125C1.31594 25.1169 1.38005 25.1514 1.42015 25.208ZM36.007 26.5933C36.2735 27.5597 36.2308 28.7634 35.8788 29.6952C35.5837 30.5546 34.9377 31.3842 34.1163 31.9327C34.0488 31.9476 33.9669 31.9654 33.916 31.9471C33.7683 31.7304 33.9669 31.5256 34.073 31.3564C34.7451 30.5511 35.3392 29.7168 35.5808 28.7486C35.716 27.8577 35.716 26.8828 35.6375 26.0029C35.655 25.9574 35.7198 25.9092 35.7654 25.976C35.8788 26.1565 35.9143 26.3794 36.007 26.5933ZM14.1908 27.5141C15.0224 28.2524 15.5317 29.1546 16.4518 29.8197C16.7585 30.1634 17.1398 30.4758 17.3902 30.8764V30.9036H17.348C16.3061 30.2836 15.3641 29.4533 14.3894 28.7217C13.9389 28.3143 13.6167 27.8721 13.2375 27.4587C13.1974 27.296 13.0893 27.0833 13.2375 26.9509C13.3852 26.8561 13.5561 26.9725 13.6933 27.061L14.1908 27.5141ZM22.3825 28.5701C22.5964 28.9347 22.1774 29.1928 22.0847 29.518C21.98 29.6185 22.0492 29.81 21.8864 29.8874C21.8485 29.8919 21.8101 29.8867 21.775 29.8724C21.7398 29.8581 21.7092 29.8351 21.6861 29.8058C21.6179 29.4876 21.7754 29.1926 21.8275 28.9008C21.8206 28.7363 21.8523 28.5722 22.0266 28.5164C22.1267 28.4306 22.2895 28.4621 22.3825 28.5701ZM6.21211 30.7807C6.24621 30.8472 6.20347 30.936 6.142 30.9865C6.07356 31.0215 5.99768 30.9939 5.94173 30.9728C5.87714 30.8975 5.78853 30.8472 5.82719 30.7527C5.85312 30.6945 5.9122 30.6713 5.97103 30.6565C6.0738 30.6303 6.17633 30.6753 6.21211 30.7807Z" fill="white"/>
<path fill-rule="evenodd" clip-rule="evenodd" d="M17.7745 32.6335C18.771 33.2231 19.5769 34.1908 19.6943 35.3099C19.9546 35.6731 20.3563 35.9101 20.7042 36.2014C20.789 36.2842 20.8183 36.4207 20.7902 36.5593L20.7333 36.6828C20.5145 37.5912 20.5652 38.6612 20.7467 39.5914C20.9746 40.4929 21.3363 41.358 21.7848 42.1999C21.7887 42.5035 21.4854 42.7262 21.4157 43.0365C21.3761 43.1276 21.3114 43.2064 21.2287 43.2647C21.146 43.3229 21.0485 43.3583 20.9465 43.367C20.1347 43.3445 19.5199 42.8842 18.8423 42.6119C17.9456 42.2417 16.9956 42.0056 16.0251 41.9119C15.2728 41.5431 14.2633 41.9274 13.5225 41.5821C13.3002 41.2071 12.8339 41.4604 12.5267 41.4175C11.8894 41.6361 11.0685 41.6361 10.4643 41.3626C9.70597 41.1323 9.17529 40.3877 8.78677 39.7837C8.75099 39.6978 8.77452 39.6116 8.82927 39.564C9.29824 39.2299 9.97948 39.2375 10.5354 39.399C11.3343 39.3374 12.1089 39.4329 12.7818 39.7425C13.1784 39.828 13.5091 39.5525 13.9341 39.6614C14.3702 39.7284 14.781 39.8713 15.1729 40.1003C16.2108 40.3559 17.22 40.7473 18.3851 40.7174C18.788 40.6931 19.3137 40.936 19.6232 40.5939C19.8372 40.0542 19.2568 39.7418 19.0829 39.3311C17.8955 37.5636 16.9929 35.6935 16.5666 33.6488C16.5128 33.2335 16.4055 32.8078 16.4948 32.414C16.5163 32.3591 16.5529 32.3108 16.6006 32.2743C16.6483 32.2378 16.7053 32.2145 16.7657 32.2069C17.1631 32.18 17.4544 32.4245 17.7745 32.6335Z" fill="#161718"/>
<path fill-rule="evenodd" clip-rule="evenodd" d="M29.295 33.937C29.4206 34.2385 29.3632 34.6438 29.1233 34.8978C29.0383 34.908 29.0047 34.8598 28.9963 34.8158C28.9691 34.5483 28.8697 34.3212 28.754 34.1157C28.7223 33.937 28.8131 33.8 28.9679 33.7178C29.1041 33.6939 29.2174 33.82 29.295 33.937ZM22.4963 36.3119C22.5023 36.6674 22.2072 36.9423 22.1397 37.2998C22.0086 37.5219 21.9731 37.7935 21.8977 38.0549C21.8609 38.078 21.8273 38.1084 21.7848 38.1096C21.6071 37.7856 21.7351 37.3844 21.7848 37.0662C21.8945 36.7499 22.0297 36.4412 22.3253 36.2292C22.3923 36.2011 22.4612 36.2392 22.4963 36.3119ZM10.6504 40.0724C10.69 40.1503 10.5745 40.2319 10.5068 40.2782C10.435 40.3216 10.3305 40.3355 10.2503 40.3197C10.1819 40.287 10.1111 40.2191 10.0947 40.1686C10.0472 40.0618 10.1644 40.0576 10.2071 40.018C10.3423 39.9612 10.545 39.9612 10.6504 40.0724ZM14.0477 40.2782C14.0537 40.3111 13.9994 40.3216 13.9776 40.3475C13.8846 40.3394 13.8011 40.3394 13.7497 40.2926C13.7257 40.2395 13.7715 40.2078 13.8066 40.2099C13.894 40.1941 13.9862 40.1913 14.0477 40.2782ZM16.1392 40.8275C16.3563 40.8532 16.599 40.8532 16.8353 40.8824C17.28 40.9693 17.7641 40.9904 18.186 41.1832C18.2086 41.2096 18.2797 41.2339 18.2578 41.3072C18.1728 41.433 18.0242 41.3229 17.918 41.3482C17.4623 41.0731 16.8831 41.3619 16.466 41.0465C16.1255 40.8675 15.688 40.9394 15.3986 40.6898C15.3537 40.6333 15.3391 40.582 15.3986 40.5524C15.664 40.5755 15.8969 40.6958 16.1392 40.8275ZM22.9223 41.0196C22.9727 41.3964 22.9012 41.8383 23.0935 42.1866C23.0954 42.2295 23.0183 42.2429 22.9946 42.2279C22.7516 41.845 22.5986 41.4395 22.4538 41.0465C22.4394 40.8599 22.4324 40.6613 22.6104 40.5939C22.8327 40.5994 22.8543 40.8458 22.9223 41.0196ZM20.4343 40.9507C20.4694 41.0497 20.3585 41.1208 20.2922 41.1704C20.2021 41.1688 20.1241 41.2585 20.0501 41.1976C20.0071 41.0525 20.17 40.9732 20.2629 40.9239C20.3133 40.8805 20.3753 40.909 20.4343 40.9507ZM25.3125 44.7391C25.2928 44.8491 25.1718 44.9391 25.0858 45.0267C25.0445 45.0387 24.9883 44.9975 24.9855 44.9724C24.9403 44.8635 24.9672 44.7437 25.0858 44.7117C25.1338 44.6682 25.275 44.6336 25.3125 44.7391ZM23.6916 45.5217C23.684 45.7423 23.4306 45.9133 23.3067 46.1258C23.0183 46.4897 22.606 46.8741 22.2403 47.168C22.0336 47.3995 21.7493 47.5012 21.5291 47.7179L21.4726 47.7042C21.4683 47.5223 21.5783 47.396 21.6861 47.2778C22.1517 46.7708 22.6629 46.342 23.0935 45.8635C23.2772 45.7212 23.4657 45.5815 23.6916 45.5217ZM20.3056 48.6236C20.321 48.7779 20.1447 48.8648 20.0362 48.9524C19.9757 48.964 19.8969 49.0122 19.8511 48.9672C19.816 48.8532 19.8828 48.758 19.951 48.6917C20.0285 48.5828 20.2101 48.4625 20.3056 48.6236ZM18.7414 50.75C18.7494 50.9227 18.674 51.1044 18.5426 51.2587C18.4074 51.3062 18.2662 51.3792 18.1164 51.3544C18.0031 51.1792 18.1699 51.0631 18.2578 50.9558C18.4 50.8467 18.5568 50.5765 18.7414 50.75Z" fill="white"/>
</svg>
