<svg width="40" height="47" viewBox="0 0 40 47" fill="none" xmlns="http://www.w3.org/2000/svg">
<g clip-path="url(#clip0_1007_2779)">
<path d="M18.8042 46.6501C18.1564 46.2775 16.3061 44.8203 14.8367 43.5257C12.3977 41.3769 10.259 39.0104 8.34548 36.3432C4.22748 30.6029 1.68077 23.9253 0.567479 15.9473C0.0360675 12.1407 -0.169933 6.82353 0.167832 5.6371C0.381597 4.88599 0.868068 4.18645 1.48313 3.74583C2.14807 3.26931 4.27172 2.41145 6.17666 1.84987C10.2134 0.659469 14.6718 0.0894503 19.9624 0.0866791C26.707 0.0833055 32.227 1.00526 36.884 2.91292C38.5467 3.59402 39.1616 4.08247 39.6416 5.10239L39.9572 5.77253L39.9498 8.70419C39.9291 16.851 38.1349 24.7707 34.8628 31.1589C34.0289 32.7871 32.0572 35.9364 31.0818 37.1986C29.2768 39.5341 27.1901 41.7749 25.1195 43.6016C23.7212 44.8349 21.6521 46.4427 21.0785 46.7415C20.3736 47.1088 19.5436 47.0754 18.8042 46.6501ZM20.2035 46.4407C20.0952 46.4113 19.9183 46.4113 19.8101 46.4407C19.7018 46.4702 19.7904 46.4943 20.0068 46.4943C20.2232 46.4943 20.3117 46.4702 20.2035 46.4407ZM15.7358 43.5457C15.7358 43.5214 15.6474 43.4288 15.5391 43.3405C15.3608 43.1946 15.3568 43.1987 15.4967 43.3847C15.6435 43.5802 15.7358 43.6422 15.7358 43.5457ZM15.0614 42.9654C15.0614 42.9445 14.9223 42.7992 14.7523 42.643L14.4432 42.3587L14.7157 42.6812C14.9704 42.9827 15.0614 43.0575 15.0614 42.9654ZM13.4878 41.4207C13.0896 41.0014 12.7384 40.6585 12.7076 40.6585C12.6768 40.6585 12.9772 41.0015 13.3755 41.4207C13.7737 41.8399 14.1249 42.1829 14.1557 42.1829C14.1865 42.1829 13.8861 41.8399 13.4878 41.4207ZM11.8019 39.6616C11.4037 39.2423 11.0525 38.8995 11.0217 38.8995C10.9909 38.8995 11.2914 39.2424 11.6896 39.6617C12.0878 40.0809 12.439 40.4239 12.4698 40.4239C12.5007 40.4239 12.2001 40.0809 11.8019 39.6617V39.6616ZM10.7902 38.5095C10.7902 38.4884 10.6512 38.3432 10.4812 38.187L10.1722 37.9026L10.4447 38.2253C10.6994 38.5265 10.7902 38.6014 10.7902 38.5095ZM10.116 37.6865C10.116 37.6641 10.0022 37.5454 9.86301 37.4226L9.61007 37.1992L9.82419 37.4631C10.0254 37.7109 10.116 37.7802 10.116 37.6865ZM9.6663 37.0999C9.6663 37.0776 9.55254 36.959 9.41336 36.8361L9.16066 36.6128L9.37477 36.8766C9.57595 37.1246 9.6663 37.1939 9.6663 37.0999ZM9.21677 36.5099C9.21677 36.4856 9.1283 36.393 9.02007 36.3047C8.84183 36.1588 8.83772 36.1629 8.9776 36.3489C9.12442 36.5441 9.21677 36.6064 9.21677 36.5099ZM8.8796 36.0407C8.8796 36.0165 8.79113 35.9241 8.68289 35.8356C8.50466 35.6898 8.50054 35.6939 8.64042 35.8799C8.78736 36.0753 8.8796 36.1374 8.8796 36.0407ZM8.54242 35.5718C8.54242 35.5475 8.45395 35.4549 8.34571 35.3666C8.16748 35.2207 8.16336 35.2249 8.30336 35.4108C8.45007 35.606 8.54242 35.6683 8.54242 35.5718ZM6.96889 33.1535C6.90277 33.0245 6.82336 32.919 6.79242 32.919C6.76148 32.919 6.7903 33.0245 6.85654 33.1535C6.92266 33.2825 7.00207 33.388 7.03301 33.388C7.06395 33.388 7.03501 33.2826 6.96889 33.1535ZM6.6316 32.5671C6.56548 32.4382 6.48607 32.3327 6.45513 32.3327C6.42419 32.3327 6.45301 32.4382 6.51924 32.5671C6.58536 32.6961 6.66477 32.8017 6.69571 32.8017C6.72666 32.8017 6.69783 32.6963 6.6316 32.5671ZM6.29454 31.9809C6.22842 31.8519 6.14889 31.7464 6.11807 31.7464C6.08724 31.7464 6.11595 31.8519 6.18219 31.9809C6.2483 32.1098 6.32771 32.2154 6.35866 32.2154C6.38948 32.2154 6.36066 32.1099 6.29454 31.9809ZM5.25889 29.9336C4.93736 29.2588 4.6563 28.7259 4.63442 28.7487C4.58466 28.8005 5.71442 31.1601 5.78901 31.1601C5.81901 31.1601 5.58042 30.6082 5.25889 29.9336ZM4.28513 27.7973C4.15266 27.5597 4.12066 27.6359 4.22901 27.9307C4.2676 28.0354 4.32277 28.0965 4.35172 28.0664C4.38066 28.0363 4.35077 27.9153 4.28513 27.7975V27.7973ZM15.0824 7.50993C15.0012 7.4762 14.9043 7.48029 14.867 7.51933C14.8297 7.55825 14.8961 7.58596 15.0145 7.58078C15.1455 7.57524 15.1722 7.54729 15.0824 7.50993ZM0.942421 5.29745C0.980773 5.19311 0.96195 5.146 0.898303 5.18709C0.837126 5.22649 0.787126 5.30842 0.787126 5.36902C0.787009 5.5377 0.867597 5.50059 0.942421 5.29745ZM39.2267 5.37517C39.2267 5.31781 39.1217 5.14624 38.9937 4.99407L38.7608 4.71731L38.9618 5.09841C39.1701 5.49348 39.2265 5.55252 39.2265 5.37517H39.2267ZM12.6097 3.64029C12.5285 3.60643 12.4316 3.61053 12.3943 3.64945C12.3569 3.68836 12.4234 3.7162 12.5418 3.71114C12.6728 3.70547 12.6995 3.67776 12.6097 3.64029ZM17.478 3.48583C17.5897 3.35691 17.6561 3.25136 17.625 3.25136C17.594 3.25136 17.4774 3.35691 17.3655 3.48583C17.2536 3.61475 17.1874 3.72029 17.2183 3.72029C17.2492 3.72029 17.3661 3.61475 17.478 3.48583ZM14.6329 3.4057C14.5517 3.37185 14.4548 3.37606 14.4175 3.41498C14.3802 3.4539 14.4465 3.48173 14.565 3.47667C14.696 3.47101 14.7225 3.44342 14.6329 3.4057ZM28.1204 1.1778C28.0392 1.14394 27.9423 1.14804 27.905 1.18696C27.8677 1.22599 27.934 1.25371 28.0525 1.24864C28.1835 1.24298 28.2102 1.21515 28.1204 1.1778ZM27.2212 1.06045C27.1401 1.02659 27.0431 1.03081 27.006 1.06972C26.9685 1.10864 27.0349 1.13635 27.1535 1.13117C27.2843 1.12563 27.3109 1.09792 27.2212 1.06045ZM26.3292 0.945623C26.252 0.913092 26.1255 0.913092 26.0481 0.945623C25.9709 0.978154 26.0342 1.00466 26.1885 1.00466C26.3432 1.00466 26.4064 0.978154 26.3292 0.945623ZM15.1949 0.82598C15.1137 0.792124 15.0168 0.79622 14.9795 0.835258C14.9422 0.874175 15.0085 0.901887 15.127 0.896706C15.258 0.891163 15.2845 0.863331 15.1949 0.82598ZM25.0344 0.824776C24.925 0.795016 24.7732 0.797064 24.6974 0.829113C24.6212 0.861283 24.7107 0.885621 24.8961 0.883091C25.0815 0.880681 25.1437 0.854536 25.0344 0.824776ZM17.3354 0.703808C17.1334 0.677662 16.8298 0.678265 16.661 0.705013C16.4922 0.731761 16.6575 0.753087 17.0283 0.752484C17.3992 0.751882 17.5375 0.729953 17.3354 0.703808ZM23.2924 0.703808C23.0904 0.677662 22.7869 0.678265 22.6181 0.705013C22.4492 0.731761 22.6144 0.753087 22.9854 0.752484C23.3563 0.751882 23.4944 0.729953 23.2924 0.703808Z" fill="#E2E2E2"/>
<path d="M18.9504 46.6963C16.9381 45.5939 12.2368 41.2307 9.79148 38.1959C3.56866 30.4728 0.463835 21.141 0.0424236 8.89377C-0.062047 5.85922 0.131247 5.0728 1.23584 4.03663C2.64689 2.71297 8.20442 1.06665 13.1507 0.507233C22.3363 -0.531837 31.1545 0.443496 37.4528 3.19527C39.2132 3.96458 39.8963 4.98858 39.9889 6.99708C40.0497 8.31472 39.8501 12.2536 39.6155 14.3701C38.1701 27.4067 32.942 37.2749 23.3861 45.0033C21.3835 46.6231 20.9065 46.9102 20.1396 46.9582C19.6231 46.9903 19.3956 46.9401 18.9504 46.6963ZM21.5455 45.8207C25.1804 43.2477 28.9263 39.4389 31.6372 35.5593C35.2249 30.4253 37.5904 24.3395 38.771 17.2057C39.4634 13.0223 39.7569 6.99178 39.339 5.53788C39.0928 4.68195 38.3349 4.0688 36.6857 3.39179C31.8809 1.41943 25.3067 0.402772 18.6018 0.595549C12.5042 0.770856 7.57972 1.67197 3.35584 3.3854C2.14831 3.87518 1.84172 4.05398 1.31666 4.57399C0.711365 5.17353 0.695718 5.2057 0.557718 6.12947C0.395012 7.21902 0.545953 11.423 0.846188 14.1568C2.30384 27.4334 7.63089 37.3343 17.4857 45.0832C19.0308 46.2981 19.4249 46.5216 20.0221 46.5216C20.4882 46.5216 20.6797 46.4334 21.5455 45.8207ZM18.8807 45.9168C18.3571 45.5846 16.8803 44.4165 15.7358 43.4292C9.61819 38.1528 5.40219 31.7305 2.98031 23.9992C2.04878 21.0253 1.3476 17.5289 0.958188 13.9153C0.769718 12.166 0.5476 7.15082 0.633953 6.59322C0.771012 5.70801 0.775718 5.69909 1.02678 5.83934C1.38372 6.03862 1.54313 5.80259 1.30631 5.42535C1.16042 5.19317 1.14513 5.07112 1.23925 4.88798C1.85454 3.68842 7.48595 1.85354 12.5327 1.20822C14.971 0.896523 16.8856 0.78917 20.0188 0.788929C26.0716 0.788447 30.6373 1.44738 35.012 2.9531C36.9891 3.6336 38.1811 4.17784 38.5001 4.5458C38.6989 4.77496 38.6995 4.80002 38.5112 5.13245C38.2651 5.56704 38.3476 5.71379 38.8378 5.71379C39.2454 5.71379 39.2375 5.70054 39.3875 6.63454C39.4798 7.21022 39.2528 12.3179 39.053 14.1568C38.1324 22.6323 35.5513 29.8529 31.3116 35.8138C28.8137 39.3256 24.9763 43.2031 21.5925 45.6343L20.7875 46.2126L20.6067 45.9434C20.4531 45.7149 20.3569 45.6839 19.9675 45.7384C19.7154 45.7737 19.453 45.8823 19.3847 45.9801C19.275 46.1362 19.2145 46.1286 18.8807 45.9168ZM16.4583 31.3276C16.656 31.1213 16.6948 30.8082 16.5225 30.8082C16.4608 30.8082 16.4101 30.86 16.4101 30.9233C16.4101 30.9865 16.2836 31.0714 16.1291 31.1119C15.8477 31.1854 15.7827 31.2872 15.9231 31.4336C16.0494 31.5655 16.2728 31.5213 16.4583 31.3275V31.3276ZM13.4877 29.8047C13.4877 29.7763 13.4371 29.7529 13.3754 29.7529C13.3136 29.7529 13.2629 29.8089 13.2629 29.877C13.2629 29.9454 13.3135 29.9686 13.3754 29.9288C13.4372 29.889 13.4877 29.8331 13.4877 29.8047ZM21.3423 28.8103C21.1536 28.4904 20.9811 28.2286 20.9592 28.2286C20.9374 28.2286 21.0555 28.5106 21.2216 28.8555C21.388 29.2001 21.5604 29.4622 21.6047 29.4373C21.649 29.4125 21.5309 29.1303 21.3423 28.8103ZM23.21 26.8216C23.25 26.7541 23.171 26.7168 23.0241 26.7336C22.8225 26.7565 22.7531 26.6888 22.6935 26.411C22.6235 26.0828 22.6176 26.0793 22.6051 26.3582C22.5851 26.8106 23.0196 27.1434 23.21 26.8216ZM20.6704 25.019C21.1763 24.9194 21.3556 24.7488 21.3556 24.3668C21.3556 24.0238 21.0285 23.4458 21.022 23.7773C21.02 23.8767 20.7949 24.1867 20.522 24.4663C20.249 24.746 19.9996 25.0784 19.9678 25.2052C19.9161 25.4117 19.9297 25.4179 20.0989 25.2652C20.2028 25.1712 20.46 25.0606 20.6704 25.0191V25.019ZM24.2751 24.8306C23.5307 24.7303 23.2723 24.5978 22.8851 24.1178C22.4031 23.5202 22.536 22.8334 23.191 22.5361L23.5474 22.3743L23.1471 22.3698C21.9685 22.3563 21.9495 24.0548 23.1211 24.7C23.4198 24.8644 23.7492 24.9317 24.2217 24.9244L24.8961 24.9142L24.2751 24.8306ZM27.4161 23.7137C27.4112 23.5847 27.3817 23.5452 27.3505 23.6259C27.3192 23.7065 27.1968 23.7725 27.0785 23.7725C26.96 23.7725 26.863 23.8121 26.863 23.8604C26.863 23.9087 26.9895 23.9482 27.1441 23.9482C27.3531 23.9482 27.4228 23.8882 27.4161 23.7138V23.7137ZM15.4502 23.0341C15.6382 22.7339 15.9102 22.4536 16.0549 22.4112C16.3623 22.3216 17.1211 22.5493 17.5612 22.8633C18.0032 23.1788 18.5763 23.2544 18.7615 23.0216C18.8435 22.9186 19.0434 22.8324 19.2058 22.8305C19.4898 22.8269 19.4928 22.8201 19.283 22.6546C19.1476 22.5477 18.8063 22.4817 18.3838 22.4807C17.5572 22.4786 17.1963 22.3051 16.9668 21.799L16.7927 21.4151L16.5796 21.6608C16.2776 22.009 15.9204 21.9237 15.847 21.4856L15.7881 21.1338L15.4407 21.6615C14.9484 22.4092 14.7244 22.8963 14.7244 23.2193C14.7242 23.8391 14.9884 23.7716 15.4502 23.0342V23.0341ZM22.2267 21.6685C22.3417 21.6405 22.2134 20.8639 22.0325 20.4943C21.8634 20.1479 21.7229 20.0217 21.4425 19.9639C20.3369 19.7358 20.0636 19.3874 20.1656 18.3347C20.2431 17.5331 20.2355 17.5142 19.6338 17.0464C19.398 16.8628 19.1496 16.5861 19.0821 16.4315C18.9214 16.0634 18.7594 16.0765 17.9865 16.5198C17.08 17.0397 16.9963 17.2201 17.4085 17.766C17.5916 18.0084 17.7721 18.4242 17.8147 18.701C17.8574 18.9793 17.9532 19.1993 18.0318 19.1993C18.2394 19.1993 18.4334 19.727 18.4334 20.2915C18.4334 20.7087 18.5109 20.8789 18.9272 21.3754L19.4211 21.9644L20.81 21.8201C21.5737 21.7405 22.2111 21.6723 22.2268 21.6685H22.2267ZM24.6651 20.7767C24.5128 20.3544 24.235 19.3913 24.0477 18.6365C23.8498 17.8391 23.4928 16.8099 23.1952 16.1796C22.7092 15.1504 22.5682 14.9673 22.4347 15.1928C22.3605 15.3181 22.95 16.8338 23.3741 17.6089C23.5528 17.9354 23.8323 18.7564 23.9952 19.4338C24.1661 20.1427 24.4145 20.8516 24.5811 21.1047C24.7402 21.3466 24.8865 21.5444 24.9063 21.5444C24.9261 21.5444 24.8175 21.1989 24.6651 20.7767ZM22.0018 14.7052C21.4192 14.2074 21.7151 13.8415 22.4269 14.1799C22.654 14.2878 22.7102 14.3844 22.6709 14.5991C22.638 14.7793 22.6584 14.8377 22.7285 14.7644C22.9304 14.554 22.7634 14.2168 22.3537 14.0078C21.6172 13.6322 21.2394 14.0745 21.8164 14.6367C22.0088 14.8243 22.1985 14.9757 22.2384 14.9735C22.2784 14.9711 22.1718 14.8504 22.0018 14.7052ZM26.7001 13.9847C26.7897 13.761 26.8628 13.4577 26.8624 13.3104C26.8621 12.9517 26.4868 12.3288 26.1665 12.1548L25.9076 12.0142L26.1464 12.2938C26.6697 12.9069 26.7671 13.4392 26.4668 14.0453C26.3605 14.2597 26.3414 14.3911 26.4162 14.3911C26.4828 14.3913 26.6105 14.2083 26.7001 13.9847ZM18.4542 11.2219C17.9562 10.905 17.9912 10.4664 18.5456 10.0769C18.8608 9.85549 19.0562 9.80826 19.5291 9.83838C19.9315 9.86453 20.1194 9.83212 20.1194 9.73681C20.1192 9.6597 20.3594 9.51753 20.6531 9.42042L21.1869 9.24367L20.5125 9.30511C19.48 9.39945 18.7471 9.65416 18.2697 10.0847C17.9035 10.415 17.8477 10.5244 17.9112 10.7889C17.9527 10.9612 18.125 11.1804 18.2942 11.2761C18.7554 11.5371 18.8822 11.4942 18.4542 11.2219ZM3.69337 8.32315C3.65595 6.02007 3.65725 6.00645 3.90737 5.89139C4.28136 5.71909 4.21195 5.58957 3.82172 5.7315L3.48454 5.85416V8.24664C3.48454 9.9032 3.52242 10.639 3.60772 10.639C3.69419 10.639 3.71972 9.94803 3.69337 8.32315ZM22.2362 10.5362C22.3525 10.4591 22.3392 10.4242 22.1767 10.3798C22.0614 10.3484 21.9035 10.3938 21.8256 10.4808C21.7103 10.6096 21.7212 10.6386 21.8851 10.6372C21.9957 10.6362 22.1536 10.5908 22.2362 10.5362ZM36.1661 5.84247C36.3387 5.9103 36.4236 5.91452 36.3604 5.85175C36.2987 5.7903 36.1343 5.70439 35.9953 5.66053L35.7423 5.58089L35.7681 8.02194L35.7937 10.4632L35.8265 8.09242L35.8594 5.72162L36.1661 5.84247ZM5.67631 9.32029C5.74984 9.24511 5.6916 9.23511 5.50772 9.29138C5.06831 9.4256 4.49619 9.68296 4.49619 9.74645C4.49619 9.83236 5.54642 9.45319 5.67631 9.32029ZM6.75454 7.0748C7.23289 4.91473 7.25372 4.85521 7.58466 4.70472L7.92419 4.5505L7.6289 4.54592C7.46654 4.54339 7.28289 4.60725 7.22101 4.68785C7.10913 4.83352 6.06313 9.3374 6.07678 9.61452C6.09195 9.92128 6.28172 9.21005 6.75442 7.07468L6.75454 7.0748ZM34.0698 9.1527C33.9376 8.91486 33.9056 8.99101 34.014 9.28584C34.0524 9.39066 34.1077 9.45174 34.1367 9.4215C34.1656 9.39126 34.1357 9.27041 34.07 9.1527H34.0698ZM32.5381 4.68713C32.6894 4.71725 32.7863 4.69677 32.7538 4.64159C32.7211 4.5864 32.5709 4.54134 32.42 4.54134H32.1456L32.1712 6.91588L32.1969 9.29053L32.2298 6.9613L32.2628 4.63219L32.5381 4.68713ZM8.25513 8.59316C8.21278 8.35797 8.15278 8.19182 8.12207 8.22411C8.09136 8.2564 8.10042 8.47533 8.14278 8.71064C8.18501 8.94594 8.24501 9.11209 8.27572 9.0798C8.30642 9.04751 8.29748 8.82847 8.25513 8.59316ZM9.70148 6.51755C9.72254 4.26085 9.72407 4.2476 9.97548 4.21061C10.1145 4.19 10.2283 4.11783 10.2283 4.05036C10.2283 3.98024 10.1198 3.95783 9.97537 3.99819C9.83642 4.03711 9.68466 4.06964 9.63831 4.07048C9.59195 4.07145 9.55407 5.16269 9.55407 6.49562C9.55407 7.82856 9.58254 8.88944 9.61725 8.85317C9.65184 8.8169 9.68984 7.7659 9.70148 6.51755ZM30.996 4.27314C31.2785 4.22832 31.274 4.22314 30.9375 4.20687L30.5722 4.18928L30.5977 6.56382L30.6235 8.93847L30.6563 6.62996L30.6893 4.3217L30.996 4.27314ZM10.9135 7.53566C10.7554 7.05781 10.6084 6.68539 10.5869 6.70792C10.5652 6.73045 10.6641 7.17275 10.8065 7.69096C10.9489 8.20905 11.0958 8.58171 11.1331 8.5187C11.1704 8.45569 11.0716 8.01362 10.9135 7.53566ZM29.0811 7.03323C29.0581 6.72683 29.039 6.97745 29.039 7.59024C29.039 8.20291 29.0581 8.45352 29.0811 8.14724C29.1043 7.84085 29.1043 7.33951 29.0811 7.03323ZM12.2515 7.1601C12.2515 6.47213 12.233 5.93139 12.2103 5.95813C12.1138 6.0726 12.0561 8.41087 12.1496 8.41087C12.2057 8.41087 12.2515 7.84808 12.2515 7.1601ZM13.825 5.89006V3.61758L14.3291 3.53878C14.6063 3.4954 15.0109 3.48155 15.2282 3.50793C15.4455 3.53444 15.5805 3.51155 15.5282 3.45709C15.4762 3.40275 15.0336 3.37371 14.545 3.39275L13.6565 3.42733L13.626 5.86898C13.6057 7.50734 13.6334 8.28616 13.7104 8.23652C13.782 8.19038 13.825 7.30914 13.825 5.89006ZM27.3991 3.70866L27.706 3.69698L27.4248 3.60974C27.2703 3.56191 27.106 3.54384 27.0596 3.56974C27.0132 3.59565 26.9869 4.68231 27.0008 5.98452L27.0265 8.35207L27.0595 6.03621L27.0924 3.72011L27.3992 3.70866H27.3991ZM34.5937 5.28667C34.8924 5.35077 34.8916 5.34872 34.5622 5.19245L34.225 5.03244L34.1688 6.45779C34.1377 7.24179 34.1377 7.9623 34.1688 8.05905C34.1996 8.1558 34.2391 7.55686 34.2565 6.72804L34.2881 5.22112L34.5937 5.28667ZM17.3798 7.58662C17.0327 7.15625 16.9187 6.63021 16.9301 5.51246C16.9398 4.55363 17.203 3.69408 17.5684 3.42685C17.7007 3.33034 18.0125 3.24961 18.2614 3.2478C18.635 3.24491 18.6783 3.2225 18.5094 3.11985C18.2277 2.949 17.7635 3.09033 17.3909 3.4601C16.5988 4.24627 16.5188 6.81081 17.2603 7.64566C17.6305 8.06254 17.7258 8.01555 17.3798 7.58662ZM21.3477 3.26877C21.8355 3.29166 22.1757 3.27178 22.1041 3.22419C22.0323 3.1766 21.6069 3.13684 21.1589 3.13599L20.344 3.13407L20.3696 5.56728L20.3954 8.00049L20.4282 5.61355L20.461 3.2266L21.3477 3.26877ZM22.086 7.23842C21.9807 6.90756 21.8692 6.66334 21.8383 6.69551C21.8075 6.7278 21.8684 7.0248 21.9736 7.35565C22.079 7.6865 22.1904 7.93073 22.2212 7.89856C22.2523 7.86627 22.1915 7.56939 22.086 7.23842ZM15.4071 7.40589C15.6734 7.15468 15.6962 6.43996 15.4485 6.11742C15.2797 5.89765 15.2777 5.89861 15.3923 6.14597C15.6867 6.78166 15.4038 7.4712 14.8472 7.47457C14.6868 7.47565 14.4797 7.5324 14.3869 7.60108C14.2609 7.69446 14.3412 7.71132 14.7048 7.66807C14.9722 7.63614 15.2883 7.51806 15.4071 7.40589ZM23.8675 7.32625C23.615 6.8231 23.5283 5.18124 23.7171 4.47785C23.9101 3.75903 24.3974 3.33347 24.963 3.38986C25.1941 3.41275 25.3588 3.39106 25.3295 3.34154C25.3002 3.29202 25.0729 3.25142 24.8245 3.25142C24.2691 3.25142 23.797 3.68987 23.6148 4.37459C23.4118 5.13654 23.4638 6.63671 23.7129 7.20902C23.8322 7.483 23.9588 7.70735 23.9943 7.70735C24.0298 7.70735 23.9727 7.5359 23.8675 7.32625ZM7.84807 7.48819C7.97031 7.40734 7.96572 7.28782 7.82219 6.81575L7.6476 6.24164L7.71113 6.77623C7.76795 7.25372 7.74666 7.32505 7.51231 7.44252C7.27395 7.56216 7.27054 7.57493 7.47466 7.58048C7.59819 7.58385 7.76631 7.54228 7.84807 7.48819ZM25.5103 7.36336C25.5743 7.23866 25.6258 7.06697 25.625 6.98226C25.6242 6.89756 25.5583 6.95985 25.4787 7.12106C25.3617 7.35794 25.2547 7.41168 24.9212 7.40107C24.6944 7.39385 24.5357 7.4336 24.5687 7.48903C24.689 7.69253 25.3894 7.59903 25.5103 7.36336ZM18.7984 7.00383C18.9392 6.70973 18.9949 6.31092 18.9949 5.59656C18.9949 4.34338 18.7767 3.79674 18.2549 3.74372C18.0489 3.72264 17.8518 3.77939 17.769 3.88325C17.6472 4.03651 17.6741 4.04096 17.9852 3.91855C18.3056 3.79264 18.3609 3.80529 18.5492 4.04783C18.9565 4.57243 18.9895 6.4614 18.6021 7.07829C18.455 7.3124 18.3421 7.36806 18.092 7.32987C17.9152 7.30276 17.7978 7.32685 17.8315 7.38324C17.8649 7.43975 18.052 7.46975 18.247 7.44999C18.5241 7.42216 18.645 7.32432 18.7984 7.00383ZM12.2128 3.83662C12.2649 3.78517 12.4088 3.71782 12.5324 3.68674C12.6836 3.6489 12.6424 3.62589 12.4064 3.61673L12.0557 3.60324L11.7032 4.86376C11.5095 5.55716 11.3541 6.20356 11.3578 6.30031C11.3617 6.39706 11.5343 5.90331 11.7414 5.20329C11.9484 4.50303 12.1607 3.88807 12.2128 3.83662ZM25.6618 5.80006L26.2449 5.75741L25.5985 5.7356C24.9601 5.71415 24.9525 5.71789 24.9676 6.03645C24.9803 6.30393 24.9911 6.31501 25.0309 6.10091C25.0716 5.88199 25.167 5.83644 25.6618 5.80006ZM16.0214 5.83897C15.9805 5.77018 15.8935 5.71391 15.8277 5.71391C15.7532 5.71391 15.7617 5.78126 15.8503 5.89259C16.0044 6.08645 16.1423 6.0432 16.0214 5.83897ZM29.1108 4.88039V3.92963L29.42 4.00434C29.6492 4.06012 29.6856 4.04867 29.5605 3.96036C29.4676 3.89493 29.3034 3.8406 29.1952 3.83951C29.0241 3.83794 28.9985 3.96 28.9985 4.77689V5.71596L28.4084 5.66993C27.9491 5.63403 27.9055 5.64306 28.2117 5.7109C29.1376 5.91572 29.1109 5.9403 29.1109 4.88039H29.1108ZM15.2925 5.26317C15.6125 4.9928 15.637 4.38001 15.3392 4.09591C15.1474 3.91277 15.1418 3.91265 15.272 4.09374C15.4551 4.34856 15.392 5.01883 15.1738 5.13522C15.0809 5.18462 14.8282 5.27691 14.6118 5.34028L14.2184 5.45535L14.6275 5.4674C14.8721 5.47463 15.1392 5.39245 15.2925 5.26317ZM22.1424 5.12763C22.4112 4.84713 22.4361 4.27808 22.1905 4.02193C21.9351 3.75541 21.8767 3.79577 22.0798 4.09831C22.4707 4.6805 22.2248 5.11751 21.4303 5.25293L20.9623 5.33281L21.44 5.34727C21.7811 5.35787 21.9818 5.29522 22.1424 5.12763ZM25.4698 4.33844C25.4324 4.29953 25.4058 4.36881 25.4108 4.4923C25.4161 4.62893 25.4425 4.65677 25.4785 4.56327C25.5111 4.47857 25.507 4.3776 25.4698 4.33844Z" fill="#E2E2E2"/>
<path d="M19.0505 46.7213C17.6987 46.0488 14.1605 42.9967 11.8006 40.4681C5.36199 33.5682 1.76929 25.4068 0.450815 14.6844C0.275521 13.2594 0.00222642 8.97237 0.00128525 7.63148C-0.00047946 5.45791 0.663521 4.13209 2.11305 3.41447C3.66552 2.64601 6.77952 1.64574 9.1607 1.15078C13.3205 0.285695 19.1436 -0.09745 23.5473 0.204006C28.4812 0.541607 32.1948 1.25175 35.7726 2.54191C38.3288 3.46363 39.0949 3.99594 39.6635 5.24441C39.9549 5.88455 39.9569 5.90937 39.9362 8.46934C39.8508 18.9878 37.1843 28.2659 32.1256 35.6461C29.7485 39.1146 26.3788 42.6556 22.7491 45.5001C20.8098 47.0198 20.1131 47.2499 19.0506 46.7212L19.0505 46.7213ZM21.4955 45.8977C24.1448 44.0526 28.3153 40.0307 30.3941 37.3162C32.6235 34.4049 34.9947 30.2032 36.1843 27.0556C38.0129 22.2169 39.0385 17.2642 39.45 11.2838C39.5875 9.28647 39.5935 6.51602 39.4618 5.92431C39.3958 5.62707 39.4048 5.47599 39.4902 5.44623C39.6549 5.38887 39.2754 4.77572 39.0753 4.77572C38.9946 4.77572 38.8062 4.63837 38.6563 4.47089C37.5989 3.28832 32.1587 1.62731 27.2003 0.973188C23.5973 0.498112 17.536 0.438592 13.9376 0.843304C8.40423 1.46549 2.50282 3.18314 1.30376 4.52053C1.12434 4.72078 0.940227 4.86054 0.894932 4.83139C0.313756 4.45668 0.320815 10.0313 0.907521 14.8603C2.19576 25.4653 5.89023 33.6717 12.4716 40.5485C14.7925 42.9732 17.6148 45.4101 19.1326 46.2996C19.9476 46.7773 20.3247 46.7131 21.4955 45.8977ZM19.3732 45.3079C19.1176 45.1527 18.3881 44.6146 17.7523 44.1122C17.1166 43.6098 16.5298 43.1989 16.4485 43.1989C16.3672 43.1989 16.1355 43.0457 15.9339 42.8582L15.5672 42.5176L15.9887 42.833C16.5554 43.2571 16.5246 43.1387 15.9409 42.6494C15.6828 42.433 15.5088 42.3186 15.5542 42.3951C15.7413 42.7112 15.4142 42.5011 15 42.0391C14.7556 41.7666 14.6821 41.6475 14.8367 41.7744C14.9912 41.9013 14.2816 41.1084 13.2598 40.0124C11.4583 38.0805 9.73576 35.9547 8.60446 34.2674C7.95976 33.3059 7.78964 33.1001 7.97434 33.5052L8.10811 33.7985L7.87776 33.5052C7.75105 33.344 7.67129 33.1434 7.70034 33.0594C7.72952 32.9756 7.7054 32.9376 7.64693 32.9753C7.53446 33.0479 7.16282 32.4042 7.25905 32.3037C7.28999 32.2714 7.06611 31.767 6.76199 31.1826C5.95517 29.6334 5.33329 28.2626 4.61082 26.4403C4.25929 25.5535 3.9414 24.8595 3.90434 24.8981C3.8674 24.9366 3.8634 24.8443 3.8954 24.6929C3.93352 24.5129 3.91893 24.4679 3.85352 24.5632C3.7114 24.77 3.33187 23.6297 3.42646 23.2798C3.48529 23.0623 3.47493 23.0443 3.37282 23.1862C3.27423 23.3232 3.26164 23.2713 3.31611 22.9517C3.37129 22.6274 3.3587 22.5781 3.25611 22.7173C3.14599 22.8663 3.13634 22.8605 3.19282 22.679C3.22929 22.5611 3.13599 21.9544 2.98517 21.3305C2.25399 18.3063 1.49164 12.9247 1.45399 10.5219C1.44811 10.1523 1.42011 10.0626 1.36011 10.2225C1.28081 10.434 1.26905 10.4296 1.20093 10.164C1.16046 10.0061 1.1267 9.59998 1.12587 9.26141C1.12352 8.32825 0.903285 8.44837 0.749638 9.4666C0.725285 9.62793 0.699285 8.96827 0.691756 8.00089C0.684227 7.03351 0.715285 6.18914 0.760697 6.12468C0.806109 6.06022 0.994344 6.00733 1.17893 6.00733C1.5834 6.00733 1.6654 5.75395 1.42434 5.24983C1.26693 4.92067 1.27376 4.88645 1.55658 4.58704C1.84387 4.28281 2.90281 3.71617 3.48458 3.55544C3.75611 3.48038 3.75505 3.48387 3.45634 3.66147C3.28646 3.76268 3.1474 3.89666 3.1474 3.95907C3.1474 4.10437 3.14434 4.10474 3.7094 3.89666C4.27882 3.68701 4.42352 3.67617 4.31999 3.85063C4.26987 3.93533 4.31646 3.95642 4.45399 3.91124C6.87305 3.11687 8.94423 2.58673 11.1275 2.20238C12.1615 2.02045 12.8826 1.84526 12.7573 1.80647C12.6336 1.76815 12.7854 1.76309 13.0945 1.79538C13.5238 1.8402 13.6166 1.82309 13.4879 1.72345C13.3595 1.62417 13.4667 1.60658 13.9373 1.65056C14.2773 1.68225 15.6431 1.66285 16.9721 1.60718C21.4533 1.42019 23.3232 1.37935 23.1833 1.47164C23.1068 1.52212 23.7947 1.62791 24.712 1.70659C26.7496 1.88153 29.8549 2.3442 31.5354 2.72324C32.2221 2.87807 32.9059 2.97663 33.0549 2.94205C33.2763 2.89072 33.2949 2.90409 33.1572 3.01458C33.0182 3.12591 33.0313 3.13723 33.232 3.07844C33.5226 2.99374 34.0779 3.12 33.9991 3.25302C33.9685 3.30471 34.0527 3.31712 34.1861 3.28061C34.3626 3.23242 34.4047 3.25471 34.3408 3.36278C34.2753 3.47327 34.3173 3.48978 34.5058 3.42736C34.6676 3.37375 34.7332 3.38688 34.6876 3.46375C34.6468 3.53267 34.8682 3.67063 35.2075 3.78762C36.3295 4.17438 37.5978 4.79175 37.9158 5.10573C38.5833 5.76479 38.6103 5.90214 38.5854 8.50066C38.566 10.5163 38.3482 14.0988 38.156 15.5641C38.0955 16.025 38.1295 15.9461 38.4598 14.8605C38.5873 14.4415 38.7353 14.0412 38.7887 13.9713C38.8421 13.9014 38.9343 13.5584 38.9938 13.2091C39.0963 12.6066 39.0989 12.6192 39.0428 13.4534C38.6495 19.3069 36.7075 26.2761 34.0988 31.1973C31.8787 35.385 28.6703 39.531 25.5126 42.2927L24.7836 42.9303L25.2949 42.3514C25.5761 42.033 25.8887 41.5808 25.9893 41.3463C26.09 41.1121 26.3379 40.7162 26.5401 40.4668L26.9079 40.0134L26.5201 40.3716C26.3069 40.5686 25.8036 41.0402 25.4018 41.4196C24.5233 42.2491 22.2472 44.1534 21.2232 44.916C20.2908 45.6097 19.9794 45.6759 19.3733 45.3078L19.3732 45.3079ZM16.5226 31.3944C16.9993 30.8971 16.7125 30.5448 16.1598 30.949C15.9574 31.0969 15.7722 31.2297 15.748 31.2447C15.6568 31.3003 15.9947 31.629 16.1431 31.629C16.2281 31.629 16.3989 31.5235 16.5226 31.3944ZM13.5572 29.6315C13.5665 29.4403 13.5379 29.2836 13.4936 29.2836C13.3411 29.2836 13.1211 29.8547 13.1955 30.0576C13.3034 30.3508 13.5358 30.0769 13.5572 29.6315ZM21.7934 29.561C21.9995 29.4538 22.0205 29.4053 21.8948 29.3256C21.8078 29.2701 21.6289 29.0404 21.4974 28.8147C21.2006 28.3054 20.7908 27.8405 20.7115 27.923C20.6789 27.9571 20.8171 28.2526 21.0181 28.5799C21.32 29.0707 21.3736 29.2548 21.3252 29.6322C21.2601 30.1376 21.3746 30.3992 21.4722 29.9681C21.5062 29.8185 21.6507 29.6352 21.7934 29.5609V29.561ZM27.7605 29.3717C27.7596 29.291 27.7153 29.1534 27.6622 29.066C27.5387 28.8627 27.376 29.0986 27.4679 29.348C27.5443 29.5563 27.7628 29.574 27.7606 29.3717H27.7605ZM23.2662 26.8128C23.2662 26.7574 23.1651 26.6557 23.0415 26.5867C22.918 26.5176 22.8168 26.3838 22.8168 26.2894C22.8168 26.195 22.7662 26.1176 22.7043 26.1176C22.5118 26.1176 22.5779 26.8013 22.7819 26.9204C22.986 27.0395 23.2662 26.9773 23.2662 26.8128ZM14.4176 25.1795L14.4788 24.5344L14.3049 24.9449C14.2092 25.1706 14.1127 25.6192 14.0905 25.9416C14.0508 26.5186 14.0526 26.5223 14.2033 26.1761C14.2875 25.9828 14.3839 25.5342 14.4176 25.1795ZM20.3212 25.9241C20.3493 25.726 20.4376 25.6916 20.8993 25.6988C21.5295 25.7085 21.8635 25.4686 21.9783 24.9233C22.0342 24.6584 21.9947 24.5105 21.8154 24.3112C21.6854 24.167 21.3829 23.6395 21.1435 23.1392C20.6505 22.1094 20.6702 22.0657 21.5852 22.1576C21.8915 22.1883 22.1423 22.1769 22.1423 22.1322C22.1423 21.9785 22.7159 21.7788 23.1582 21.7788C23.4799 21.7788 23.6401 21.8431 23.742 22.0133C23.8192 22.1422 23.9588 22.2463 24.0521 22.2442C24.1866 22.2415 24.1811 22.2159 24.0251 22.1212C23.6753 21.9087 23.8167 21.7666 24.182 21.9634C24.4545 22.1106 24.4995 22.1779 24.3787 22.2579C24.2638 22.3338 24.2971 22.361 24.5028 22.3599C24.7834 22.3582 24.7834 22.3577 24.4168 22.0099C24.1366 21.744 23.942 21.6615 23.5945 21.6615C23.3442 21.6615 23.0415 21.6069 22.922 21.5401C22.6553 21.3912 22.6208 21.0166 22.8836 21.1217C22.982 21.1611 23.1971 21.2232 23.3613 21.2598L23.66 21.326L23.3788 21.0682C23.2245 20.9265 22.9588 20.7594 22.7888 20.6968C22.4181 20.5605 22.3855 20.2831 22.7248 20.1521C22.9558 20.063 22.9509 20.0533 22.6405 19.9862C22.4291 19.9404 22.2407 19.7833 22.1145 19.5475C21.9412 19.2238 21.8772 19.1894 21.5761 19.2584C21.1921 19.3463 20.6814 19.0764 20.6814 18.7857C20.6814 18.6905 20.7879 18.5014 20.9181 18.3657L21.1548 18.1187L20.9376 17.3982C20.7299 16.7084 20.6941 16.6644 20.0985 16.3651C19.1756 15.9013 19.1438 15.5138 19.9796 14.9211C20.4854 14.5625 20.882 14.5483 21.4812 14.8671C21.9674 15.1259 22.2549 15.639 22.2549 16.2475C22.2549 16.4743 22.4576 16.8737 22.8655 17.4508C23.4992 18.3468 23.7615 19.0309 23.6972 19.619C23.6666 19.8977 23.5972 19.9708 23.3226 20.0135C23.0261 20.0595 23.0465 20.0736 23.4913 20.1308C23.9141 20.185 24.0252 20.2545 24.1692 20.5549C24.4005 21.0375 24.9496 21.7558 24.9511 21.5778C24.9518 21.4995 24.8469 21.1566 24.7181 20.8156C24.5893 20.4747 24.3093 19.5096 24.0961 18.6712C23.8721 17.7902 23.5083 16.7289 23.2346 16.1567C22.9739 15.612 22.7439 15.124 22.7232 15.072C22.7026 15.0199 22.7893 14.9774 22.916 14.9774C23.2885 14.9774 23.9215 15.6551 24.4019 16.5685C24.8747 17.467 25.2553 17.83 25.6616 17.7698C25.8738 17.7382 25.9049 17.6658 25.8875 17.2463C25.8643 16.6832 25.4972 15.8622 25.1746 15.6521C24.8472 15.4387 24.9028 15.3292 25.3392 15.3292C25.7273 15.3292 25.9496 15.1717 25.7466 15.0408C25.6868 15.0022 25.2619 14.8704 24.8023 14.7477C24.3428 14.6251 23.4551 14.28 22.8294 13.9811C22.1394 13.651 21.6096 13.4647 21.4818 13.507C21.3659 13.5453 20.998 13.8259 20.6643 14.1305C19.7428 14.9715 19.0142 15.4941 18.2086 15.8916C16.8567 16.5585 16.5787 17.0281 16.2536 19.1929C16.1523 19.8671 16.0289 20.4474 15.9793 20.4829C15.7682 20.6335 14.7048 22.1865 14.5528 22.5659C14.3528 23.065 14.3453 23.3136 14.5175 23.7079C14.6801 24.0802 15.0949 24.1052 15.3289 23.7566C15.5889 23.3692 15.8507 23.5481 15.7712 24.059C15.7288 24.3306 15.7507 24.4756 15.8335 24.4756C16.0326 24.4756 16.414 24.0259 16.5922 23.5808C16.8055 23.0481 17.0128 22.9832 17.5306 23.2868C18.0703 23.6033 18.7022 23.6107 19.0752 23.3046C19.2313 23.1766 19.4001 23.0981 19.4503 23.1307C19.5727 23.2096 19.7259 22.9481 19.7259 22.6603C19.7259 22.344 20.0753 22.2947 20.2266 22.5897C20.3172 22.7664 20.3131 22.8888 20.2103 23.0604C20.0115 23.3927 20.1927 23.5066 20.5652 23.2836L20.884 23.0926L20.9316 23.5184C20.9743 23.9006 20.9242 24.0003 20.4422 24.4901C19.8487 25.0933 19.6878 25.5151 19.8818 25.9593C20.0275 26.2931 20.2712 26.2735 20.3212 25.9241ZM15.9606 23.4714C15.9606 23.1229 16.1441 22.7169 16.3016 22.7169C16.4573 22.7169 16.4358 23.4639 16.2752 23.6314C16.0645 23.8515 15.9606 23.7988 15.9606 23.4714ZM17.4766 21.9364C17.3742 21.8298 17.2448 21.6175 17.1893 21.4645C17.0413 21.0584 16.7781 21.0042 16.4611 21.3149C16.1292 21.6403 16.0003 21.5519 16.1606 21.1083C16.2253 20.9288 16.3389 20.2856 16.4129 19.6787C16.6239 17.946 17.1032 17.6604 17.4871 19.0385C17.5835 19.3848 17.7347 19.7436 17.8231 19.8356C17.9114 19.9277 17.9836 20.2148 17.9836 20.4735C17.9836 20.8537 18.0698 21.0477 18.4333 21.4855C18.6806 21.7839 18.8827 22.0506 18.8827 22.0792C18.8827 22.1077 18.6083 22.1307 18.2727 22.1307C17.8548 22.1306 17.604 22.0692 17.4766 21.9364ZM21.9738 14.5693C21.7031 14.3365 21.6678 14.258 21.7949 14.1702C22.1062 13.9558 22.7976 14.4256 22.5778 14.7021C22.4087 14.9149 22.3645 14.9051 21.9738 14.5693ZM25.3083 24.8549C25.4182 24.7405 25.2775 24.7104 24.6321 24.7104C23.4027 24.7104 22.8168 24.2914 22.8168 23.4127C22.8168 22.4458 23.9974 22.1789 24.2978 23.078C24.3607 23.2664 24.4598 23.4208 24.5176 23.4208C24.5794 23.4208 24.5748 23.3268 24.5066 23.1939C24.3166 22.8233 24.3701 22.7179 24.7555 22.7034C25.0288 22.6932 24.9702 22.6637 24.5229 22.5859C24.1942 22.5288 23.8307 22.4296 23.7155 22.3651C23.2567 22.1089 22.4888 22.2792 22.174 22.707C21.7793 23.2432 22.2393 24.3521 23.0414 24.7987C23.4696 25.0371 23.6714 25.074 24.3585 25.0399C24.8049 25.0175 25.2322 24.9345 25.3083 24.8549ZM27.5842 24.1082C27.5407 24.0349 27.4999 23.8678 27.4934 23.7367C27.4867 23.6057 27.4111 23.474 27.3252 23.4443C27.2303 23.4114 27.2 23.4421 27.2475 23.5225C27.2955 23.6037 27.2411 23.655 27.1066 23.655C26.986 23.655 26.8581 23.7341 26.8225 23.8309C26.7742 23.9623 26.8403 24.0068 27.0848 24.0068C27.2647 24.0068 27.4431 24.0596 27.4813 24.1241C27.5195 24.1885 27.5761 24.2414 27.6068 24.2414C27.6379 24.2414 27.6275 24.1814 27.5842 24.1082ZM27.1319 21.1246C27.216 20.8961 27.0907 20.02 26.9742 20.02C26.7954 20.02 26.6672 21.0664 26.8255 21.2317C26.9486 21.36 27.0596 21.3212 27.1319 21.1246ZM15.5135 20.4708C15.7594 20.0738 15.96 19.6912 15.9593 19.6205C15.9585 19.5499 15.8331 19.7201 15.6803 19.9989C15.5276 20.2774 15.2973 20.66 15.1682 20.849C15.0392 21.0381 14.9635 21.1926 15 21.1926C15.0365 21.1926 15.2675 20.8677 15.5135 20.4708ZM27.4771 17.8836C27.3974 17.3917 27.2263 17.2083 27.0769 17.4545C26.9111 17.7277 26.9648 18.3669 27.1721 18.5877C27.3609 18.7888 27.3725 18.7877 27.4589 18.5616C27.5082 18.432 27.5165 18.1269 27.4771 17.8836ZM16.1409 18.0581C16.1036 18.0192 16.0771 18.0884 16.082 18.2119C16.0874 18.3486 16.114 18.3763 16.1499 18.2828C16.1822 18.1982 16.1781 18.0971 16.1409 18.0581ZM17.0283 16.3848C17.1401 16.2557 17.2066 16.1502 17.1754 16.1502C17.1446 16.1502 17.0279 16.2557 16.9159 16.3848C16.804 16.5137 16.7378 16.6192 16.7687 16.6192C16.7996 16.6192 16.9165 16.5137 17.0283 16.3848ZM26.9233 13.6473C27.0719 12.8216 26.3518 11.9215 25.4 11.7432C25.0105 11.6702 25.0111 11.6711 25.5134 11.9458C26.3978 12.4293 26.7958 13.4679 26.3507 14.1308C26.2545 14.2742 26.2119 14.453 26.2563 14.528C26.3761 14.7299 26.8385 14.1194 26.9233 13.6473ZM20.1755 14.2739C20.2873 14.1449 20.3536 14.0394 20.3226 14.0394C20.2915 14.0394 20.1749 14.1449 20.0631 14.274C19.9512 14.4029 19.8849 14.5085 19.9159 14.5085C19.9468 14.5085 20.0636 14.4028 20.1755 14.2739ZM20.906 13.629C20.9829 13.5323 21.0207 13.4531 20.9898 13.4531C20.9588 13.4531 20.8706 13.5323 20.7936 13.629C20.7167 13.7258 20.6789 13.8049 20.71 13.8049C20.7408 13.8049 20.8291 13.7257 20.906 13.629ZM18.9392 11.3916C17.9686 11.0277 17.9201 10.3488 18.8386 9.98288C19.2833 9.80564 19.5659 9.81095 20.0526 10.0058C20.1714 10.0535 20.2314 10.013 20.2314 9.88625C20.2314 9.63323 20.6733 9.46889 21.3909 9.45443C21.8514 9.44527 21.9147 9.42298 21.6926 9.34888C20.5406 8.96393 18.4146 9.57528 17.9302 10.4307L17.7242 10.7946L18.1333 11.1858C18.4516 11.49 18.6362 11.575 18.9655 11.5686L19.3887 11.5604L18.9392 11.3916ZM3.70929 8.29921C3.70929 6.33999 3.73587 5.96275 3.87787 5.906C4.02376 5.84756 4.04646 6.11432 4.04646 7.88679C4.04646 10.1625 4.00517 10.0642 4.83329 9.75938C5.3827 9.55696 5.50764 9.54335 5.50764 9.68504C5.50764 9.74094 5.12587 9.93191 4.65929 10.1094C4.1927 10.287 3.8307 10.4528 3.85493 10.4781C3.87905 10.5033 4.28199 10.3801 4.75023 10.2045C5.50352 9.92167 5.60693 9.84709 5.64776 9.55684C5.69834 9.19659 5.65211 9.19538 4.84764 9.53901C4.12387 9.84806 4.14552 9.9095 4.18199 7.64859C4.20023 6.52 4.20999 5.59647 4.20376 5.59659C4.19752 5.59659 4.03317 5.65467 3.83846 5.72539L3.48458 5.85407V8.31198C3.48458 9.92095 3.5234 10.745 3.59693 10.6976C3.66564 10.653 3.70929 9.72335 3.70929 8.29921ZM22.3485 10.5362C22.4607 10.4619 22.4335 10.4192 22.2401 10.3665C22.098 10.3277 21.9541 10.3424 21.9206 10.3993C21.8868 10.4561 21.6828 10.5248 21.4671 10.5521C21.1515 10.5917 21.1849 10.6048 21.6365 10.6183C21.9456 10.6277 22.2659 10.5906 22.3485 10.5362ZM35.8782 8.10378L35.8453 5.80298L36.1593 5.88395C36.5299 5.9795 36.3863 5.78359 35.9953 5.66033L35.7423 5.58069V7.99257C35.7423 9.319 35.7803 10.4045 35.8268 10.4045C35.8731 10.4045 35.8962 9.36913 35.8782 8.10378ZM33.7061 8.07246C33.3249 7.09447 32.9927 6.31541 32.9679 6.34107C32.9432 6.3671 33.1834 7.06748 33.5016 7.89775C33.82 8.72826 34.1271 9.53347 34.184 9.68757C34.2409 9.84155 34.3128 9.94131 34.3435 9.90926C34.3742 9.87721 34.0875 9.05068 33.7061 8.07246ZM6.79893 9.02429C6.9054 8.28391 6.94705 8.20692 7.28599 8.1227C7.45164 8.08149 7.67152 8.02185 7.77482 7.98992C7.9247 7.94354 7.98823 8.06101 8.09011 8.57344L8.21787 9.2149L8.55987 9.09056C8.95717 8.94598 8.98387 9.21334 8.29164 6.40975L7.81199 4.4674L7.46611 4.5609C7.14176 4.64873 7.10846 4.71066 6.92846 5.56527C6.82282 6.06613 6.56952 7.22026 6.36552 8.13005L5.9947 9.78408L6.35905 9.66745C6.68023 9.56443 6.73223 9.48841 6.79893 9.02429ZM6.44564 9.05068C6.40905 8.95116 6.40423 8.84344 6.43493 8.81152C6.46552 8.77935 6.51776 8.86092 6.5507 8.99249C6.62082 9.27189 6.54293 9.31503 6.44564 9.05068ZM6.52823 8.4791C6.52329 8.3556 6.54999 8.2862 6.58729 8.32524C6.62458 8.36427 6.6287 8.46536 6.59611 8.54994C6.56023 8.64356 6.53352 8.61573 6.52823 8.4791ZM6.75293 7.42388C6.74799 7.30026 6.7747 7.23098 6.81199 7.27002C6.84929 7.30906 6.8534 7.41003 6.82093 7.49473C6.78505 7.58822 6.75835 7.56039 6.75293 7.42388ZM7.20446 7.15014C7.21035 6.97278 7.27646 6.56385 7.35129 6.24143L7.48729 5.65515L7.62787 6.46481C7.7427 7.12652 7.74152 7.29255 7.62164 7.37195C7.3434 7.55593 7.1934 7.47629 7.20446 7.15014ZM6.8654 6.95471C6.86046 6.83121 6.88705 6.76181 6.92446 6.80085C6.96176 6.83977 6.96564 6.94097 6.93329 7.02555C6.8974 7.11917 6.87082 7.09134 6.8654 6.95471ZM7.04034 6.24143C7.16764 5.45635 7.31211 5.11368 7.23823 5.77226C7.20199 6.0948 7.12564 6.4377 7.06846 6.53445C7.00058 6.64916 6.99093 6.54686 7.04034 6.24143ZM7.30776 4.98079C7.30658 4.84283 7.38893 4.77861 7.55893 4.78488C7.72799 4.7909 7.75587 4.81621 7.64329 4.86103C7.55034 4.89789 7.4374 4.98609 7.39211 5.05706C7.34117 5.13658 7.30882 5.10742 7.30776 4.98079ZM32.3705 6.96122V4.6909L32.6795 4.74247C32.9212 4.78271 32.9518 4.76681 32.82 4.66945C32.7273 4.60078 32.5376 4.54391 32.3986 4.54294L32.1456 4.54114V6.88639C32.1456 8.37174 32.1868 9.23165 32.258 9.23165C32.3292 9.23165 32.3705 8.39668 32.3705 6.96122ZM10.0691 8.76248C10.1979 8.76248 10.2314 8.4644 10.2438 7.20881C10.252 6.35421 10.2813 5.78696 10.3085 5.94817C10.3873 6.41541 11.0334 8.57693 11.1254 8.68175C11.1713 8.73429 11.2415 8.57573 11.2813 8.32994C11.3211 8.08414 11.528 7.3287 11.7413 6.65157L12.1289 5.4202L12.0629 6.95603L11.9969 8.49175L12.3447 8.43861L12.6925 8.38536L12.7249 5.99395L12.7574 3.60255H12.4031C12.0609 3.60279 12.0402 3.63207 11.8009 4.45294C11.6647 4.92043 11.4656 5.66214 11.3588 6.10095L11.1643 6.89856L10.7526 5.55852C10.5261 4.82151 10.3408 4.15907 10.3408 4.08654C10.3408 3.93955 10.1851 3.92268 9.80693 4.02859C9.55505 4.09895 9.55399 4.10931 9.55399 6.50204C9.55399 8.64489 9.5734 8.89706 9.73187 8.83369C9.82952 8.79465 9.98129 8.76248 10.0691 8.76248ZM30.7079 6.57927L30.6749 4.27872L30.9608 4.35342C31.118 4.39462 31.2466 4.38053 31.2466 4.32209C31.2466 4.26366 31.0948 4.19269 30.9094 4.16414L30.5721 4.11257V6.49614C30.5721 7.80703 30.61 8.87983 30.6565 8.87995C30.7028 8.87995 30.7259 7.84462 30.7079 6.57927ZM29.0814 6.85712C29.0588 6.51843 29.0401 6.79555 29.0401 7.47268C29.0401 8.14981 29.0587 8.42693 29.0813 8.08824C29.1042 7.74967 29.1043 7.19568 29.0814 6.85712ZM15.1811 8.04956C15.7939 7.88872 16.1014 7.47147 16.1611 6.71988C16.2055 6.16203 16.1775 6.04685 15.938 5.79672C15.6706 5.51779 15.6689 5.50478 15.8686 5.24754C16.1831 4.84247 16.1438 4.01787 15.7926 3.65147C15.5322 3.37989 15.4455 3.36146 14.5842 3.39291L13.6565 3.427L13.6261 5.84323L13.5958 8.25957L14.1881 8.20704C14.5138 8.17812 14.9606 8.1074 15.1811 8.04956ZM14.2746 6.71048V5.94829H14.7067C15.2252 5.94829 15.5108 6.22637 15.5108 6.73085C15.5108 7.19303 15.2002 7.47268 14.6872 7.47268H14.2746V6.71048ZM14.3193 5.19742C14.2869 5.10923 14.2762 4.80669 14.2956 4.52511C14.3272 4.06726 14.3627 4.00943 14.6343 3.97678C15.1218 3.91822 15.3986 4.14004 15.3986 4.58945C15.3986 5.04007 15.2655 5.18224 14.748 5.28465C14.4879 5.33622 14.3608 5.31032 14.3193 5.19742ZM27.2001 5.99323C27.2001 3.75075 27.2058 3.69436 27.4248 3.75424C27.5486 3.78798 27.6495 3.77388 27.6495 3.72292C27.6495 3.64002 27.2776 3.49146 27.0595 3.48737C27.0131 3.4864 26.9752 4.56752 26.9752 5.88961C26.9752 7.414 27.0163 8.29331 27.0876 8.29331C27.1588 8.29331 27.2001 7.44858 27.2001 5.99323ZM34.5934 5.30261C34.8967 5.36273 34.8963 5.36164 34.5621 5.19778L34.2249 5.0326L34.1931 6.38686C34.1645 7.60581 34.1447 7.71919 33.9956 7.51906C33.8442 7.31568 33.8401 7.32665 33.9465 7.64847C34.1933 8.39415 34.2258 8.30463 34.2562 6.79699L34.2876 5.24188L34.5934 5.30261ZM25.6267 7.98812C25.8108 7.87004 25.8301 7.83667 25.6829 7.89076C25.5593 7.93619 25.2811 8.01294 25.0648 8.06125C24.6781 8.14776 24.6772 8.14921 25.0083 8.1586C25.1939 8.16366 25.4721 8.08703 25.6267 7.98812ZM18.7491 7.82136C19.2001 7.53449 19.4334 6.99122 19.5196 6.02673C19.6987 4.02847 18.8223 2.64589 17.722 3.19073C17.1572 3.47026 16.8346 4.20679 16.7705 5.36345C16.6532 7.47714 17.5463 8.58645 18.7492 7.82136H18.7491ZM17.7671 7.12929C17.3047 6.64687 17.2983 4.6421 17.7575 4.13221C18.1003 3.75147 18.3787 3.7587 18.6275 4.15486C18.7833 4.40294 18.8268 4.71753 18.8268 5.59647C18.8268 6.47542 18.7833 6.79 18.6275 7.03821C18.3933 7.41099 18.0699 7.44521 17.7671 7.12929ZM22.8168 7.81968C22.8168 7.76715 22.6713 7.2952 22.4933 6.77085L22.17 5.81756L22.4365 5.63539C23.04 5.22272 23.0218 3.88051 22.4055 3.37471C22.1661 3.1782 21.9496 3.13374 21.2281 3.13374H20.344V7.94173H20.6249C20.9038 7.94173 20.906 7.9339 20.906 6.88627V5.83082L21.2152 5.83202C21.5069 5.83347 21.5421 5.89443 21.8449 6.92411C22.1613 8.00065 22.1696 8.01402 22.4912 7.96486C22.6702 7.93751 22.8168 7.87209 22.8168 7.81968ZM22.3327 7.73642C22.3065 7.68811 22.1476 7.21315 21.9798 6.68096L21.6743 5.7137H21.234C20.9561 5.7137 20.794 5.65949 20.7946 5.56707C20.7953 5.46984 21.0051 5.41406 21.4173 5.40165C21.7593 5.39116 22.1079 5.32309 22.1921 5.2502C22.6086 4.8897 22.4693 3.97702 21.9609 3.73545C21.6273 3.57689 20.9445 3.56038 20.8566 3.7087C20.8221 3.76689 20.7841 4.39872 20.7719 5.11272C20.76 5.82672 20.7219 6.38144 20.6875 6.34577C20.6532 6.30987 20.5996 5.62527 20.5687 4.82428L20.5125 3.36784L21.3025 3.36809C22.2213 3.36833 22.5134 3.52713 22.7046 4.13124C22.8801 4.68656 22.7543 5.18658 22.3574 5.51069L22.0276 5.77985L22.3587 6.80205C22.6112 7.58124 22.6532 7.82413 22.5352 7.82413C22.4501 7.8245 22.3591 7.78498 22.3327 7.73642ZM20.952 5.0832C20.9194 4.9944 20.9083 4.66451 20.9273 4.35029C20.9609 3.80075 20.9761 3.7775 21.3258 3.74231C22.0516 3.66918 22.5599 4.65656 22.0051 5.06212C21.6943 5.28911 21.0326 5.30225 20.952 5.0832ZM24.294 7.76196C23.8549 7.37641 23.6793 6.80049 23.6701 5.7137C23.66 4.54005 23.938 3.75822 24.4436 3.53773C24.9558 3.31459 25.5642 3.52327 25.8298 4.01329C25.8996 4.14221 25.9585 4.17775 25.9602 4.09221C25.9621 4.00654 25.8158 3.78232 25.6351 3.59376C25.3831 3.33086 25.2033 3.25097 24.8633 3.25097C23.8896 3.25097 23.4439 4.1069 23.51 5.84889C23.5558 7.04941 23.7967 7.7698 24.2109 7.94462C24.62 8.1174 24.6425 8.06788 24.294 7.76196ZM25.4363 7.53702C25.8298 7.12676 25.7568 6.18276 25.3319 6.18276C25.2466 6.18276 25.1771 6.09805 25.1771 5.99444C25.1771 5.87082 25.2382 5.83046 25.3547 5.87708C25.4526 5.91624 25.6522 5.94817 25.7986 5.94817C26.0392 5.94817 26.0683 6.00685 26.1056 6.56385L26.1468 7.17954L26.1679 6.44662L26.1886 5.7137H25.5705C24.9905 5.7137 24.9522 5.7313 24.9522 5.99901C24.9522 6.22312 25.0185 6.2924 25.2614 6.32156C25.5327 6.35409 25.5656 6.40168 25.5308 6.71048C25.4726 7.22942 25.3128 7.47304 25.0326 7.47015C24.6156 7.46581 24.2832 7.10194 24.1766 6.53313C24.1094 6.17492 24.0739 6.10745 24.0655 6.3218C24.0276 7.28677 24.9189 8.07703 25.4365 7.53702H25.4363ZM26.0545 7.41087C26.0199 7.37472 25.9571 7.43979 25.9148 7.55545C25.8536 7.72269 25.8666 7.73606 25.9778 7.62112C26.0546 7.5416 26.0891 7.44701 26.0545 7.41087ZM29.1108 4.94452C29.1108 4.08666 29.1155 4.07208 29.3985 4.07208C29.5616 4.07208 29.656 4.02136 29.6166 3.95485C29.5785 3.89039 29.4236 3.8375 29.2728 3.8375C29.0048 3.8375 28.9985 3.85919 28.9985 4.7756C28.9985 5.45153 28.9592 5.71178 28.858 5.70672C28.7807 5.70298 28.4773 5.65852 28.1838 5.60816C27.8901 5.55755 27.6496 5.55755 27.6496 5.60792C27.6496 5.65828 27.8901 5.73322 28.1838 5.77443C28.4773 5.81576 28.7681 5.86467 28.8299 5.88311C29.0631 5.95275 29.1108 5.79298 29.1108 4.94452ZM24.2186 4.7397C24.2581 4.49427 24.3886 4.19076 24.5088 4.06546C24.6288 3.94003 24.678 3.83738 24.6176 3.83738C24.4191 3.83738 24.1459 4.40547 24.0985 4.91765C24.0443 5.49695 24.1136 5.39478 24.2186 4.7397ZM25.6266 4.60523C25.6266 4.44716 25.3525 3.96015 25.2376 3.91413C25.1487 3.87858 25.1632 3.99305 25.2808 4.2557C25.4309 4.59017 25.6266 4.78825 25.6266 4.60523ZM26.076 4.42752C26.076 4.36486 26.0002 4.34438 25.9075 4.38149C25.8148 4.4186 25.7389 4.46969 25.7389 4.49499C25.7389 4.52029 25.8148 4.54114 25.9075 4.54114C26.0002 4.54114 26.076 4.48993 26.076 4.42752ZM2.98187 4.09474C2.94729 4.05859 2.85658 4.09461 2.78034 4.17474C2.67011 4.2904 2.68305 4.30402 2.84329 4.2404C2.95411 4.19643 3.01646 4.13088 2.98187 4.09474Z" fill="#E2E2E2"/>
<path d="M19.7343 46.8834C19.3107 46.8227 19.0244 46.6796 18.4192 46.2272C16.3453 44.6768 14.6312 43.2392 13.0959 41.7625C12.507 41.196 11.2133 39.8346 10.7588 39.3031C8.90119 37.1304 7.36025 34.9036 5.47331 31.6658C5.05731 30.9521 4.54978 29.8861 3.85707 28.2697C1.60684 23.0214 0.431661 17.7229 0.0849551 11.2626C0.0175433 10.0049 -0.00480961 9.03526 0.000837445 7.61064C0.00554333 6.43265 0.0111904 6.2912 0.0661316 5.98034C0.170132 5.39189 0.371543 4.83428 0.615543 4.45909C0.917543 3.99474 1.73672 3.32496 2.39284 3.00591C3.31954 2.55517 5.57672 1.85708 7.61072 1.392C8.16296 1.26573 9.25237 1.03741 9.6219 0.9703C9.73013 0.950782 9.95802 0.908852 10.1283 0.877526C10.2965 0.846294 10.4653 0.818096 10.6346 0.792945C10.7428 0.777884 10.9201 0.746437 11.0284 0.723063C11.1366 0.699689 11.3392 0.66523 11.4784 0.646916C11.6177 0.628482 11.9087 0.588239 12.1254 0.557516C12.2987 0.53259 12.4722 0.508733 12.6458 0.485947C13.3248 0.402571 13.5448 0.376546 13.996 0.326303C16.285 0.0717165 19.3261 -0.0485284 21.5204 0.0290645C22.4838 0.0630415 24.6695 0.192323 24.8425 0.225457C24.8905 0.234734 25.1057 0.252445 25.3206 0.264855C25.5355 0.277265 25.8887 0.309797 26.1052 0.336906C26.3219 0.364015 26.6699 0.406065 26.8788 0.430282C27.8585 0.544262 28.7091 0.657639 29.0727 0.722702C29.2043 0.746196 29.5523 0.805114 29.8463 0.853429C32.9419 1.3626 35.5055 2.10455 37.4127 3.04338C38.2378 3.44942 38.5673 3.67786 38.9684 4.12028C39.4359 4.63644 39.7143 5.18116 39.8604 5.86612C39.9845 6.44662 39.9286 10.0631 39.7604 12.3601C39.5308 15.4948 39.1354 18.133 38.4816 20.8916C37.7752 23.8721 36.8277 26.6026 35.4498 29.6282C34.9839 30.6512 34.8578 30.9027 34.4713 31.5779C34.2635 31.9406 34.0873 32.251 34.0795 32.2675C34.0718 32.284 34.0275 32.3566 33.9811 32.4293C33.9346 32.5019 33.8814 32.5871 33.8631 32.6192C33.8445 32.6512 33.7748 32.7697 33.7083 32.8827C33.6419 32.9956 33.5824 33.101 33.5761 33.1171C33.5699 33.1333 33.557 33.153 33.5474 33.1611C33.5378 33.1691 33.4744 33.2681 33.4065 33.381C33.3311 33.5059 33.2539 33.6296 33.175 33.7521C33.1157 33.8433 33.067 33.9313 33.067 33.9475C33.067 33.9638 33.0575 33.9813 33.0458 33.9868C33.0171 34.0001 32.87 34.238 32.87 34.2712C32.87 34.286 32.8511 34.3057 32.8279 34.3149C32.8047 34.3242 32.7858 34.3453 32.7858 34.3616C32.7858 34.3781 32.7161 34.4962 32.6312 34.6243C32.5459 34.7523 32.4764 34.8698 32.4764 34.8855C32.4764 34.9011 32.4576 34.9214 32.4344 34.9307C32.4112 34.94 32.392 34.9678 32.392 34.9925C32.392 35.0172 32.3814 35.0373 32.3688 35.0373C32.3559 35.0373 32.3274 35.0737 32.3055 35.118C32.2836 35.1623 32.2559 35.2118 32.2443 35.2279C32.1496 35.3575 32.0348 35.5231 31.8298 35.8277C31.6286 36.1259 31.4152 36.4301 31.1292 36.8257C28.5973 40.3287 25.9492 42.9594 21.79 46.1041C21.183 46.5631 20.8983 46.7267 20.5441 46.8206C20.2958 46.8863 19.9441 46.9136 19.7343 46.8833V46.8834ZM20.454 46.6175C20.8045 46.5247 21.0955 46.36 21.6512 45.94C26.9639 41.9248 29.9324 38.6595 33.3159 33.1091C34.2253 31.6171 34.6663 30.8271 35.028 30.0413C36.0126 27.902 36.7217 26.1209 37.3044 24.3217C38.7206 19.9492 39.4851 15.3258 39.6773 9.9706C39.7227 8.71345 39.7141 6.2777 39.6637 5.97528C39.5255 5.1508 39.04 4.36668 38.3248 3.81413C38.0651 3.61328 37.1432 3.12736 36.554 2.88072C34.8081 2.14974 32.8117 1.60092 30.1981 1.13332C28.6634 0.858971 26.6593 0.606192 24.7271 0.443415C24.5259 0.426547 24.2918 0.406065 24.2066 0.398233C23.9438 0.373654 22.7081 0.298832 21.9986 0.264494C20.6445 0.19895 18.1897 0.232806 16.4713 0.340882C11.9748 0.623421 7.04131 1.5461 3.65872 2.73711C2.72754 3.06483 2.39637 3.21784 1.91566 3.54267C1.13484 4.07004 0.778602 4.4715 0.521779 5.11357C0.221073 5.86504 0.167426 6.49988 0.212837 8.76875C0.270367 11.6468 0.435073 13.8906 0.761661 16.2448C1.41025 20.9207 2.54672 24.8667 4.48943 29.1883C5.24507 30.8694 5.46237 31.2752 6.66437 33.2487C6.96154 33.7367 7.7699 34.988 8.10425 35.4773C10.369 38.7921 12.5612 41.1868 15.8272 43.9129C16.6753 44.6209 18.6928 46.1896 19.0337 46.406C19.1572 46.4846 19.4828 46.6144 19.6357 46.6464C19.8533 46.6919 20.2225 46.6788 20.454 46.6175ZM19.6975 45.4343C19.5258 45.3839 19.1348 45.1045 18.3355 44.4606C13.4259 40.5067 10.6534 37.4113 7.88649 32.7945C7.51613 32.1764 7.02213 31.3115 6.68931 30.6984C6.35719 30.0863 5.29896 27.7908 4.77025 26.5352C2.8959 22.0845 1.86601 17.4661 1.55025 12.0962C1.43931 10.2082 1.4226 7.62245 1.5179 7.08279C1.6226 6.48988 1.8119 5.97131 2.07001 5.56949C2.35154 5.13128 2.87154 4.69596 3.36637 4.48427C4.38272 4.04932 6.6826 3.37038 8.65154 2.92398C12.0765 2.14769 15.2732 1.74635 18.8621 1.64201C19.8495 1.61345 21.5651 1.62309 21.9141 1.65924C21.976 1.66562 22.2165 1.67852 22.4485 1.68816C24.6697 1.77972 27.6512 2.10829 29.7901 2.49722C32.4301 2.97723 34.4406 3.58677 36.1612 4.42861C36.4318 4.56114 36.748 4.71524 36.8635 4.77115C37.8153 5.23104 38.2504 5.94107 38.394 7.26846C38.4646 7.92173 38.2959 11.1541 38.0723 13.4301C37.4384 19.8815 36.1652 24.5936 33.7684 29.3603C32.8007 31.2847 31.2541 33.9145 30.0847 35.6237C28.0792 38.555 26.1368 40.6033 22.2266 43.9103C22.1475 43.9771 21.8171 44.2579 21.4921 44.5343C21.1672 44.8107 20.8164 45.0964 20.7121 45.1692C20.3455 45.4265 19.9884 45.5197 19.6975 45.4343ZM12.4067 34.9542C12.7519 34.7907 12.8663 34.5409 12.9126 33.8499C12.9437 33.3903 13.0303 33.2159 13.2514 33.1677L13.3632 33.1435L13.3491 32.8664C13.3279 32.4525 13.332 31.8379 13.3564 31.7475C13.3681 31.7036 13.5081 31.499 13.6677 31.293C14.0458 30.8043 14.2712 30.466 14.3347 30.2917C14.3628 30.2144 14.4131 29.961 14.4461 29.7285C14.5138 29.2535 14.4845 29.3216 14.9924 28.4586C15.1432 28.2024 15.3693 27.7753 15.4947 27.5095C15.6314 27.22 15.7655 26.9785 15.8293 26.9073C15.8845 26.8458 15.9388 26.7835 15.9924 26.7204C16.0235 26.683 16.0613 26.6525 16.0764 26.6525C16.1339 26.6525 16.3015 26.8368 16.3639 26.969C16.4265 27.1014 16.4291 27.1349 16.4291 27.7911C16.4291 28.4747 16.4291 28.4753 16.4954 28.5314C16.5319 28.5623 16.5907 28.5876 16.6262 28.5876C16.6901 28.5876 16.69 28.5863 16.6113 28.4989C16.4963 28.3707 16.4697 28.1944 16.4904 27.6972C16.5066 27.3068 16.5028 27.2555 16.4457 27.0791C16.4113 26.9733 16.3873 26.844 16.3921 26.7916C16.4004 26.7015 16.4074 26.6961 16.5274 26.6873C16.6702 26.6767 16.735 26.6275 16.8114 26.4713C16.8652 26.3615 16.8794 26.2727 16.8703 26.1047C16.8658 26.0245 16.8446 25.9998 16.7197 25.9288C16.5275 25.8199 16.4745 25.7373 16.4397 25.493C16.3994 25.2109 16.4323 24.3382 16.4907 24.138C16.5421 23.9618 16.5655 23.9588 16.7668 24.1023C16.9632 24.2424 17.5602 24.5067 17.855 24.5842C18.2161 24.6791 18.7073 24.6902 18.8634 24.6071C18.9987 24.5348 19.5025 24.1336 19.7137 23.9297C19.8101 23.8366 19.9651 23.7029 20.0579 23.6327C20.1507 23.5625 20.2764 23.4613 20.3372 23.4078C20.398 23.3543 20.4767 23.3102 20.5119 23.3102C20.6114 23.3102 20.8793 23.4239 20.9725 23.5057C21.1419 23.6544 21.057 23.8045 20.6452 24.0838C20.3203 24.304 19.9727 24.6963 19.8123 25.0239C19.7386 25.1747 19.3968 26.2294 19.3968 26.3066C19.3968 26.4302 19.4891 26.6872 19.5815 26.8209C19.92 27.3106 20.0833 27.5854 20.118 27.7243C20.1391 27.808 20.1755 27.9246 20.1991 27.9831C20.2903 28.2107 20.181 28.337 19.8111 28.4308C19.6685 28.467 19.4797 28.5055 19.3917 28.5164L19.2315 28.5361L19.2768 28.6082C19.3157 28.6699 19.3257 28.6736 19.347 28.634C19.3673 28.596 19.4297 28.5877 19.6928 28.5877C19.9515 28.5877 20.0426 28.5757 20.1623 28.5267L20.3105 28.4658L20.3813 28.5573C20.4604 28.66 20.9163 29.1486 20.9163 29.1307C20.9163 29.0569 20.6985 28.5416 20.5259 28.2065C20.4053 27.9728 20.2497 27.6561 20.18 27.5029C20.1088 27.3461 19.9528 27.0847 19.8233 26.9046C19.6967 26.7287 19.584 26.5508 19.5727 26.509C19.5333 26.3611 19.5541 26.111 19.623 25.9089C19.7315 25.5899 19.8181 25.6112 19.819 25.9574C19.8195 26.2087 19.851 26.2849 20.1212 26.6895C20.4313 27.1538 20.4532 27.1947 20.6079 27.5931C20.7388 27.9309 20.8999 28.2412 21.0905 28.5236C21.1845 28.6629 21.3665 29.1688 21.3665 29.2906C21.3665 29.3397 21.332 29.4027 21.2718 29.4635L21.1768 29.5594L21.1166 29.4795C21.0833 29.4357 21.0474 29.4088 21.0368 29.4199C21.026 29.4311 21.0121 29.5252 21.0058 29.6291C20.9944 29.8153 20.9957 29.8194 21.0959 29.912C21.1917 30.0003 21.1977 30.0162 21.1977 30.1837C21.1977 30.3954 21.2586 30.5393 21.3852 30.6275C21.4367 30.6634 21.6052 30.7167 21.7868 30.7544L22.0995 30.8194L22.2104 30.7278C22.4041 30.5679 22.631 30.2844 22.6621 30.1631C22.6986 30.0227 22.6758 29.9014 22.5995 29.8293C22.5616 29.7909 22.5294 29.7469 22.5041 29.6988C22.4472 29.5843 22.4964 29.5552 22.7477 29.5552C22.9524 29.5552 22.9685 29.5504 23.0331 29.4705C23.1078 29.3777 23.2985 28.9424 23.4104 28.6087C23.4675 28.4381 23.481 28.3436 23.4798 28.1206C23.4784 27.8947 23.4918 27.8032 23.5521 27.6221C23.6521 27.3221 23.653 27.0985 23.5547 26.9019C23.4719 26.7363 23.4124 26.6749 23.2017 26.5376C22.9714 26.3876 23.0005 26.2935 23.3163 26.169C23.4968 26.0976 23.5884 26.0187 23.5884 25.9342C23.5884 25.8655 23.587 25.8651 23.3395 25.8817C23.0919 25.8985 23.0904 25.8982 23.0372 25.8176C22.8818 25.5824 22.7928 25.5486 22.6327 25.6633C22.459 25.7877 22.0695 26.5232 22.0695 26.7263C22.0695 26.8444 22.1968 26.9642 22.4286 27.0634C22.5483 27.1148 22.6753 27.176 22.7107 27.1995C22.8268 27.2765 22.8848 27.4135 22.8848 27.6109C22.8851 27.7107 22.8983 27.8284 22.9143 27.8724C22.9303 27.9164 22.9443 28.0373 22.9448 28.1411C22.946 28.2944 22.9301 28.364 22.8594 28.5136C22.746 28.7537 22.3924 29.2288 22.2997 29.2654C22.1992 29.3052 22.0948 29.2203 22.0444 29.0572C22.0081 28.9404 22.0099 28.9199 22.069 28.7813C22.2019 28.4683 22.2174 28.3518 22.1857 27.8996C22.1695 27.6703 22.1408 27.447 22.1218 27.4035C22.0637 27.2703 21.9714 27.3109 21.7761 27.5561C21.5926 27.7862 21.4734 27.8836 21.3741 27.8838C21.2779 27.8838 21.2443 27.7846 21.2612 27.5491C21.2785 27.3125 21.3286 27.1531 21.5297 26.6949C21.6813 26.3494 21.921 25.6971 22.0026 25.4069C22.0654 25.1846 22.0726 24.6271 22.0155 24.3956C21.9852 24.2719 21.9423 24.1974 21.8297 24.0731C21.576 23.7933 21.2435 23.3084 21.0654 22.9586C20.8617 22.5585 20.7243 22.138 20.7975 22.138C20.8358 22.138 21.148 22.5539 21.2759 22.7752C21.4326 23.0463 21.5141 23.1157 21.6535 23.0964C21.7557 23.0822 21.7588 23.0846 21.7752 23.189C21.8297 23.5357 21.989 23.8768 22.238 24.1794C22.353 24.3189 22.8297 24.7176 22.9678 24.7895C23.1285 24.8733 23.3918 24.963 23.7007 25.0394C23.8892 25.086 24.0368 25.0984 24.3978 25.0988C24.8781 25.0988 24.9874 25.0771 25.1013 24.9583C25.1319 24.9265 25.2311 24.8728 25.3218 24.8388C25.4124 24.8049 25.5171 24.7605 25.5544 24.7402C25.6527 24.6865 25.728 24.5673 25.7093 24.4952C25.6945 24.4379 25.6678 24.4324 25.337 24.4156C24.9107 24.394 24.5323 24.3023 24.2411 24.1494C24.1133 24.0835 23.9829 24.0234 23.85 23.9692C23.5197 23.8397 23.2687 23.6304 23.2106 23.4365C23.1817 23.3392 23.2384 23.2572 23.3498 23.2352C23.4039 23.2248 23.4552 23.2044 23.4637 23.1901C23.4721 23.1758 23.5004 23.1639 23.5266 23.1636C23.6466 23.1624 23.6539 23.1266 23.5913 22.8488C23.5165 22.5163 23.5158 22.4604 23.587 22.4604C23.7021 22.4604 23.7846 22.5339 23.9439 22.7784C24.0345 22.9173 24.1801 23.1072 24.2674 23.2001C24.409 23.351 24.4386 23.3693 24.5399 23.3693C24.6026 23.3693 24.6611 23.3566 24.6705 23.341C24.6799 23.3255 24.6614 23.2599 24.6299 23.1956C24.5948 23.1239 24.5727 23.0216 24.5727 22.9317C24.5727 22.8095 24.5872 22.7679 24.6598 22.6815C24.7408 22.5853 24.7591 22.5779 24.9088 22.5779C25.0988 22.5779 25.223 22.6496 25.3298 22.8208C25.3917 22.9201 25.4091 22.9297 25.5251 22.9297C25.6171 22.9297 25.6824 22.908 25.7601 22.852C25.8513 22.786 25.878 22.7792 25.9364 22.8068C25.974 22.8248 26.0358 22.8895 26.0732 22.9504C26.1179 23.0207 26.1694 23.0861 26.2271 23.1456C26.3067 23.2239 26.3235 23.2286 26.464 23.2103C26.548 23.1993 26.648 23.2037 26.6892 23.2199C26.8167 23.2704 26.8315 23.3404 26.7778 23.6325C26.7326 23.8776 26.7325 23.9014 26.777 24.0227C26.8028 24.0938 26.8625 24.1962 26.9091 24.2508C27.0044 24.3623 27.0059 24.3676 27.0488 24.7364C27.0898 25.0877 27.0555 25.3363 26.9135 25.7214C26.8524 25.887 26.7566 26.1484 26.7005 26.3019C26.6443 26.4555 26.5624 26.626 26.5184 26.681L26.4384 26.7809L26.5533 26.872C26.7019 26.9897 26.8145 27.1883 26.9739 27.6138C27.2017 28.2213 27.2221 28.2967 27.226 28.5292C27.2287 28.7151 27.2111 28.8068 27.1106 29.1216C26.9515 29.6203 26.9471 29.8123 27.0903 30.0076C27.1444 30.0816 27.1887 30.1641 27.1887 30.1911C27.1887 30.2181 27.1192 30.3598 27.0343 30.5063C26.6831 31.1112 26.6843 31.3864 27.0398 31.725C27.2257 31.902 27.3898 31.9953 27.4933 31.9829C27.5634 31.9744 27.5692 31.9629 27.5772 31.8126C27.5871 31.6318 27.6659 31.5108 27.7643 31.5255C27.8134 31.533 27.8245 31.5631 27.8406 31.7344C27.8641 31.9824 27.8768 32.0178 27.9418 32.0178C28.0583 32.0178 28.4499 31.6995 28.5288 31.5407L28.5712 31.4548L28.4495 31.5426C28.3827 31.5908 28.2972 31.6648 28.2597 31.7067C28.178 31.7983 28.0935 31.804 27.9961 31.7242C27.8972 31.643 27.8805 31.5295 27.9352 31.31C27.9992 31.0537 27.979 30.855 27.8798 30.7661C27.8151 30.7083 27.7731 30.6984 27.5879 30.698C27.4688 30.698 27.3533 30.6855 27.3308 30.6707C27.2552 30.6209 27.3418 30.5022 27.5235 30.4067C27.7871 30.268 27.8012 30.1698 27.5746 30.0492C27.4244 29.9693 27.3875 29.9181 27.3864 29.7865C27.3852 29.6352 27.4866 29.4932 27.6375 29.4351C27.8179 29.3656 27.8919 29.2628 27.8919 29.0813C27.8919 28.8801 27.8251 28.7488 27.6552 28.6157C27.3783 28.3988 27.3854 28.4113 27.3854 28.1488C27.3854 27.9588 27.3955 27.9027 27.4374 27.8591C27.476 27.8188 27.4934 27.7437 27.5051 27.5662C27.5152 27.4124 27.5415 27.2826 27.5797 27.2007C27.6728 27.0003 27.6632 26.9487 27.4812 26.6672C27.3647 26.4874 27.3292 26.3047 27.3292 25.8881C27.3292 25.714 27.3174 25.5397 27.3033 25.5007C27.2668 25.4007 27.2997 25.068 27.3479 25.0487C27.4297 25.016 27.5559 25.107 27.6458 25.2636C27.7446 25.4359 27.7653 25.4504 27.7874 25.3624C27.8108 25.2684 27.9478 25.2897 28.272 25.4366C29.0064 25.7699 29.8294 25.8379 30.2734 25.6017C30.5264 25.4672 30.9825 25.0553 31.0993 24.8557C31.2085 24.6691 31.2014 24.6657 30.747 24.6818C30.2867 24.6982 30.0104 24.663 29.706 24.5495C29.4479 24.4531 29.1625 24.2541 29.0017 24.0579C28.9306 23.9711 28.7417 23.7871 28.5819 23.6489C28.4223 23.5107 28.2843 23.3778 28.2754 23.3539C28.2702 23.3415 28.2618 23.3308 28.2509 23.3231C28.2401 23.3154 28.2274 23.3109 28.2143 23.3102C28.1281 23.3102 27.7475 23.1269 27.5392 22.9851C27.4239 22.9067 27.2772 22.8148 27.2135 22.7809C27.011 22.6731 26.2406 22.5102 25.7618 22.4737L25.5024 22.4539L25.4834 22.347C25.4488 22.1517 25.392 22.0215 25.2207 21.7457C25.0792 21.5178 25.0508 21.4511 25.0501 21.3433C25.0495 21.1886 24.9885 21.0408 24.7854 20.7041C24.6845 20.536 24.613 20.3738 24.572 20.2185C24.5381 20.0903 24.4617 19.87 24.4021 19.7291C24.2665 19.4077 24.2192 19.2313 24.1793 18.898C24.1352 18.5286 24.0858 18.3214 23.9581 17.9707C23.8972 17.8035 23.8193 17.5216 23.7851 17.3442C23.6964 16.8838 23.6631 16.7989 23.4338 16.4484C23.3208 16.276 23.2194 16.0903 23.2079 16.036C23.1966 15.9815 23.153 15.8961 23.1112 15.8462C23.0694 15.7963 22.986 15.671 22.926 15.5676C22.866 15.4643 22.7879 15.3351 22.7525 15.2805C22.7171 15.2258 22.6881 15.145 22.6881 15.1009C22.6881 14.9761 22.7554 14.9391 22.9668 14.9477C23.4123 14.9657 23.7567 15.3138 24.2071 16.2008C24.565 16.9056 24.8588 17.2693 25.2247 17.4601C25.3685 17.5351 25.4611 17.564 25.5565 17.564C25.7246 17.564 25.7855 17.4995 25.8035 17.3029C25.8193 17.1334 25.7873 16.9773 25.6345 16.4792C25.5465 16.1925 25.5183 16.0475 25.5046 15.813C25.4832 15.4505 25.4674 15.4282 25.1485 15.3134C24.8741 15.2146 24.8578 15.1628 25.0826 15.1037C25.3052 15.045 25.5425 15.1075 25.8028 15.2935C25.9733 15.4155 26.006 15.4281 26.114 15.4156C26.2119 15.4041 26.2654 15.3717 26.3967 15.2441C26.5448 15.1002 26.5577 15.0779 26.5471 14.9818C26.5341 14.8638 26.6098 14.6827 26.7113 14.5883C26.7947 14.5109 26.8419 14.3898 26.9393 14.0052C27.0687 13.493 27.0348 13.0658 26.8368 12.712C26.6785 12.4294 25.927 11.8068 25.4904 11.5969C25.0915 11.4051 25.0723 11.4035 22.9132 11.3773C20.505 11.3479 19.4334 11.2932 19.1221 11.1833C18.6727 11.0251 18.3491 10.738 18.3967 10.5399C18.4238 10.4266 18.5748 10.2714 18.7097 10.2177C18.9603 10.1181 19.3141 10.1892 20.0019 10.4768C20.6325 10.7406 21.0146 10.8077 21.7443 10.7823C22.3923 10.7597 22.9039 10.6789 23.0355 10.5787C23.0837 10.5419 23.0837 10.5384 23.0347 10.4928C23.0065 10.4665 22.8001 10.3962 22.5758 10.3364C22.0843 10.2051 21.8163 10.0994 21.8163 10.0366C21.8163 9.99722 21.865 9.99361 22.189 10.0081C22.5658 10.0248 22.9858 10.0984 23.3119 10.2051C23.5137 10.2711 23.9693 10.2861 24.1186 10.2319C24.217 10.1961 24.2348 10.1211 24.163 10.0464C23.9828 9.85842 22.9938 9.4901 22.2338 9.32768C21.7547 9.22527 21.3834 9.20033 20.5846 9.21671C19.6015 9.23684 19.1952 9.31154 18.7251 9.5589C18.3413 9.76083 17.8924 10.1861 17.751 10.4816C17.5855 10.8279 17.6972 11.0586 18.1737 11.3559C18.5033 11.5617 18.7615 11.6461 19.3128 11.7285C20.3112 11.8776 21.0161 11.9128 22.9554 11.9109C23.9027 11.9097 24.6577 11.9213 24.7558 11.9381C25.0473 11.988 25.3899 12.1157 25.5685 12.2408C25.7779 12.3878 26.0355 12.7025 26.1701 12.9761C26.2584 13.1559 26.2712 13.2087 26.2728 13.4012C26.2744 13.5906 26.2634 13.6422 26.1937 13.7735C26.085 13.9777 25.8619 14.2342 25.7513 14.2819C25.6195 14.3389 25.3019 14.2807 24.9259 14.1329C24.6646 14.0298 24.5706 14.0076 24.3071 13.9876C23.9645 13.9616 23.9259 13.9498 23.4165 13.7148C22.8963 13.4748 22.1045 13.2071 21.7077 13.1368C21.5183 13.1033 21.3342 13.1412 21.0707 13.2682C20.8046 13.3965 20.6517 13.5226 20.1225 14.0505C19.624 14.548 19.3977 14.7333 19.119 14.8722C18.613 15.1246 17.167 15.971 17.0326 16.0937C16.8352 16.2736 16.5027 16.6936 16.3627 16.9397C16.1063 17.3904 16.027 17.7448 15.9965 18.5757C15.9757 19.1415 15.9718 19.1707 15.8841 19.4031C15.7863 19.6626 15.5259 20.1301 15.1743 20.6773C14.8437 21.1918 14.6058 21.6013 14.447 21.9289C14.134 22.574 14.0804 22.821 14.0533 23.7356L14.0333 24.41L13.9314 24.7193C13.8753 24.8892 13.7583 25.2059 13.6712 25.4229C13.3485 26.2269 13.3547 26.1858 13.3248 27.6643L13.3028 28.749L13.185 28.9917C13.1201 29.1251 13.0117 29.3186 12.9438 29.4216C12.788 29.659 12.744 29.8496 12.6865 30.5373C12.6688 30.754 12.6496 30.9706 12.6288 31.1871C12.6171 31.2947 12.5735 31.357 12.261 31.7148C11.6651 32.3968 11.437 32.7519 11.437 32.9977C11.437 33.1194 11.428 33.1357 11.317 33.2153C11.099 33.3716 10.7919 33.7375 10.689 33.9636C10.5674 34.2305 10.5387 34.479 10.6125 34.6273C10.6952 34.7936 10.7501 34.7659 10.9826 34.4416L11.1892 34.1533L11.2568 34.2195C11.294 34.256 11.3245 34.3022 11.3245 34.3224C11.3245 34.3425 11.2734 34.4689 11.211 34.6031C11.1481 34.738 11.1011 34.8798 11.1055 34.9205C11.1161 35.0188 11.214 35.0336 11.8027 35.0267C12.2183 35.0214 12.2807 35.0141 12.4067 34.9542ZM12.1453 33.3641C12.048 33.3244 11.903 32.985 11.9268 32.8524C11.9473 32.7389 11.9746 32.7307 12.121 32.7946C12.2727 32.8607 12.3473 32.8488 12.4892 32.736C12.6275 32.6259 12.6715 32.6131 12.7245 32.6686C12.7743 32.7204 12.7657 32.8116 12.6988 32.9423C12.665 33.0084 12.6313 33.0745 12.5977 33.1406C12.5188 33.2952 12.2737 33.4163 12.1453 33.3641ZM13.0524 30.5971C12.9899 30.532 12.9833 30.5013 12.9833 30.2769C12.9833 30.1404 12.9771 30.0113 12.9695 29.9898C12.962 29.9681 12.9681 29.931 12.9832 29.9067C13.0061 29.87 13.0247 29.8785 13.0968 29.9581C13.1672 30.0358 13.2046 30.0533 13.2994 30.0533C13.3793 30.0533 13.4357 30.0339 13.4794 29.991C13.5653 29.9069 13.631 29.9373 13.6283 30.0597C13.6238 30.258 13.5024 30.4816 13.3397 30.5918C13.1977 30.6877 13.1404 30.6887 13.0524 30.5971ZM22.0039 30.3339C21.9294 30.3131 21.8557 30.2827 21.8403 30.2664C21.7915 30.2157 21.745 29.858 21.7754 29.7679C21.8347 29.5916 22.0471 29.673 22.1 29.8925C22.1306 30.0197 22.1353 30.0238 22.2399 30.0238C22.3644 30.0238 22.4064 30.0779 22.4064 30.2381C22.4064 30.3276 22.3964 30.341 22.3184 30.3573C22.2024 30.3817 22.1641 30.3789 22.0039 30.3339ZM13.6391 27.9001C13.5213 27.8459 13.4798 27.7019 13.4941 27.3972C13.5073 27.1165 13.6175 26.8545 13.7668 26.7497L13.8606 26.6838L13.9307 26.7708C13.9731 26.8236 14.0279 26.8575 14.0695 26.8575C14.1727 26.8575 14.386 26.7314 14.5444 26.5768C14.6218 26.5011 14.7568 26.374 14.8447 26.2941C15.0435 26.1134 15.0933 25.9921 15.0918 25.6917C15.0897 25.3025 15.0634 25.2216 14.8851 25.0547C14.7053 24.8865 14.6357 24.7385 14.6352 24.524C14.6346 24.2724 14.7528 24.1312 14.9639 24.1312C15.08 24.1312 15.161 24.2115 15.3073 24.4725C15.5487 24.9026 15.9008 25.0693 16.1326 24.8629C16.2434 24.7641 16.2801 24.7569 16.3426 24.8222C16.3787 24.8598 16.3867 24.9455 16.3867 25.2894C16.3867 25.521 16.3984 25.7423 16.4126 25.7812C16.4301 25.8294 16.4888 25.8735 16.5966 25.9191C16.7886 26.0004 16.85 26.099 16.8291 26.2926C16.8121 26.4496 16.7259 26.554 16.5794 26.595C16.4221 26.6392 16.306 26.5962 15.8245 26.3157C15.679 26.2309 15.5165 26.2203 15.4157 26.2891C15.3778 26.315 15.2824 26.4268 15.2035 26.5375C15.0918 26.6946 14.9985 26.7821 14.7807 26.9343C14.4744 27.1481 14.3866 27.2395 14.208 27.5297C14.0803 27.7376 13.9277 27.9129 13.8739 27.9136C13.8559 27.9136 13.8157 27.9202 13.7848 27.9278C13.754 27.9354 13.6885 27.9229 13.6391 27.9001ZM18.159 21.6947C18.0584 21.6462 17.9128 21.5923 17.8354 21.5752C17.6554 21.5353 17.5517 21.4795 17.4977 21.3936C17.4591 21.3322 17.4592 21.3069 17.4987 21.1461C17.5497 20.9389 17.5234 20.7767 17.4245 20.6835C17.3745 20.6365 17.3255 20.6284 17.122 20.6324C16.9824 20.6352 16.8267 20.657 16.756 20.6837C16.6884 20.7093 16.6298 20.7302 16.6259 20.7302C16.6126 20.7302 16.6454 20.4518 16.6714 20.3438C16.6898 20.2676 16.7265 20.2172 16.7967 20.1719C16.9647 20.0638 16.9879 20.0012 16.9697 19.7068C16.9477 19.3533 16.9907 19.1788 17.1003 19.1769C17.1138 19.1769 17.172 19.226 17.2297 19.2864C17.3026 19.3628 17.3542 19.459 17.399 19.6015C17.5086 19.9507 17.5552 20.0266 17.6601 20.0271C17.8284 20.0283 17.8353 20.045 17.8353 20.458C17.8353 20.9094 17.8624 20.9793 18.1553 21.2807C18.6058 21.7444 18.6072 21.9112 18.159 21.6947ZM22.7327 19.339C22.7224 19.2963 22.7224 19.1448 22.7327 19.0022L22.7515 18.7432L22.6714 18.6887C22.6001 18.64 22.5288 18.634 22.0137 18.6332C21.509 18.632 21.4215 18.6255 21.3234 18.5774L21.2108 18.5224L21.2952 18.5011C21.3417 18.4893 21.4999 18.4781 21.6468 18.4761C21.9555 18.472 22.0763 18.4432 22.2068 18.3428C22.573 18.0613 22.4992 17.7131 21.9545 17.152C21.6151 16.8025 21.5555 16.7066 21.568 16.5289L21.5766 16.4059L21.7172 16.5541C21.7945 16.6358 21.9019 16.7808 21.9558 16.8766C22.1101 17.1511 22.6224 17.8812 22.8148 18.101C23.0948 18.4209 23.1994 18.6998 23.154 19.0055C23.13 19.1673 22.9646 19.3739 22.8391 19.3991C22.7614 19.4146 22.7493 19.408 22.7327 19.339ZM22.1208 14.6982C22.0722 14.6413 22.0269 14.5816 21.985 14.5193C21.9493 14.4651 21.86 14.3493 21.7865 14.2617C21.6261 14.0706 21.6039 14.0027 21.6771 13.9265C21.7523 13.8482 22.0704 13.847 22.2099 13.9243C22.3517 14.0031 22.4599 14.2366 22.4819 14.5113L22.4993 14.7268L22.414 14.7073C22.3508 14.6928 22.3246 14.6995 22.3121 14.7333C22.2865 14.8034 22.1994 14.7874 22.1208 14.6982ZM21.2953 10.5653C21.2644 10.5576 21.1794 10.5246 21.1065 10.4923C20.9461 10.4212 20.9073 10.3363 20.9997 10.2584C21.0813 10.1895 21.145 10.1914 21.2875 10.2672C21.3514 10.3012 21.4808 10.3357 21.5746 10.3439C21.6937 10.354 21.7774 10.381 21.851 10.4324C21.9666 10.5136 21.9792 10.5417 21.912 10.5686C21.8605 10.589 21.3791 10.5866 21.2953 10.5653ZM15.5039 33.4756C15.6974 33.372 15.8757 33.1574 16.0345 32.8366C16.1132 32.678 16.222 32.5123 16.3038 32.4266C16.4692 32.2534 16.5033 32.1875 16.5807 31.8917C16.6537 31.6132 16.7775 31.3518 17.0033 31C17.2588 30.6018 17.373 30.4887 17.709 30.3008C18.2388 30.0044 18.2704 29.9646 18.3039 29.552C18.3168 29.3909 18.3463 29.2216 18.3691 29.1756C18.4217 29.0695 18.6863 28.8193 18.9017 28.6717L19.0678 28.5581H18.2884C17.6837 28.5581 17.4658 28.5683 17.3162 28.6039C17.2103 28.6289 17.0621 28.6454 16.9872 28.6405L16.851 28.6314L16.6757 29.0857C16.5794 29.3358 16.5002 29.5658 16.5 29.597C16.4988 29.6944 16.4101 30.0337 16.3577 30.1414C16.285 30.2902 15.8075 30.8084 15.6812 30.8756C15.6219 30.9072 15.5365 30.933 15.4917 30.933C15.3928 30.933 15.2814 31.0188 15.2357 31.13C15.2171 31.175 15.1131 31.277 15.0027 31.3582C14.7503 31.5442 14.4388 31.8435 14.3604 31.9758C14.267 32.1336 14.2215 32.3577 14.2212 32.6648C14.2208 32.9775 14.2805 33.2492 14.3494 33.2492C14.3727 33.2492 14.4818 33.1833 14.592 33.1027C14.9139 32.867 14.9794 32.9171 14.7834 33.2492C14.7215 33.354 14.6708 33.455 14.6708 33.4735C14.6708 33.5306 14.8701 33.5693 15.1208 33.5609C15.3138 33.5541 15.3879 33.5376 15.5039 33.4756ZM15.7792 31.8767C15.5985 31.7391 15.4306 31.5623 15.4306 31.5095C15.4306 31.48 15.4971 31.4264 15.6023 31.3712L15.7738 31.2808L15.8878 31.3594C16.0428 31.4665 16.1708 31.4793 16.3541 31.4066C16.5588 31.3254 16.5815 31.3394 16.5506 31.528C16.5368 31.6119 16.5103 31.7123 16.4914 31.7513C16.447 31.8434 16.2655 31.9255 16.059 31.9475C15.9077 31.9634 15.8855 31.9578 15.7793 31.8769L15.7792 31.8767ZM18.7357 31.9296C18.799 31.9128 18.7685 31.9064 18.614 31.9037C18.434 31.9007 18.4092 31.8937 18.4171 31.8489C18.422 31.8208 18.4919 31.7646 18.572 31.7243C18.6523 31.6841 18.7283 31.64 18.7408 31.6265C18.7534 31.6131 18.7638 31.4981 18.7638 31.3708C18.7638 31.0942 18.8026 31.0359 19.0158 30.9945C19.1628 30.9659 19.2279 30.9053 19.2279 30.7966C19.2279 30.7463 19.1978 30.7163 19.1037 30.673C18.9487 30.6015 18.8953 30.5142 18.967 30.4489C18.9944 30.424 19.1214 30.3096 19.2493 30.1946C19.4552 30.0097 19.4863 29.9685 19.5199 29.8362C19.5933 29.5479 19.6512 29.1823 19.6323 29.127C19.6054 29.0485 19.5064 28.939 19.462 28.939C19.4415 28.939 19.3994 28.9125 19.3685 28.8805C19.3308 28.8415 19.3123 28.8347 19.3123 28.861C19.3123 28.8825 19.2281 29.0441 19.1254 29.22C19.0226 29.3959 18.8877 29.6498 18.8257 29.7841C18.7248 30.0019 18.6943 30.041 18.5413 30.1491C18.1137 30.4513 17.8846 30.8343 17.8224 31.3515C17.7932 31.5937 17.8121 31.7536 17.8699 31.7536C17.8925 31.7536 17.9777 31.6942 18.0591 31.6215C18.1405 31.549 18.2293 31.4896 18.2563 31.4896C18.3 31.4896 18.3032 31.5113 18.286 31.6899L18.2667 31.8901L18.3605 31.9214C18.4699 31.9582 18.6164 31.9612 18.7357 31.9296ZM27.5187 21.8262C27.5717 21.7839 27.6714 21.67 27.7399 21.5729L27.8646 21.3964L27.7937 21.3052C27.5121 20.9434 27.3371 20.6732 27.2026 20.3939C27.117 20.2161 27.0473 20.0508 27.048 20.0265C27.0495 19.9554 27.1354 19.8636 27.3044 19.7526C27.686 19.5014 27.7277 19.396 27.7443 18.6363C27.752 18.2789 27.7446 18.0182 27.7231 17.9034C27.6774 17.6576 27.5463 17.3916 27.3724 17.1922L27.2258 17.024L27.1157 17.0587C26.9808 17.1011 26.7757 17.3028 26.7063 17.4613C26.633 17.6292 26.6415 17.8259 26.7401 18.2252C26.799 18.4638 26.8265 18.6461 26.8267 18.7974C26.8271 19.0616 26.8164 19.1305 26.696 19.6455C26.574 20.1665 26.5378 20.4513 26.5386 20.8852C26.5391 21.2701 26.5763 21.4577 26.6843 21.6221C26.8708 21.9058 27.2898 22.0082 27.5187 21.8262ZM3.78625 10.7203C4.04543 10.5769 4.73096 10.2755 5.29719 10.056L5.78225 9.86794V9.4648C5.78225 9.23756 5.77119 9.06165 5.75637 9.06165C5.72154 9.06165 4.89625 9.41058 4.61872 9.54263C4.49684 9.60046 4.38613 9.64806 4.3726 9.64806C4.35872 9.64806 4.3479 8.74296 4.3479 7.58112C4.3479 6.44433 4.33849 5.51406 4.32696 5.51382C4.31519 5.51382 4.12072 5.60262 3.89437 5.71178L3.48284 5.9101L3.47084 8.34343C3.46425 9.68167 3.46354 10.7866 3.46907 10.7987C3.49119 10.8464 3.6126 10.8163 3.78625 10.7203ZM36.4198 9.6848C36.415 9.1084 36.4024 7.9992 36.3915 7.22038L36.3723 5.80395L36.0066 5.64455C35.8054 5.55684 35.6061 5.48515 35.5635 5.48515H35.4863V10.3741L35.6058 10.407C35.6716 10.4251 35.871 10.5046 36.0488 10.5837C36.2267 10.6629 36.385 10.7287 36.4004 10.7303C36.4187 10.7319 36.4254 10.3713 36.4198 9.6848ZM34.8633 6.56699L34.8673 5.20092L34.5508 5.09176C34.377 5.03152 34.2125 4.97007 34.1858 4.95525C34.1587 4.94031 34.0987 4.92802 34.052 4.92802H33.9672L33.964 6.16662C33.9621 6.84784 33.9626 7.42172 33.9652 7.44196C33.9855 7.60498 33.8459 7.28388 33.3483 6.02372C32.9174 4.93272 32.7594 4.56271 32.7165 4.54391C32.6106 4.49716 32.0874 4.37077 32.0004 4.37077H31.914V9.29612H31.9858C32.0445 9.29612 32.5944 9.42817 32.7932 9.48998C32.84 9.50444 32.8418 9.42757 32.8248 8.00077C32.8125 6.96098 32.8159 6.5053 32.8361 6.52554C32.8523 6.54169 33.1626 7.30629 33.5259 8.22512L34.1865 9.89541L34.5059 9.99975L34.8253 10.1041L34.8425 9.0184C34.8518 8.42175 34.8612 7.31834 34.8634 6.56699H34.8633ZM6.16684 9.75119C6.21272 9.72746 6.37531 9.66782 6.52802 9.61866C6.68072 9.56974 6.80743 9.52648 6.80966 9.52287C6.81178 9.51913 6.87484 9.20262 6.94954 8.81947L7.08554 8.12294L7.2146 8.08318C7.65849 7.94679 7.95425 7.88065 7.97378 7.91354C7.98507 7.93258 8.04943 8.2021 8.1166 8.51235C8.18378 8.82261 8.24696 9.08647 8.25707 9.09864C8.26707 9.11069 8.45802 9.07623 8.68143 9.02177C9.01578 8.94032 9.08613 8.91418 9.07907 8.87393C9.07437 8.84706 8.96919 8.46609 8.84519 8.02728C8.72107 7.58835 8.43578 6.57639 8.21154 5.77829C7.98731 4.98019 7.79825 4.32161 7.7919 4.31511C7.78554 4.30836 7.65037 4.33776 7.49166 4.38017C7.33296 4.42258 7.1719 4.46114 7.13378 4.46547C7.0659 4.47319 7.05766 4.50548 6.72119 6.07119C6.53237 6.95001 6.27719 8.13511 6.15413 8.70477C5.93249 9.73131 5.93096 9.74071 5.99013 9.76565C6.07201 9.80023 6.07249 9.80023 6.16684 9.75119ZM7.21719 7.48473C7.21719 7.43834 7.49837 6.00059 7.5166 5.95408C7.53707 5.90179 7.57225 6.0342 7.73625 6.7823L7.85672 7.33195L7.74096 7.36292C7.61954 7.39545 7.35072 7.47136 7.26649 7.49702C7.23931 7.50509 7.21719 7.49967 7.21719 7.48473ZM31.3048 6.63759L31.3217 4.19884L31.1608 4.1651C31.0085 4.13254 30.8563 4.09896 30.7044 4.06438C30.542 4.02751 30.3871 3.99775 30.3599 3.99847C30.3135 3.99968 30.3103 4.10631 30.3037 5.76106C30.2966 7.4681 30.3064 8.89044 30.3248 8.9102C30.346 8.93285 31.2546 9.109 31.2705 9.09334C31.2801 9.08418 31.2957 7.97884 31.3048 6.63759ZM9.90578 8.75405C10.1037 8.71369 10.2693 8.68079 10.2739 8.68079C10.2785 8.68079 10.2855 8.12343 10.2895 7.4422C10.295 6.51831 10.3046 6.22216 10.3275 6.27674C10.3444 6.3171 10.5332 6.84158 10.747 7.4422C10.9608 8.04282 11.1497 8.53404 11.1664 8.5338C11.2573 8.53248 11.249 8.55826 11.8351 6.48193C11.9147 6.19987 11.9904 5.95649 12.0033 5.94119C12.0163 5.92588 12.0267 6.47012 12.0267 7.15062C12.0267 7.83101 12.0361 8.38765 12.0478 8.38753C12.0815 8.38753 12.7072 8.30247 12.8018 8.28548L12.8877 8.26982L12.8781 5.90287C12.873 4.6009 12.8619 3.49147 12.8537 3.43749C12.8395 3.34556 12.8331 3.34038 12.749 3.35532C12.5081 3.39833 12.1043 3.43845 12.0406 3.42592C12.0012 3.41809 11.9639 3.42026 11.9575 3.43074C11.9513 3.44147 11.7738 4.02341 11.5632 4.72416C11.3526 5.4249 11.1667 6.04203 11.1506 6.09553C11.1341 6.14902 11.1153 6.1871 11.1087 6.17987C11.102 6.173 10.9195 5.63455 10.7032 4.98332C10.4867 4.33222 10.3048 3.78485 10.2987 3.76702C10.2911 3.74449 10.1852 3.75557 9.9546 3.80292C9.77143 3.84051 9.58249 3.87148 9.53484 3.87196L9.44778 3.87317L9.42931 4.80139C9.41907 5.31201 9.41072 6.41927 9.41072 7.26195C9.41072 8.9002 9.40343 8.80152 9.52766 8.82453C9.53778 8.82634 9.70802 8.79489 9.90578 8.75465V8.75405ZM29.6846 6.32614L29.6919 3.87377L29.6284 3.85967C29.3543 3.79847 28.9378 3.72593 28.8615 3.72593H28.7688L28.7845 4.67886C28.7995 5.60142 28.7984 5.63166 28.7465 5.63166C28.7171 5.63166 28.4841 5.59889 28.2288 5.55876C27.9738 5.51876 27.7554 5.48575 27.7438 5.48551C27.732 5.48551 27.7226 5.05007 27.7226 4.51825V3.55135L27.6594 3.53773C27.534 3.51075 26.9473 3.43267 26.8718 3.43279H26.7945V8.34753L27.2375 8.40765C27.4811 8.44067 27.6881 8.46332 27.6975 8.4579C27.707 8.45247 27.7084 7.94426 27.7006 7.32882L27.6865 6.20951L27.7538 6.22589C27.7908 6.23481 28.0267 6.27192 28.2783 6.30819L28.7353 6.37409V8.65152L28.8267 8.65308C28.8771 8.65429 29.0761 8.68525 29.2698 8.72236C29.4632 8.75971 29.634 8.78742 29.6495 8.78441C29.668 8.78068 29.6801 7.93185 29.6848 6.32638V6.32614H29.6846ZM25.3406 8.25572C25.7679 8.13981 26.0458 7.86137 26.1787 7.41642C26.2253 7.26039 26.2317 7.13978 26.2317 6.4206V5.60226H24.9379V5.74443C24.9379 5.82263 24.9297 5.98769 24.9198 6.11095L24.9017 6.3353H25.4498L25.44 6.72591C25.4308 7.09098 25.4253 7.12424 25.3553 7.23436C25.1474 7.5616 24.7175 7.50377 24.4665 7.11496C24.2847 6.83326 24.2768 6.7676 24.2768 5.52912C24.2768 4.43861 24.2783 4.41222 24.3385 4.29499C24.4134 4.14908 24.5738 3.99703 24.6783 3.97317C24.7205 3.96353 24.7699 3.95088 24.7881 3.94522C24.8545 3.92425 25.0264 3.99546 25.1232 4.08402C25.2452 4.19571 25.3272 4.35752 25.3503 4.53222L25.3675 4.66428H25.7857C26.2633 4.66428 26.2292 4.69114 26.1633 4.36752C26.0275 3.69955 25.5021 3.257 24.8447 3.257C24.1958 3.257 23.6638 3.67834 23.4704 4.34535C23.4421 4.44258 23.4332 4.75464 23.4337 5.63178C23.4341 6.9111 23.4498 7.06424 23.6164 7.41136C23.723 7.63377 23.954 7.90101 24.1587 8.03897C24.3107 8.14138 24.5747 8.2503 24.7411 8.27934C24.9044 8.30789 25.1905 8.29657 25.3407 8.25572H25.3406ZM14.6991 8.09547C15.6626 8.01113 15.7253 7.99282 15.9695 7.72064C16.4192 7.21966 16.4818 6.18192 16.0872 5.7666C15.999 5.67359 15.8138 5.57467 15.7257 5.5737C15.6892 5.5737 15.7126 5.55081 15.792 5.50973C16.2167 5.29068 16.3425 4.37619 16.0395 3.71123C15.9218 3.45267 15.7603 3.277 15.5474 3.17543L15.3891 3.09977L14.9244 3.13567C14.4488 3.17242 13.5366 3.25953 13.5254 3.26929C13.5219 3.27218 13.5105 4.38101 13.4995 5.73311L13.4801 8.19138L13.7448 8.17355C13.8907 8.16367 14.3201 8.12849 14.6991 8.09547ZM14.3264 7.40304C14.3146 7.39087 14.3052 7.07508 14.3052 6.70121V6.02143L14.7201 6.00456L15.135 5.98805L15.2277 6.08071C15.2786 6.13167 15.3545 6.24602 15.3965 6.33493C15.4621 6.47422 15.4726 6.53289 15.4726 6.76025C15.4726 6.99628 15.4644 7.03893 15.3941 7.16327C15.2748 7.37485 15.2032 7.40232 14.7412 7.41461C14.5247 7.42039 14.338 7.41461 14.3264 7.40304ZM14.4664 5.25815L14.3043 5.24755L14.3118 4.61138L14.3193 3.97522L14.7028 3.96715L15.0863 3.95907L15.2163 4.10968C15.5218 4.46379 15.4874 5.0367 15.1501 5.21393C15.0219 5.28128 14.9207 5.28779 14.4665 5.25815H14.4664ZM18.5326 7.99246C19.1194 7.86294 19.5231 7.43051 19.5919 6.85784C19.606 6.73977 19.6147 6.11541 19.6112 5.47033C19.6039 4.17691 19.599 4.13474 19.4158 3.76991C19.3086 3.55665 19.0401 3.27038 18.8459 3.1623C18.6595 3.05868 18.413 2.98639 18.193 2.97097C17.7012 2.93651 17.1618 3.31592 16.8908 3.88714C16.6981 4.29318 16.6881 4.39583 16.7108 5.73359C16.7324 6.99074 16.7437 7.09664 16.886 7.3693C17.146 7.86751 17.8657 8.13981 18.5326 7.99246ZM17.9306 7.23304C17.7755 7.1752 17.66 7.07761 17.5812 6.93724L17.5098 6.81001L17.5039 5.5831L17.498 4.35631L17.5757 4.19149C17.7719 3.77485 18.2392 3.69931 18.5764 4.0298C18.7045 4.1551 18.7787 4.31631 18.8068 4.52933C18.8198 4.62765 18.8343 5.16984 18.839 5.73419C18.8474 6.7529 18.8471 6.76133 18.7832 6.89724C18.6399 7.20159 18.254 7.35352 17.9306 7.23304ZM22.997 7.9692C22.997 7.94896 22.8134 7.45437 22.5891 6.87001C22.3647 6.28566 22.1811 5.796 22.1811 5.78166C22.1811 5.76732 22.228 5.74636 22.2854 5.73516C22.7023 5.65359 22.9395 5.22839 22.94 4.56162C22.9405 3.92967 22.6857 3.35435 22.3012 3.11941C22.1571 3.03145 21.9283 3.00952 20.838 2.97844L20.1559 2.95904V7.88245L20.2472 7.89691C20.2975 7.90475 20.4943 7.91366 20.6845 7.91619L21.0304 7.92101L21.0264 6.87158L21.0223 5.82215L21.2583 5.81371L21.4943 5.80528L21.7459 6.64928C21.8844 7.11351 22.0304 7.59871 22.0704 7.72763L22.1432 7.96234L22.4503 7.97053C22.6195 7.97511 22.7767 7.98342 22.8 7.98909C22.9011 8.01366 22.997 8.0039 22.997 7.9692ZM21.0187 5.14321C21.0084 5.13236 20.9999 4.82392 20.9999 4.45764V3.79196L21.3465 3.77111C21.73 3.7481 21.8418 3.77437 21.9911 3.92341C22.2355 4.16751 22.2219 4.84079 21.9675 5.07357L21.8699 5.16273H21.4539C21.2247 5.16273 21.0291 5.15393 21.0186 5.14321H21.0187Z" fill="#161718"/>
<path d="M19.2442 45.1446C18.3045 44.5475 15.9609 42.5944 14.3869 41.0967C11.8038 38.6386 9.2133 35.345 7.44777 32.2741C3.68295 25.7257 1.72706 18.0897 1.49683 9.04129C1.42953 6.39904 1.43424 6.31554 1.67906 5.78793C2.00354 5.08863 2.29506 4.88308 3.83954 4.26463C8.10365 2.55722 12.6054 1.7672 18.7705 1.64466C25.7311 1.5061 31.4861 2.36625 36.1179 4.23752C37.7232 4.88597 38.0087 5.08574 38.335 5.78865C38.5806 6.31807 38.5848 6.39626 38.5161 9.10045C38.1389 23.9602 33.1617 34.9811 23.0059 43.4441C21.7741 44.4706 20.4889 45.4065 20.1689 45.5101C20.0105 45.5615 19.7195 45.4466 19.2442 45.1446ZM12.4192 35.009C12.5953 34.9253 12.7245 34.7102 12.8197 34.342C12.8969 34.0432 13.0387 33.7033 13.1348 33.5866C13.2406 33.4584 13.3282 33.0682 13.3569 32.5968C13.3989 31.9083 13.4541 31.753 13.8353 31.2497C14.0812 30.9253 14.3445 30.3939 14.4487 30.0119C14.5492 29.6437 14.7101 29.1841 14.8066 28.9907C15.5278 27.5429 15.9935 26.7039 16.0759 26.7039C16.3241 26.7039 16.5227 27.26 16.5227 27.9555C16.5227 28.5037 16.5677 28.7121 16.7031 28.7912C16.8641 28.8852 16.8658 28.9328 16.7188 29.2368C16.6282 29.4239 16.5186 29.732 16.4748 29.9217C16.3661 30.3936 16.0058 30.8953 15.6304 31.0977C15.4585 31.1907 15.0831 31.5044 14.7962 31.7953C14.3827 32.2145 14.2751 32.4037 14.2765 32.7095C14.2788 33.2264 14.4406 33.4965 14.6297 33.2993C14.856 33.0632 14.9587 33.1315 14.8785 33.465C14.8062 33.7652 14.8169 33.7734 15.1797 33.6979C15.6451 33.6007 16.0664 33.3215 16.1434 33.0589C16.1754 32.9499 16.2464 32.7813 16.3008 32.6847C16.3553 32.5881 16.5635 32.1481 16.7635 31.7071C17.0124 31.1582 17.2854 30.77 17.629 30.4762C17.9051 30.2401 18.2045 29.8634 18.2944 29.6391C18.5599 28.9759 19.3327 28.4099 19.3327 28.8784C19.3327 29.1534 18.898 29.9829 18.58 30.3146C18.1804 30.7315 17.8725 31.2906 17.8718 31.6001C17.8714 31.8718 18.0294 31.9542 18.1525 31.7467C18.2748 31.5401 18.4145 31.6214 18.3537 31.8641C18.3042 32.0612 18.3501 32.0985 18.6413 32.0985C19.2188 32.0985 19.7621 31.7593 19.8457 31.3464C19.8859 31.1474 20.0162 30.8168 20.1357 30.6119C20.2777 30.368 20.328 30.1372 20.2814 29.9438C20.2054 29.6281 20.4117 28.8152 20.5677 28.8152C20.6839 28.8152 21.0907 29.6893 21.1953 30.1637C21.2379 30.357 21.3721 30.6296 21.4934 30.7692C21.6988 31.0054 21.7886 31.0186 22.7993 30.9596C23.8451 30.8985 23.895 30.883 24.1657 30.5343C24.3692 30.2721 24.464 29.9779 24.5101 29.4644C24.5911 28.5595 24.9721 27.9438 25.8473 27.3032L26.5018 26.8242L26.663 27.0867C26.7517 27.231 26.9437 27.653 27.0895 28.0243C27.3331 28.6447 27.3432 28.7465 27.2121 29.2798C27.1338 29.599 27.1032 29.9705 27.1444 30.1056C27.186 30.2423 27.1307 30.6071 27.0195 30.9295L26.8201 31.5078L27.086 31.8032C27.3878 32.1382 27.5961 32.1794 27.6906 31.9225C27.7764 31.6897 27.9871 31.6967 27.9871 31.9322C27.9871 32.1816 28.2079 32.0902 28.4618 31.7354C28.6559 31.464 28.6578 31.4133 28.4912 30.922C28.3935 30.6338 28.3364 30.307 28.3639 30.196C28.3915 30.0848 28.3641 29.7681 28.3027 29.4923C28.1626 28.8622 28.1701 28.1242 28.3246 27.3482C28.4331 26.803 28.4178 26.6846 28.1644 26.114C28.0101 25.7669 27.9052 25.4609 27.9311 25.4339C27.9568 25.407 28.1697 25.4636 28.404 25.5598C29.4938 26.0068 30.3452 25.9049 30.8624 25.2656L31.1688 24.8866L30.5052 24.8276C29.7509 24.7604 29.7164 24.7428 28.9202 24.0154C28.3591 23.503 28.3386 23.4627 28.3987 23.0043C28.4344 22.7337 28.3787 22.1392 28.2705 21.6319C28.0947 20.8071 28.0938 20.6871 28.2582 20.0968C28.3565 19.7445 28.4367 19.3014 28.4367 19.112C28.4367 18.5453 28.1341 17.6708 27.7779 17.2083C27.594 16.9697 27.3885 16.5621 27.3218 16.3025C27.2547 16.0431 27.0758 15.6398 26.924 15.4064C26.6639 15.0064 26.6574 14.9587 26.8118 14.5733C26.9019 14.3485 26.9755 13.8743 26.9755 13.5197C26.9755 12.9597 26.9278 12.8183 26.6104 12.441C25.9217 11.6227 25.5993 11.5481 22.3112 11.4468C18.5154 11.3299 17.9175 11.1814 18.5072 10.5016C18.7484 10.2233 19.142 10.2305 19.9613 10.5284C20.8562 10.8535 21.9513 10.9342 22.5922 10.7224C23.1426 10.5405 23.1526 10.5501 22.1988 10.3435C22.0444 10.3101 21.9177 10.224 21.9177 10.1523C21.9177 10.0647 22.0925 10.0463 22.4517 10.0961C23.9211 10.3 24.1657 10.3149 24.1657 10.2006C24.1657 10.0102 23.1786 9.6195 22.149 9.40178C20.4932 9.05189 18.8972 9.3419 18.1419 10.1298C17.6778 10.6141 17.6248 11.1285 18.0119 11.3918C18.4987 11.7231 19.2989 11.8244 22.1572 11.9178C24.7711 12.003 25.0846 12.0351 25.5388 12.2645C26.0977 12.5468 26.3402 12.9152 26.3257 13.4585C26.3134 13.9099 26.0238 14.3911 25.7647 14.3911C25.3259 14.3909 23.874 14.0111 22.8458 13.6277C22.2426 13.4028 21.6478 13.2189 21.5242 13.2193C21.2451 13.22 20.9172 13.4443 19.9458 14.3C19.5267 14.6691 18.7811 15.1897 18.2887 15.457C16.695 16.3221 16.2028 17.01 15.9815 18.6833C15.8615 19.5896 15.7127 19.952 15.0273 21.0084C14.4582 21.8853 14.0553 23.0639 14.0522 23.8606C14.0507 24.2452 13.9189 24.8614 13.7012 25.5022C13.4128 26.3504 13.3481 26.7309 13.3273 27.7007C13.3057 28.7064 13.2613 28.9511 13.0158 29.42C12.8389 29.7578 12.6991 30.2627 12.6499 30.7409C12.5775 31.4464 12.5215 31.5747 12.0187 32.1877C11.7152 32.5576 11.4664 32.9245 11.4658 33.0029C11.4652 33.0814 11.3121 33.3268 11.1255 33.5485C10.6967 34.058 10.4865 34.6424 10.6651 34.8286C10.76 34.9277 10.8367 34.8956 10.9662 34.7025C11.2128 34.3354 11.3541 34.3796 11.2415 34.7888C11.1768 35.0242 11.1885 35.1531 11.2777 35.1936C11.4469 35.2707 12.0861 35.1673 12.4192 35.009ZM21.0215 10.409C20.7062 10.2008 21.0068 10.1464 21.4892 10.3245L21.9738 10.5033L21.5804 10.5107C21.3641 10.5148 21.1126 10.469 21.0215 10.409ZM4.80542 10.266C5.67648 9.93469 5.73271 9.89252 5.73271 9.57263C5.73271 9.38516 5.7153 9.2319 5.69412 9.2319C5.67283 9.2319 5.36142 9.33744 5.00212 9.46636C4.64271 9.59528 4.3313 9.70095 4.31012 9.70095C4.28883 9.70095 4.27154 8.77743 4.27154 7.64884C4.27154 6.52024 4.25377 5.59672 4.23212 5.59672C4.21036 5.59672 4.0333 5.65455 3.83871 5.7254L3.48483 5.85408V8.31777C3.48483 10.617 3.49777 10.7759 3.68154 10.7C3.78965 10.6552 4.29542 10.4599 4.80542 10.266ZM36.5292 8.30524V5.85408L36.1751 5.7254C35.9805 5.65467 35.8035 5.59672 35.7818 5.59672C35.76 5.59672 35.7424 6.69724 35.7424 8.04234V10.488L36.1075 10.6103C36.2391 10.6537 36.3702 10.6984 36.5009 10.7445C36.5165 10.7509 36.5292 9.65336 36.5292 8.30524ZM34.8173 7.62787L34.7869 5.20297L34.4779 5.11682L34.1688 5.03068L34.167 6.33964C34.1651 7.83993 34.1537 7.83547 33.4806 6.06577C32.9873 4.76874 32.8268 4.54138 32.4051 4.54138H32.1455V6.94508C32.1455 8.78935 32.1782 9.34949 32.286 9.35082C32.3633 9.35166 32.5386 9.38371 32.6758 9.42215C32.9221 9.49082 32.9255 9.47468 32.9568 8.06379L32.9886 6.63567L33.6032 8.23536C33.9413 9.11539 34.2953 9.8824 34.39 9.94024C34.8368 10.2134 34.8491 10.148 34.8173 7.62787ZM6.75907 9.62998C6.79824 9.60625 6.86495 9.2966 6.9073 8.94201C6.99412 8.21813 6.98683 8.22753 7.54612 8.11813L7.95318 8.03849L8.0893 8.63007C8.22271 9.21045 8.23212 9.22033 8.58059 9.15129C8.77589 9.11262 8.95636 9.06262 8.98165 9.04009C9.03812 8.98984 7.97224 4.62753 7.87907 4.52825C7.84212 4.48885 7.65695 4.5009 7.46754 4.55536C7.12589 4.65319 7.11977 4.6691 6.70354 6.56181C6.51408 7.42536 6.32259 8.28845 6.12907 9.15105L5.97424 9.83288L6.33107 9.753C6.52742 9.70914 6.71989 9.65396 6.75907 9.62998ZM7.24612 7.25039C7.28342 7.12822 7.35307 6.79845 7.40083 6.51771L7.48789 6.00709L7.63601 6.63603C7.76071 7.16533 7.75954 7.28111 7.62942 7.36702C7.35836 7.54618 7.1733 7.48991 7.24624 7.25051L7.24612 7.25039ZM31.3589 6.7176C31.3589 5.39924 31.3211 4.29824 31.2746 4.27125C31.2282 4.24402 31.0513 4.18728 30.8812 4.14474L30.5721 4.06763V8.98177L30.8812 9.03057C31.0512 9.05744 31.2282 9.0872 31.2746 9.09683C31.321 9.10671 31.3589 8.03596 31.3589 6.7176ZM10.1349 8.82056C10.2444 8.77694 10.2748 8.54778 10.2482 7.9668C10.2282 7.53004 10.2282 6.96315 10.2482 6.70724C10.2819 6.27578 10.3165 6.33964 10.7219 7.58148L11.1592 8.92105L11.5648 7.41883L11.9705 5.91637L12.0022 7.23352C12.0298 8.36573 12.0586 8.54067 12.2081 8.48079C12.3039 8.44248 12.4793 8.41115 12.5979 8.41115C12.8035 8.41115 12.8135 8.29825 12.8135 5.97215V3.53304L12.4299 3.57991C12.0541 3.62569 12.0402 3.64726 11.7493 4.64103C11.5858 5.19888 11.3861 5.86637 11.3053 6.12445L11.1582 6.5935L10.7924 5.36213C10.5912 4.685 10.3871 4.08607 10.3386 4.03113C10.2902 3.9763 10.0939 3.96727 9.90236 4.01113L9.55412 4.09101V6.48554C9.55412 8.76791 9.56424 8.88008 9.76977 8.88008C9.88824 8.88008 10.0526 8.85321 10.1349 8.82056ZM29.6472 6.32964L29.6166 3.89642L29.3077 3.85931L28.9986 3.8222V5.71648L28.5208 5.64684C27.7369 5.53238 27.762 5.56901 27.762 4.54488C27.762 3.8704 27.7224 3.60268 27.6218 3.60147C27.5445 3.60063 27.3674 3.5681 27.2284 3.52918L26.9754 3.45846V8.38512L27.3688 8.43296L27.7622 8.48079V7.39039C27.7622 6.18252 27.7255 6.22819 28.5773 6.37518L28.9987 6.44783V7.53799C28.9987 8.47754 29.0258 8.63537 29.1954 8.68164C29.691 8.81707 29.679 8.87948 29.6472 6.32964ZM15.5009 8.01824C15.9627 7.78812 16.2242 7.30256 16.2334 6.65844C16.2398 6.20722 16.186 6.01432 15.9993 5.8195C15.7586 5.56816 15.7584 5.56383 15.9708 5.20044C16.2287 4.7591 16.2441 4.29607 16.0162 3.83618C15.8041 3.40821 15.2619 3.25303 14.3311 3.35412L13.6567 3.42725L13.6261 5.87263L13.5959 8.31801L14.4131 8.2356C14.8622 8.19042 15.3519 8.09258 15.5009 8.01824ZM14.3871 6.79013C14.3871 6.17999 14.4165 6.08505 14.624 6.02854C15.2533 5.85685 15.7089 6.50675 15.3844 7.11291C15.2641 7.33762 15.1166 7.42365 14.8051 7.45076L14.3871 7.48714V6.79013ZM14.3871 4.71416V4.07221H14.758C15.2074 4.07221 15.3987 4.24993 15.3987 4.66765C15.3987 5.04044 15.2454 5.18659 14.7524 5.28406L14.3871 5.35623V4.71416ZM25.812 8.00005C26.1097 7.79643 26.2997 7.1687 26.3005 6.38458C26.3012 5.76793 26.2915 5.75962 25.4861 5.67913L24.9522 5.62564V6.02167C24.9522 6.3659 24.989 6.41771 25.2333 6.41771C25.46 6.41771 25.5142 6.47554 25.5142 6.71856C25.5142 7.41341 24.9788 7.72257 24.5773 7.25955C24.0262 6.62446 24.1493 4.20511 24.7425 4.00884C24.9899 3.92691 25.4018 4.23439 25.4018 4.50102C25.4018 4.60307 25.5406 4.65874 25.7952 4.65874C26.2414 4.65874 26.2915 4.50295 26.0206 3.95655C25.783 3.47701 25.4235 3.25158 24.8959 3.25158C23.9312 3.25158 23.4946 4.00257 23.4985 5.65552C23.5008 6.7482 23.6614 7.43823 24.0052 7.83438C24.4025 8.29223 25.2684 8.37163 25.812 8.00005ZM18.8594 7.87559C18.9977 7.77462 19.2209 7.47124 19.3558 7.20135C19.7082 6.49554 19.7151 4.7238 19.3684 3.93401C19.1319 3.39568 18.6739 3.017 18.2593 3.017C17.8664 3.017 17.3369 3.39448 17.092 3.84931C16.5697 4.81898 16.6719 6.96508 17.276 7.71438C17.5111 8.00571 17.636 8.05921 18.0812 8.05921C18.3775 8.05921 18.718 7.97885 18.8594 7.87559ZM17.7897 7.03869C17.6444 6.80772 17.5813 6.43386 17.5569 5.66082C17.5284 4.75296 17.5572 4.54379 17.7565 4.21101C18.0474 3.72545 18.4122 3.74051 18.6571 4.24812C18.9105 4.77344 18.8908 6.61892 18.6274 7.03833C18.3733 7.44292 18.0439 7.44317 17.7897 7.03869ZM21.0185 6.9664C21.0185 5.97601 21.0287 5.93384 21.2589 5.96974C21.4504 5.9995 21.5702 6.21662 21.8467 7.03327L22.1938 8.05933H23.0341L22.6651 6.95399L22.2957 5.84866L22.5974 5.55154C22.9659 5.18875 23.0806 4.6603 22.9233 4.05113C22.748 3.37207 22.3079 3.13519 21.2194 3.13471L20.3527 3.13423L20.3202 5.54816C20.3024 6.87592 20.2961 7.97065 20.3065 7.98138C20.3167 7.99198 20.4812 8.00065 20.6717 8.00065H21.0182V6.9664H21.0185ZM21.1027 5.17707C21.0564 5.12839 21.0185 4.80019 21.0185 4.44765V3.8069L21.4921 3.87317C22.1651 3.96715 22.4501 4.45247 22.1139 4.932C21.9625 5.14815 21.2417 5.32273 21.1027 5.17707ZM0.0180054 8.41091C0.0180054 8.24982 0.0436524 8.18379 0.0748289 8.2644C0.106005 8.345 0.106005 8.47706 0.0748289 8.55766C0.0436524 8.63827 0.018123 8.57212 0.018123 8.41103L0.0180054 8.41091ZM0.0340054 7.35545C0.0340054 7.00098 0.0550642 6.8558 0.0808289 7.03315C0.106594 7.21051 0.106594 7.50064 0.0808289 7.67811C0.0549465 7.85559 0.0340054 7.71028 0.0340054 7.35545Z" fill="#161718"/>
</g>
<defs>
<clipPath id="clip0_1007_2779">
<rect width="40" height="47" fill="white"/>
</clipPath>
</defs>
</svg>
