<svg width="68" height="33" viewBox="0 0 68 33" fill="none" xmlns="http://www.w3.org/2000/svg">
<path fill-rule="evenodd" clip-rule="evenodd" d="M67.3365 16.0904C67.3365 24.9434 52.27 32.1204 33.6849 32.1204C15.0991 32.1204 0.0326538 24.9434 0.0326538 16.0904C0.0326538 7.23794 15.0991 0.0614014 33.6849 0.0614014C52.2701 0.0614014 67.3365 7.23785 67.3365 16.0904ZM55.252 8.5858H49.4804L48.7773 10.6326H52.5131L48.2519 12.1352L47.9703 12.9653L54.5274 10.7754L55.252 8.5858ZM18.4537 12.1783H16.1026C16.1026 12.1783 18.2816 6.26328 18.4563 5.8161C18.7671 5.02378 18.9527 5.0783 18.9527 5.0783H15.7055C16.1075 5.2742 15.7514 6.04637 15.7514 6.04637C15.7514 6.04637 13.1505 13.423 12.9693 13.7915C12.7882 14.1608 12.6525 14.2072 12.6525 14.2072H18.276L19.0625 12.0225C18.9947 12.2305 18.4537 12.1783 18.4537 12.1783ZM28.3179 14.1978H30.9666C30.9666 14.1978 30.7851 13.9241 30.8984 13.6247C31.0553 13.2088 32.4605 9.31386 32.4605 9.31386L33.0714 14.1978H35.4707L38.6159 5.51021C38.6159 5.51021 38.7447 5.10274 38.9201 5.10274L36.3708 5.0951C36.3708 5.0951 36.4437 5.39497 36.3529 5.62563C36.2629 5.85629 34.8136 9.79809 34.8136 9.79809L34.2478 5.0952H31.5097C31.5097 5.0952 31.6514 5.32547 31.5608 5.57895C31.4868 5.78459 28.6579 13.6934 28.6579 13.6934C28.6579 13.6934 28.4769 14.1978 28.3179 14.1978ZM40.4277 5.09768C40.4277 5.09768 40.654 5.46648 40.359 6.31904C40.0647 7.17226 37.7562 13.5112 37.7562 13.5112C37.7562 13.5112 37.5746 14.1075 37.3262 14.2234L40.9477 14.2192C40.9477 14.2192 45.338 14.3844 46.6964 9.68448C46.6964 9.68448 48.4165 5.05118 43.4371 5.09768H40.4277ZM40.8118 12.1201C40.8118 12.1201 40.8234 12.1165 41.2302 12.1165C41.8464 12.1165 42.9874 11.9782 43.7541 10.0767C45.0141 6.95124 43.2561 7.05693 43.2561 7.05693H42.5769L40.8118 12.1201ZM8.60513 21.558H14.3765L15.0789 19.5108H11.3436L15.6045 18.0085L15.8868 17.1787L9.32955 19.3687L8.60513 21.558ZM18.7193 25.3339C18.6281 25.3339 18.6281 25.0364 18.6281 25.0364L19.6896 22.1675C19.6896 22.1675 21.012 24.8102 21.1028 24.9948C21.1935 25.1794 21.1476 25.333 21.1476 25.333H24.3112C24.0096 25.333 23.6983 24.7491 23.6983 24.7491L22.1234 21.8709C24.3262 21.8709 25.0308 19.647 25.0308 19.647C26.1172 16.1124 22.4609 16.2045 22.4609 16.2045H18.7193C18.9906 16.512 18.7791 17.1575 18.7791 17.1575C18.7791 17.1575 16.4555 23.9236 16.2748 24.4465C16.0935 24.9689 15.7617 25.3339 15.7617 25.3339H18.7193ZM20.9616 18.3033L20.3483 20.1392H20.9217C20.9217 20.1392 22.0387 20.2393 22.4508 19.335C22.4508 19.335 22.9329 18.2986 21.5853 18.2986C21.2903 18.2986 20.9616 18.3033 20.9616 18.3033ZM51.4539 25.3674C51.2276 25.3721 51.3851 24.808 51.3851 24.808L52.3323 22.2009C52.3323 22.2009 53.609 24.8441 53.6986 25.0291C53.7895 25.2133 53.7445 25.3669 53.7445 25.3669H57.0204C56.7183 25.3669 56.3862 24.783 56.3862 24.783L54.8106 21.9039C57.0146 21.9039 57.6775 19.7603 57.6775 19.7603C58.8347 16.0592 55.1494 16.2385 55.1494 16.2385H51.4375C51.7096 16.5459 51.4983 17.1913 51.4983 17.1913C51.4983 17.1913 49.0777 23.9834 48.896 24.5054C48.7151 25.029 48.3676 25.3622 48.3676 25.3622L51.4539 25.3674ZM53.611 20.1723C53.611 20.1723 54.7193 20.2577 55.0586 19.3732C55.4589 18.3314 54.4598 18.359 54.4598 18.359H53.6405L53.0371 20.1723H53.611ZM28.9431 25.5597C32.2088 25.5597 34.1522 22.2973 34.1522 19.9568C34.1522 17.5015 33.1613 15.9695 30.8984 15.9695C28.0114 15.9695 26.1281 18.2006 25.642 20.9744C25.1954 23.5252 26.6097 25.5597 28.9431 25.5597ZM29.1488 23.4024C29.9634 23.5555 30.8589 22.9585 31.3266 21.0509C32.0358 18.1641 30.7286 18.1403 30.4901 18.1106C29.7674 18.0207 28.8025 18.8685 28.4105 20.6361C28.231 21.4434 28.0406 23.1932 29.1488 23.4024ZM34.9273 16.2385C34.9273 16.2385 35.1519 16.3612 35.1519 16.9447V24.844C35.1519 24.844 35.1211 25.2765 34.9607 25.3669H37.3871C37.3871 25.3669 37.3871 25.1819 37.6279 24.8746C37.8696 24.5673 42.9091 17.6833 42.9091 17.6833C42.9091 17.6833 44.0584 16.2385 44.3596 16.2385H40.8869C40.8869 16.2385 41.159 16.4231 40.9477 16.7611C40.7365 17.0993 37.6495 21.8016 37.6495 21.8016L37.6883 17.0585C37.6883 17.0585 37.6828 16.298 37.9825 16.2342L34.9273 16.2385ZM49.597 18.3921L50.3816 16.2364L44.4975 16.237C44.4975 16.237 44.7083 16.4266 44.4375 17.1948C44.1654 17.9639 41.7814 24.5088 41.7814 24.5088C41.7814 24.5088 41.359 25.3691 41.239 25.3691H47.304L48.0285 23.1872C48.0285 23.1872 47.9381 23.3099 47.3647 23.3099H44.7992L45.343 21.8347H47.3339C47.3339 21.8347 47.7569 21.8041 47.8473 21.9272L48.6619 19.5951C48.6619 19.5951 48.6023 19.8061 48.0582 19.8061H46.1268L46.701 18.1777H49.1449C49.1449 18.1777 49.477 18.1311 49.597 18.3921ZM18.9208 14.206H21.8237C21.8237 14.206 21.8147 13.9789 21.8903 13.8314C22.0283 13.5651 22.3884 12.9225 22.3884 12.9225H25.3101L25.3157 13.7241C25.3157 13.7241 25.3307 14.0004 25.1157 14.2136H28.0129C28.0129 14.2136 27.7977 14.0906 27.7582 13.7277L27.3946 5.70602C27.3946 5.70602 27.379 5.19334 27.6186 5.08536H24.7445C24.7445 5.08536 24.9457 5.33874 24.5609 5.915C24.1765 6.49136 19.2666 13.9059 19.2666 13.9059C19.2666 13.9059 19.169 14.0966 18.9208 14.206ZM25.2544 8.18998L23.6412 10.8633H25.2776L25.2544 8.18998Z" fill="#161718"/>
</svg>
