<svg width="50" height="38" viewBox="0 0 50 38" fill="none" xmlns="http://www.w3.org/2000/svg">
<path fill-rule="evenodd" clip-rule="evenodd" d="M26.0031 3.07863C23.385 6.44212 15.9175 17.3011 15.0665 18.7071C13.4281 21.4011 13.2834 22.7066 13.2351 23.5764C13.1876 24.4303 13.1876 25.9696 14.5204 27.2248C16.7532 29.2996 19.8845 28.9644 22.6634 28.9644H45.5505C46.5302 28.9644 46.8197 28.6628 47.3498 27.927C49.1804 25.0152 50 21.8528 50 19.0248C50 12.9673 46.2261 5.33772 36.6691 1.89044L35.5922 3.49678C43.173 7.24415 46.3058 12.147 46.3058 19.0072C46.354 20.8482 45.8876 22.8392 44.731 24.6801H22.4697C21.1369 24.6801 20.9439 23.1073 21.4257 22.2199C23.3342 18.6814 25.4641 15.2776 27.8016 12.0304C30.0505 8.90152 32.2664 5.97294 34.5957 2.91107C35.2223 2.05801 34.8041 1.2377 33.5517 0.970354C30.9497 0.401394 28.2359 0 24.943 0C6.68227 0 0 10.926 0 19.0248C0 27.8097 6.72979 38 24.9912 38C35.1258 38 41.7598 34.6022 45.598 30.2356H41.7269C38.3696 33.4651 32.6035 35.7584 24.9912 35.7584C9.52406 35.7584 3.82293 26.7053 3.82293 18.9075C3.93479 11.9466 10.0541 2.34211 25.3773 2.02449C25.9556 2.00774 26.4059 2.55994 26.0031 3.07863Z" fill="#161718"/>
</svg>
