<svg width="46" height="47" viewBox="0 0 46 47" fill="none" xmlns="http://www.w3.org/2000/svg">
<path d="M42.7257 35.5881C44.8738 31.9384 46.0059 27.7588 46 23.5C46 10.5211 35.702 0 22.9998 0C10.2972 0 2.29913e-05 10.5216 2.29913e-05 23.5C-0.00588399 27.7589 1.12654 31.9386 3.27511 35.5881L3.19139 35.6566L3.29136 35.6171C7.31701 42.4374 14.6365 47 22.9998 47C31.3635 47 38.6822 42.4374 42.7074 35.6171L42.8074 35.6566L42.7257 35.5881ZM43.1743 23.5C43.1782 27.0988 42.2548 30.6353 40.4969 33.7539L26.2686 22.0449L23.3505 2.89734C34.3295 3.08885 43.1743 12.2362 43.1743 23.5ZM2.82777 23.5C2.82777 12.2366 11.6717 3.08927 22.6507 2.89734L19.7326 22.0449L5.50432 33.7539C3.74698 30.6351 2.82388 27.0987 2.82777 23.5ZM23.0006 44.1116C15.8423 44.1116 9.55914 40.2984 5.97874 34.5552L23.0006 27.8269L40.0225 34.5557C36.4417 40.2984 30.1598 44.1116 23.0006 44.1116Z" fill="#161718"/>
</svg>
