<svg width="46" height="44" viewBox="0 0 46 44" fill="none" xmlns="http://www.w3.org/2000/svg">
<path d="M23.2243 43.8186L29.4614 9.19437C35.4065 9.19437 37.2817 9.83784 37.5525 12.4644C37.5525 12.4644 41.5406 10.9966 43.5521 8.01552C35.7027 4.42535 27.816 4.26344 27.816 4.26344L23.2139 9.7962L23.2243 9.7955L18.6222 4.26257C18.6222 4.26257 10.7352 4.42466 2.88693 8.01482C4.89665 10.9959 8.88637 12.4637 8.88637 12.4637C9.1587 9.83698 11.0316 9.1935 16.9368 9.18933L23.2243 43.8186Z" fill="#161718"/>
<path d="M23.2219 2.66555C29.567 2.61765 36.8296 3.63442 44.2644 6.83291C45.2581 5.0675 45.5135 4.28727 45.5135 4.28727C37.3862 1.11342 29.7751 0.0272455 23.221 0C16.6672 0.0272455 9.05645 1.1136 0.930206 4.28727C0.930206 4.28727 1.29273 5.24833 2.17848 6.83291C9.61185 3.63442 16.8757 2.61765 23.221 2.66555H23.2219Z" fill="#161718"/>
</svg>
