<svg width="180" height="34" viewBox="0 0 180 34" fill="none" xmlns="http://www.w3.org/2000/svg">
<path d="M89.6442 2.13453V0.000137329H63.5572C62.2474 0.000137329 61.1857 1.0618 61.1857 2.37168V17.0752H89.6442V14.9409H71.1462V9.24915H88.2213V7.11476H71.1462V2.13453H89.6442Z" fill="white"/>
<path d="M149.407 0.000137329H139.447H130.909H120.949V2.13453H130.909V17.0752H139.447V2.13453H149.407V0.000137329Z" fill="white"/>
<path d="M180 4.98038V2.37168C180 1.0618 178.938 0.000137329 177.628 0.000137329H153.202C151.892 0.000137329 150.83 1.0618 150.83 2.37168V9.24915H170.039V14.9409H160.79V11.3835H150.83V14.7037C150.83 16.0136 151.892 17.0752 153.202 17.0752H177.628C178.938 17.0752 180 16.0136 180 14.7037V7.11476H160.79V2.13453H170.039V4.98038H180Z" fill="white"/>
<path d="M115.968 0.000137329H93.4386C92.1287 0.000137329 91.067 1.0618 91.067 2.37168V17.0752H101.027V9.24915H109.565V17.0752H119.526V0.000137329H115.968ZM101.027 7.11476V2.13453H109.565V7.11476H101.027Z" fill="white"/>
<path d="M59.0513 2.37168C59.0513 1.0618 57.9896 0.000137329 56.6798 0.000137329H30.5928V17.0752H40.5533V9.24915H44.822L48.3794 17.0752H59.0513L56.1406 10.6721H59.0513V2.37168ZM40.5533 7.11476V2.13453H49.0908V7.11476H40.5533Z" fill="white"/>
<path d="M9.96048 14.9407V2.13439H28.4585V0H2.37154C1.06166 0 0 1.06166 0 2.37154V17.0751H26.087C27.3968 17.0751 28.4585 16.0134 28.4585 14.7036V7.11463H14.2293V9.24901H18.498V14.9407H9.96048Z" fill="white"/>
<path d="M30.6091 27.1923H33.095C33.5476 27.1923 33.9451 27.2419 34.2875 27.3412C34.63 27.4342 34.9449 27.611 35.2323 27.8716C35.8744 28.4548 36.1955 29.2954 36.1955 30.3935C36.1955 31.5661 35.8897 32.4626 35.2782 33.083C35.0091 33.356 34.7156 33.5483 34.3976 33.66C34.0857 33.7654 33.6729 33.8182 33.1592 33.8182H30.6091V27.1923ZM31.7466 28.1787V32.841H33.095C33.8105 32.841 34.315 32.6301 34.6086 32.2082C34.9021 31.7864 35.0489 31.2001 35.0489 30.4494C35.0489 29.7359 34.8838 29.1807 34.5535 28.7836C34.2233 28.3803 33.7127 28.1787 33.0216 28.1787H31.7466Z" fill="white"/>
<path d="M42.5678 27.1923V28.1694H38.9995V29.9282H42.3109V30.8682H38.9995V32.8224H42.6228V33.8182H37.862V27.1923H42.5678Z" fill="white"/>
<path d="M48.7585 32.8131V33.8182H44.2821V27.1923H45.4379V32.8131H48.7585Z" fill="white"/>
<path d="M55.5026 27.1923V31.2497C55.5026 33.0489 54.6159 33.9485 52.8425 33.9485C51.9191 33.9485 51.2372 33.7251 50.7969 33.2784C50.3627 32.8317 50.1456 32.1493 50.1456 31.2311V27.1923H51.2922V31.4637C51.2922 32.4812 51.8151 32.9899 52.8608 32.9899C53.1788 32.9899 53.4387 32.9465 53.6405 32.8596C53.8484 32.7728 54.0013 32.6394 54.0992 32.4595C54.197 32.2796 54.2643 32.0872 54.301 31.8825C54.3377 31.6716 54.356 31.411 54.356 31.1008V27.1923H55.5026Z" fill="white"/>
<path d="M56.7197 33.8182L59.0496 30.3842L56.8848 27.1923H58.2516L59.7376 29.5374L61.2879 27.1923H62.5721L60.4072 30.3842L62.728 33.8182H61.3337L59.7009 31.2869L58.0406 33.8182H56.7197Z" fill="white"/>
<path d="M68.7495 27.1923V28.1694H65.1812V29.9282H68.4927V30.8682H65.1812V32.8224H68.8045V33.8182H64.0438V27.1923H68.7495Z" fill="white"/>
<path d="M76.6493 27.183L79.1719 33.8182H77.9427L77.3189 32.0593H74.7322L74.0901 33.8182H72.9067L75.4293 27.183H76.6493ZM77.0162 31.1846L76.0439 28.3928L75.0257 31.1846H77.0162Z" fill="white"/>
<path d="M85.7305 27.1923V31.2497C85.7305 33.0489 84.8438 33.9485 83.0703 33.9485C82.1469 33.9485 81.4651 33.7251 81.0248 33.2784C80.5906 32.8317 80.3735 32.1493 80.3735 31.2311V27.1923H81.5201V31.4637C81.5201 32.4812 82.043 32.9899 83.0887 32.9899C83.4067 32.9899 83.6666 32.9465 83.8684 32.8596C84.0763 32.7728 84.2292 32.6394 84.327 32.4595C84.4249 32.2796 84.4922 32.0872 84.5288 31.8825C84.5655 31.6716 84.5839 31.411 84.5839 31.1008V27.1923H85.7305Z" fill="white"/>
<path d="M92.378 27.1923V28.1973H90.2957V33.8182H89.1491V28.1973H87.0668V27.1923H92.378Z" fill="white"/>
<path d="M96.5863 27.0341C97.5097 27.0341 98.2589 27.3567 98.8337 28.0019C99.4146 28.6409 99.7051 29.4754 99.7051 30.5052C99.7051 31.5351 99.4146 32.3726 98.8337 33.0178C98.2527 33.6569 97.4975 33.9764 96.568 33.9764C95.6323 33.9764 94.874 33.6569 94.2931 33.0178C93.7182 32.3788 93.4308 31.5413 93.4308 30.5052C93.4308 29.5002 93.7121 28.6719 94.2747 28.0205C94.8434 27.3629 95.614 27.0341 96.5863 27.0341ZM96.568 28.0112C95.9687 28.0112 95.4886 28.2377 95.1278 28.6905C94.767 29.1372 94.5866 29.7359 94.5866 30.4866C94.5866 31.2559 94.7639 31.867 95.1186 32.3199C95.4794 32.7728 95.9687 32.9992 96.5863 32.9992C97.1795 32.9992 97.6534 32.7728 98.0081 32.3199C98.3689 31.8608 98.5493 31.2528 98.5493 30.4959C98.5493 29.739 98.3689 29.1372 98.0081 28.6905C97.6534 28.2377 97.1734 28.0112 96.568 28.0112Z" fill="white"/>
<path d="M110.31 30.2726V33.8182H109.576L109.402 33.0272C108.882 33.66 108.203 33.9764 107.365 33.9764C106.448 33.9764 105.702 33.66 105.127 33.0272C104.558 32.3943 104.274 31.5692 104.274 30.5518C104.274 29.5529 104.561 28.7216 105.136 28.0577C105.711 27.3877 106.488 27.0527 107.466 27.0527C108.176 27.0527 108.793 27.2543 109.319 27.6576C109.851 28.0608 110.154 28.6099 110.227 29.3047H109.117C109.05 28.9077 108.867 28.5975 108.567 28.3741C108.273 28.1446 107.904 28.0298 107.457 28.0298C106.827 28.0298 106.332 28.2532 105.971 28.6999C105.61 29.1465 105.43 29.7576 105.43 30.5331C105.43 31.3148 105.61 31.929 105.971 32.3757C106.338 32.8162 106.846 33.0365 107.494 33.0365C108.063 33.0365 108.5 32.8565 108.806 32.4967C109.117 32.1369 109.273 31.6933 109.273 31.1659H107.512V30.2726H110.31Z" fill="white"/>
<path d="M115.16 27.183L117.683 33.8182H116.454L115.83 32.0593H113.243L112.601 33.8182H111.418L113.94 27.183H115.16ZM115.527 31.1846L114.555 28.3928L113.537 31.1846H115.527Z" fill="white"/>
<path d="M123.407 32.8131V33.8182H118.931V27.1923H120.086V32.8131H123.407Z" fill="white"/>
<path d="M129.316 32.8131V33.8182H124.84V27.1923H125.996V32.8131H129.316Z" fill="white"/>
<path d="M135.455 27.1923V28.1694H131.887V29.9282H135.198V30.8682H131.887V32.8224H135.51V33.8182H130.749V27.1923H135.455Z" fill="white"/>
<path d="M137.169 27.1923H140.261C140.909 27.1923 141.438 27.3412 141.848 27.639C142.257 27.9306 142.462 28.3959 142.462 29.0349C142.462 29.4319 142.367 29.7731 142.178 30.0585C141.988 30.3377 141.722 30.5393 141.38 30.6634C141.539 30.7006 141.676 30.7565 141.793 30.8309C141.909 30.9054 141.997 30.986 142.059 31.0729C142.126 31.1597 142.181 31.2714 142.224 31.4079C142.266 31.5444 142.294 31.6654 142.306 31.7708C142.325 31.8701 142.34 32.0035 142.352 32.171C142.358 32.2144 142.364 32.2982 142.37 32.4223C142.383 32.5463 142.389 32.6301 142.389 32.6735C142.395 32.7107 142.401 32.779 142.407 32.8783C142.419 32.9775 142.429 33.0489 142.435 33.0923C142.441 33.1295 142.45 33.1885 142.462 33.2691C142.48 33.3436 142.496 33.4025 142.508 33.4459C142.52 33.4831 142.536 33.5297 142.554 33.5855C142.572 33.6351 142.594 33.6786 142.618 33.7158C142.643 33.753 142.67 33.7871 142.701 33.8182H141.471C141.453 33.7933 141.435 33.7654 141.416 33.7344C141.404 33.6972 141.392 33.66 141.38 33.6227C141.368 33.5793 141.358 33.5421 141.352 33.5111C141.346 33.4738 141.337 33.4273 141.325 33.3715C141.319 33.3094 141.312 33.2598 141.306 33.2226C141.306 33.1854 141.303 33.1295 141.297 33.0551C141.291 32.9806 141.285 32.9248 141.279 32.8876C141.279 32.8503 141.276 32.7852 141.27 32.6921C141.264 32.5991 141.26 32.5339 141.26 32.4967C141.23 31.957 141.117 31.5878 140.921 31.3893C140.732 31.1846 140.368 31.0822 139.83 31.0822H138.307V33.8182H137.169V27.1923ZM138.307 28.1415V30.2167H139.82C140.04 30.2167 140.227 30.2043 140.38 30.1795C140.533 30.1547 140.686 30.1113 140.839 30.0492C140.998 29.981 141.117 29.8724 141.196 29.7235C141.282 29.5746 141.325 29.3854 141.325 29.1558C141.325 28.9449 141.288 28.7712 141.215 28.6347C141.141 28.492 141.034 28.3865 140.894 28.3183C140.759 28.2501 140.618 28.2035 140.472 28.1787C140.331 28.1539 140.163 28.1415 139.967 28.1415H138.307Z" fill="white"/>
<path d="M149.259 27.1923L146.801 31.1846V33.8182H145.673V31.1846L143.205 27.1923H144.526L146.26 30.1237L147.975 27.1923H149.259Z" fill="white"/>
</svg>
