<svg width="30" height="36" viewBox="0 0 30 36" fill="none" xmlns="http://www.w3.org/2000/svg">
<g id="lamborghini (1) 2" clip-path="url(#clip0_1159_4220)">
<path id="Vector" d="M14.1036 35.732C13.6178 35.4465 12.2301 34.3304 11.128 33.3388C9.29879 31.693 7.69476 29.8803 6.25961 27.8373C3.17111 23.4405 1.26108 18.3257 0.426113 12.2149C0.0275541 9.29923 -0.126946 5.22651 0.126378 4.31776C0.286701 3.74244 0.651554 3.20662 1.11285 2.86913C1.61155 2.50413 3.20429 1.84705 4.633 1.4169C7.66052 0.5051 11.0044 0.0684901 14.9723 0.0663675C20.0308 0.0637835 24.1708 0.769964 27.6635 2.23114C28.9105 2.75284 29.3717 3.12698 29.7317 3.90819L29.9684 4.42149L29.9629 6.66701C29.9473 12.9071 28.6017 18.9733 26.1476 23.8664C25.5222 25.1135 24.0434 27.5257 23.3119 28.4925C21.9581 30.2814 20.3931 31.9978 18.8401 33.3969C17.7914 34.3416 16.2396 35.5731 15.8094 35.8019C15.2807 36.0833 14.6582 36.0578 14.1036 35.732ZM15.1531 35.5716C15.0719 35.5491 14.9392 35.5491 14.8581 35.5716C14.7769 35.5942 14.8433 35.6127 15.0056 35.6127C15.1679 35.6127 15.2343 35.5942 15.1531 35.5716ZM11.8024 33.3541C11.8024 33.3355 11.736 33.2646 11.6548 33.197C11.5211 33.0852 11.5181 33.0883 11.623 33.2308C11.7331 33.3805 11.8024 33.428 11.8024 33.3541ZM11.2965 32.9097C11.2965 32.8936 11.1922 32.7823 11.0647 32.6627L10.8329 32.4449L11.0373 32.692C11.2283 32.9229 11.2965 32.9802 11.2965 32.9097ZM10.1164 31.7265C9.8177 31.4053 9.55432 31.1426 9.5312 31.1426C9.50808 31.1426 9.73344 31.4054 10.0321 31.7265C10.3308 32.0475 10.5942 32.3103 10.6173 32.3103C10.6404 32.3103 10.4151 32.0475 10.1164 31.7265ZM8.85196 30.3791C8.55329 30.0579 8.28991 29.7953 8.26679 29.7953C8.24367 29.7953 8.46902 30.058 8.7677 30.3792C9.06638 30.7002 9.32976 30.963 9.35288 30.963C9.37599 30.963 9.15055 30.7002 8.85196 30.3792V30.3791ZM8.09314 29.4966C8.09314 29.4805 7.98894 29.3693 7.86144 29.2496L7.62964 29.0318L7.83399 29.2789C8.02502 29.5096 8.09314 29.567 8.09314 29.4966ZM7.58747 28.8662C7.58747 28.849 7.50214 28.7581 7.39776 28.6641L7.20805 28.493L7.36864 28.6951C7.51952 28.8849 7.58747 28.938 7.58747 28.8662ZM7.25023 28.4169C7.25023 28.3999 7.16491 28.309 7.06052 28.2148L6.87099 28.0438L7.03158 28.2458C7.18247 28.4359 7.25023 28.4889 7.25023 28.4169ZM6.91308 27.965C6.91308 27.9464 6.84673 27.8755 6.76555 27.8079C6.63188 27.6961 6.62879 27.6992 6.7337 27.8417C6.84382 27.9912 6.91308 28.0389 6.91308 27.965ZM6.6602 27.6057C6.6602 27.5871 6.59385 27.5163 6.51267 27.4485C6.37899 27.3368 6.37591 27.34 6.48082 27.4824C6.59102 27.6321 6.6602 27.6797 6.6602 27.6057ZM6.40732 27.2465C6.40732 27.2278 6.34097 27.157 6.25979 27.0893C6.12611 26.9775 6.12302 26.9808 6.22802 27.1232C6.33805 27.2727 6.40732 27.3204 6.40732 27.2465ZM5.22717 25.3942C5.17758 25.2953 5.11802 25.2145 5.09482 25.2145C5.07161 25.2145 5.09323 25.2953 5.14291 25.3942C5.1925 25.4929 5.25205 25.5738 5.27526 25.5738C5.29847 25.5738 5.27676 25.493 5.22717 25.3942ZM4.9742 24.945C4.92461 24.8463 4.86505 24.7654 4.84185 24.7654C4.81864 24.7654 4.84026 24.8463 4.88994 24.945C4.93952 25.0438 4.99908 25.1247 5.02229 25.1247C5.0455 25.1247 5.02388 25.0439 4.9742 24.945ZM4.72141 24.4959C4.67182 24.3972 4.61217 24.3164 4.58905 24.3164C4.56594 24.3164 4.58747 24.3972 4.63714 24.4959C4.68673 24.5947 4.74629 24.6756 4.76949 24.6756C4.79261 24.6756 4.771 24.5948 4.72141 24.4959ZM3.94467 22.9278C3.70352 22.411 3.49273 22.0028 3.47632 22.0203C3.439 22.0599 4.28632 23.8673 4.34226 23.8673C4.36476 23.8673 4.18582 23.4445 3.94467 22.9278ZM3.21435 21.2916C3.115 21.1096 3.091 21.1679 3.17226 21.3937C3.2012 21.4739 3.24258 21.5207 3.26429 21.4976C3.286 21.4746 3.26358 21.3819 3.21435 21.2917V21.2916ZM11.3123 5.75227C11.2514 5.72642 11.1787 5.72956 11.1508 5.75946C11.1228 5.78927 11.1726 5.8105 11.2614 5.80653C11.3596 5.80228 11.3796 5.78087 11.3123 5.75227ZM0.707319 4.0576C0.736084 3.97768 0.721966 3.94159 0.674231 3.97306C0.628348 4.00324 0.590848 4.066 0.590848 4.11242C0.59076 4.24162 0.651201 4.21319 0.707319 4.0576ZM29.4205 4.11712C29.4205 4.07319 29.3418 3.94178 29.2458 3.82522L29.0711 3.61324L29.2219 3.90514C29.3781 4.20775 29.4204 4.25297 29.4204 4.11712H29.4205ZM9.45779 2.78828C9.39691 2.76235 9.3242 2.76549 9.29623 2.7953C9.26817 2.8251 9.31802 2.84642 9.40688 2.84255C9.50508 2.83821 9.52511 2.81698 9.45779 2.78828ZM13.109 2.66997C13.1928 2.57122 13.2426 2.49038 13.2193 2.49038C13.196 2.49038 13.1085 2.57122 13.0246 2.66997C12.9407 2.76872 12.891 2.84956 12.9142 2.84956C12.9374 2.84956 13.0251 2.76872 13.109 2.66997ZM10.9752 2.6086C10.9143 2.58267 10.8416 2.5859 10.8136 2.6157C10.7856 2.64551 10.8354 2.66683 10.9243 2.66296C11.0225 2.65862 11.0424 2.63748 10.9752 2.6086ZM21.0908 0.902119C21.0299 0.876186 20.9572 0.879324 20.9293 0.909133C20.9013 0.939034 20.951 0.96026 21.0399 0.956384C21.1381 0.952046 21.1581 0.930728 21.0908 0.902119ZM20.4164 0.812231C20.3556 0.786299 20.2828 0.789529 20.255 0.819337C20.2269 0.849146 20.2767 0.870372 20.3656 0.866404C20.4637 0.862159 20.4837 0.840933 20.4164 0.812231ZM19.7474 0.724282C19.6895 0.699364 19.5946 0.699364 19.5366 0.724282C19.4787 0.749199 19.5261 0.769503 19.6419 0.769503C19.7579 0.769503 19.8053 0.749199 19.7474 0.724282ZM11.3967 0.632641C11.3358 0.606708 11.2631 0.609846 11.2351 0.639747C11.2071 0.669556 11.2569 0.690782 11.3458 0.686813C11.444 0.682568 11.4639 0.66125 11.3967 0.632641ZM18.7763 0.631718C18.6943 0.608923 18.5804 0.610492 18.5235 0.63504C18.4664 0.659681 18.5335 0.678323 18.6726 0.676385C18.8116 0.674539 18.8583 0.654513 18.7763 0.631718ZM13.002 0.539062C12.8505 0.519036 12.6229 0.519497 12.4963 0.539985C12.3696 0.560472 12.4936 0.576807 12.7717 0.576346C13.0499 0.575884 13.1536 0.559088 13.002 0.539062ZM17.4698 0.539062C17.3183 0.519036 17.0907 0.519497 16.9641 0.539985C16.8374 0.560472 16.9613 0.576807 17.2395 0.576346C17.5177 0.575884 17.6213 0.559088 17.4698 0.539062Z" fill="#E2E2E2"/>
<path id="Vector_2" d="M14.2133 35.7674C12.704 34.923 9.17807 31.581 7.3441 29.2565C2.67698 23.3409 0.348365 16.1931 0.0323059 6.81226C-0.046047 4.48791 0.0989236 3.88556 0.927365 3.09189C1.98566 2.07802 6.15381 0.817012 9.86348 0.388523C16.7527 -0.40736 23.3664 0.339704 28.0901 2.44745C29.4104 3.0367 29.9227 3.82105 29.9922 5.35947C30.0378 6.36872 29.888 9.38577 29.7121 11.0069C28.628 20.9923 24.707 28.551 17.54 34.4706C16.0381 35.7113 15.6804 35.9312 15.1052 35.968C14.7178 35.9926 14.5472 35.9541 14.2133 35.7674ZM16.1596 35.0967C18.8858 33.1259 21.6952 30.2085 23.7284 27.237C26.4192 23.3045 28.1933 18.643 29.0788 13.1789C29.598 9.97456 29.8182 5.35541 29.5048 4.24178C29.3201 3.58618 28.7517 3.11653 27.5148 2.59797C23.9112 1.08723 18.9805 0.30851 13.9519 0.45617C9.37863 0.590447 5.68528 1.28066 2.51737 2.59308C1.61172 2.96822 1.38178 3.10518 0.987983 3.50349C0.534012 3.96271 0.522277 3.98735 0.418777 4.69491C0.296747 5.52947 0.409953 8.74955 0.63513 10.8435C1.72837 21.0128 5.72366 28.5965 13.1148 34.5318C14.2736 35.4624 14.5692 35.6336 15.017 35.6336C15.3666 35.6336 15.5103 35.566 16.1596 35.0967ZM14.161 35.1703C13.7683 34.9159 12.6607 34.0212 11.8024 33.265C7.21413 29.2234 4.05213 24.3043 2.23572 18.3824C1.53707 16.1045 1.01119 13.4264 0.71913 10.6585C0.577777 9.31868 0.411188 5.47723 0.475953 5.05013C0.578747 4.37209 0.582277 4.36526 0.770571 4.47269C1.03828 4.62533 1.15784 4.44454 0.980218 4.15559C0.870806 3.97775 0.859335 3.88426 0.929924 3.74399C1.39139 2.82518 5.61495 1.41974 9.39998 0.925449C11.2287 0.686703 12.6647 0.604475 15.0146 0.604291C19.5542 0.603921 22.9784 1.10864 26.2595 2.26195C27.7423 2.78319 28.6363 3.20005 28.8755 3.48189C29.0247 3.65742 29.0251 3.67662 28.8839 3.93124C28.6993 4.26412 28.7612 4.37652 29.1289 4.37652C29.4345 4.37652 29.4286 4.36637 29.5411 5.08178C29.6104 5.52273 29.4401 9.43496 29.2903 10.8435C28.5998 17.3354 26.6639 22.8661 23.4842 27.4319C21.6108 30.1218 18.7327 33.0917 16.1949 34.9539L15.5911 35.3969L15.4555 35.1907C15.3403 35.0156 15.2682 34.9919 14.9761 35.0336C14.787 35.0607 14.5902 35.1439 14.539 35.2188C14.4567 35.3384 14.4114 35.3326 14.161 35.1703ZM12.3442 23.9956C12.4925 23.8376 12.5216 23.5978 12.3924 23.5978C12.3461 23.5978 12.308 23.6375 12.308 23.6859C12.308 23.7344 12.2132 23.7994 12.0973 23.8304C11.8863 23.8867 11.8375 23.9646 11.9428 24.0768C12.0375 24.1778 12.2051 24.144 12.3442 23.9956V23.9956ZM10.1163 22.8291C10.1163 22.8074 10.0783 22.7895 10.032 22.7895C9.98569 22.7895 9.94766 22.8324 9.94766 22.8845C9.94766 22.9369 9.9856 22.9546 10.032 22.9242C10.0784 22.8937 10.1163 22.8509 10.1163 22.8291ZM16.0072 22.0675C15.8657 21.8225 15.7363 21.6219 15.7199 21.6219C15.7035 21.6219 15.7921 21.8379 15.9167 22.1021C16.0415 22.366 16.1708 22.5668 16.204 22.5478C16.2372 22.5287 16.1487 22.3126 16.0072 22.0675ZM17.408 20.5442C17.438 20.4925 17.3787 20.4639 17.2685 20.4768C17.1174 20.4944 17.0653 20.4425 17.0206 20.2297C16.9681 19.9783 16.9637 19.9756 16.9543 20.1893C16.9393 20.5358 17.2652 20.7907 17.408 20.5442ZM15.5033 19.1635C15.8827 19.0872 16.0172 18.9565 16.0172 18.6639C16.0172 18.4012 15.7719 17.9585 15.767 18.2124C15.7655 18.2885 15.5967 18.526 15.392 18.7402C15.1873 18.9544 15.0002 19.209 14.9764 19.3061C14.9375 19.4643 14.9478 19.4691 15.0747 19.352C15.1526 19.2801 15.3455 19.1953 15.5033 19.1636V19.1635ZM18.2068 19.0192C17.6485 18.9424 17.4547 18.8409 17.1643 18.4732C16.8028 18.0154 16.9025 17.4894 17.3938 17.2617L17.661 17.1378L17.3608 17.1343C16.4769 17.124 16.4626 18.4249 17.3413 18.9191C17.5654 19.0451 17.8124 19.0966 18.1668 19.091L18.6725 19.0832L18.2068 19.0192ZM20.5625 18.1637C20.5589 18.0649 20.5368 18.0346 20.5134 18.0965C20.4899 18.1582 20.3981 18.2087 20.3094 18.2087C20.2205 18.2087 20.1477 18.2391 20.1477 18.2761C20.1477 18.3131 20.2426 18.3433 20.3585 18.3433C20.5153 18.3433 20.5676 18.2974 20.5625 18.1637V18.1637ZM11.5881 17.6432C11.7291 17.4132 11.9331 17.1985 12.0417 17.166C12.2722 17.0974 12.8413 17.2718 13.1714 17.5123C13.5029 17.754 13.9327 17.8119 14.0716 17.6336C14.1331 17.5547 14.283 17.4887 14.4049 17.4872C14.6179 17.4844 14.6201 17.4793 14.4627 17.3525C14.3612 17.2706 14.1052 17.22 13.7884 17.2193C13.1684 17.2176 12.8977 17.0847 12.7256 16.6971L12.595 16.4031L12.4352 16.5913C12.2087 16.858 11.9408 16.7926 11.8857 16.4571L11.8415 16.1876L11.581 16.5918C11.2118 17.1645 11.0438 17.5376 11.0438 17.785C11.0436 18.2597 11.2418 18.208 11.5881 17.6432V17.6432ZM16.6705 16.5972C16.7568 16.5757 16.6605 15.9809 16.5249 15.6977C16.398 15.4324 16.2927 15.3358 16.0824 15.2915C15.2532 15.1168 15.0482 14.8499 15.1247 14.0436C15.1828 13.4296 15.1771 13.4151 14.7259 13.0569C14.549 12.9162 14.3627 12.7042 14.312 12.5858C14.1915 12.3039 14.07 12.3139 13.4904 12.6535C12.8105 13.0517 12.7477 13.1898 13.0569 13.608C13.1942 13.7937 13.3295 14.1122 13.3615 14.3241C13.3935 14.5373 13.4654 14.7058 13.5244 14.7058C13.68 14.7058 13.8255 15.1101 13.8255 15.5424C13.8255 15.862 13.8837 15.9923 14.1959 16.3726L14.5663 16.8238L15.608 16.7133C16.1808 16.6523 16.6588 16.6 16.6706 16.5972H16.6705ZM18.4993 15.9141C18.3851 15.5906 18.1768 14.853 18.0363 14.2748C17.8879 13.664 17.6201 12.8757 17.3969 12.3929C17.0324 11.6045 16.9266 11.4644 16.8265 11.637C16.7709 11.733 17.213 12.894 17.531 13.4877C17.6651 13.7378 17.8747 14.3666 17.9969 14.8854C18.125 15.4285 18.3114 15.9715 18.4363 16.1653C18.5556 16.3506 18.6654 16.5021 18.6802 16.5021C18.695 16.5021 18.6136 16.2374 18.4993 15.9141ZM16.5019 11.2635C16.0649 10.8823 16.2868 10.602 16.8207 10.8612C16.991 10.9439 17.0331 11.0179 17.0037 11.1823C16.979 11.3203 16.9943 11.3651 17.0469 11.3089C17.1983 11.1477 17.073 10.8895 16.7658 10.7294C16.2134 10.4417 15.93 10.7805 16.3628 11.2111C16.5071 11.3548 16.6494 11.4707 16.6793 11.4691C16.7093 11.4672 16.6294 11.3747 16.5019 11.2635ZM20.0255 10.7117C20.0928 10.5404 20.1476 10.308 20.1473 10.1952C20.147 9.92048 19.8656 9.44336 19.6254 9.3101L19.4312 9.2024L19.6103 9.4165C20.0028 9.88615 20.0758 10.2939 19.8506 10.7581C19.7709 10.9224 19.7565 11.0229 19.8126 11.0229C19.8626 11.0231 19.9584 10.8829 20.0255 10.7117ZM13.8411 8.59552C13.4676 8.3528 13.4939 8.01679 13.9097 7.71852C14.1461 7.54889 14.2926 7.51272 14.6473 7.53579C14.9491 7.55581 15.09 7.53099 15.09 7.45799C15.0899 7.39893 15.27 7.29003 15.4903 7.21564L15.8907 7.08026L15.3849 7.12732C14.6105 7.19958 14.0608 7.39468 13.7028 7.72442C13.4281 7.97747 13.3863 8.06127 13.4339 8.26384C13.465 8.39581 13.5942 8.56368 13.7211 8.63705C14.067 8.83694 14.1621 8.80409 13.8411 8.59552ZM2.77051 6.37519C2.74245 4.61112 2.74342 4.60069 2.93101 4.51256C3.21151 4.38058 3.15945 4.28138 2.86678 4.39009L2.61389 4.48404V6.31658C2.61389 7.58544 2.64231 8.14903 2.70628 8.14903C2.77113 8.14903 2.79028 7.61977 2.77051 6.37519ZM16.6776 8.07031C16.7649 8.01125 16.7549 7.98449 16.633 7.95053C16.5465 7.92644 16.4281 7.96123 16.3697 8.02786C16.2832 8.12652 16.2914 8.14876 16.4143 8.14765C16.4973 8.14691 16.6157 8.11212 16.6776 8.07031ZM27.125 4.47509C27.2545 4.52704 27.3182 4.53027 27.2708 4.48219C27.2245 4.43513 27.1012 4.36933 26.9969 4.33573L26.8072 4.27473L26.8265 6.14447L26.8458 8.01439L26.8704 6.19846L26.895 4.38252L27.125 4.47509ZM4.25772 7.13895C4.31287 7.08137 4.26919 7.07371 4.13128 7.1168C3.80172 7.21961 3.37263 7.41674 3.37263 7.46537C3.37263 7.53117 4.16031 7.24074 4.25772 7.13895ZM5.0664 5.419C5.42516 3.76448 5.44078 3.71889 5.68898 3.60362L5.94363 3.48549L5.72216 3.48199C5.6004 3.48005 5.46266 3.52896 5.41625 3.5907C5.33234 3.70227 4.54784 7.15206 4.55807 7.36432C4.56945 7.59928 4.71178 7.05451 5.06631 5.41891L5.0664 5.419ZM25.5529 7.01058C25.4537 6.82841 25.4297 6.88673 25.511 7.11256C25.5398 7.19285 25.5813 7.23964 25.603 7.21647C25.6247 7.19331 25.6023 7.10075 25.553 7.01058H25.5529ZM24.404 3.59015C24.5175 3.61322 24.5902 3.59753 24.5659 3.55526C24.5413 3.51299 24.4287 3.47848 24.3155 3.47848H24.1097L24.1289 5.29727L24.1482 7.11616L24.1729 5.33206L24.1976 3.54806L24.404 3.59015ZM6.19184 6.582C6.16007 6.40186 6.11507 6.27459 6.09204 6.29932C6.06901 6.32406 6.07581 6.49174 6.10757 6.67198C6.13925 6.85222 6.18425 6.97948 6.20728 6.95475C6.23031 6.93001 6.2236 6.76224 6.19184 6.582ZM7.2766 4.99217C7.2924 3.26363 7.29354 3.25348 7.4821 3.22515C7.5864 3.20937 7.67172 3.15409 7.67172 3.10241C7.67172 3.0487 7.59037 3.03153 7.48201 3.06245C7.37781 3.09226 7.26398 3.11717 7.22922 3.11782C7.19445 3.11856 7.16604 3.9544 7.16604 4.97537C7.16604 5.99635 7.1874 6.80893 7.21342 6.78116C7.23937 6.75338 7.26787 5.94836 7.2766 4.99217ZM23.2475 3.27305C23.4594 3.23872 23.456 3.23475 23.2036 3.22229L22.9296 3.20882L22.9488 5.02761L22.9681 6.84649L22.9927 5.07827L23.0174 3.31024L23.2475 3.27305ZM8.1856 5.772C8.06701 5.40599 7.95681 5.12073 7.94066 5.13798C7.92443 5.15524 7.99854 5.49403 8.1054 5.89095C8.21216 6.28779 8.32237 6.57323 8.35034 6.52497C8.37831 6.4767 8.30419 6.1381 8.1856 5.772ZM21.8113 5.38716C21.794 5.15247 21.7798 5.34443 21.7798 5.8138C21.7798 6.28308 21.794 6.47504 21.8113 6.24045C21.8287 6.00576 21.8287 5.62175 21.8113 5.38716ZM9.1891 5.48434C9.1891 4.95738 9.17525 4.54319 9.15822 4.56368C9.08587 4.65135 9.04254 6.44237 9.11269 6.44237C9.15478 6.44237 9.1891 6.0113 9.1891 5.48434ZM10.3692 4.51154V2.77091L10.7473 2.71056C10.9552 2.67733 11.2587 2.66672 11.4216 2.68693C11.5846 2.70724 11.6859 2.6897 11.6466 2.64799C11.6076 2.60637 11.2757 2.58412 10.9092 2.59871L10.2429 2.62519L10.22 4.49539C10.2048 5.75031 10.2255 6.34685 10.2833 6.30883C10.337 6.27348 10.3692 5.5985 10.3692 4.51154ZM20.5498 2.84068L20.78 2.83173L20.5691 2.76492C20.4532 2.72828 20.33 2.71443 20.2952 2.73428C20.2604 2.75412 20.2407 3.58645 20.2511 4.58389L20.2704 6.39733L20.2951 4.62348L20.3198 2.84945L20.5499 2.84068H20.5498ZM25.9458 4.04937C26.1698 4.09846 26.1692 4.09689 25.9221 3.9772L25.6693 3.85464L25.6271 4.9464C25.6038 5.54691 25.6038 6.09879 25.6271 6.17289C25.6502 6.247 25.6798 5.78824 25.6929 5.1534L25.7165 3.99916L25.9458 4.04937ZM13.0354 5.81103C12.775 5.48138 12.6895 5.07846 12.698 4.22231C12.7054 3.48789 12.9027 2.82952 13.1768 2.62482C13.276 2.5509 13.5099 2.48907 13.6965 2.48768C13.9767 2.48547 14.0092 2.4683 13.8825 2.38968C13.6713 2.25881 13.3231 2.36707 13.0437 2.65029C12.4496 3.25247 12.3896 5.2168 12.9457 5.85625C13.2234 6.17557 13.2949 6.13958 13.0354 5.81103ZM16.0113 2.50374C16.3771 2.52128 16.6323 2.50605 16.5785 2.4696C16.5247 2.43314 16.2057 2.40269 15.8697 2.40204L15.2585 2.40057L15.2777 4.2643L15.297 6.12804L15.3216 4.29974L15.3462 2.47144L16.0113 2.50374ZM16.565 5.54432C16.486 5.2909 16.4024 5.10384 16.3792 5.12848C16.3561 5.15321 16.4018 5.3807 16.4807 5.63412C16.5597 5.88754 16.6433 6.07461 16.6664 6.04997C16.6897 6.02523 16.6441 5.79784 16.565 5.54432ZM11.5558 5.6726C11.7555 5.48018 11.7726 4.93274 11.5869 4.68569C11.4603 4.51735 11.4588 4.51809 11.5447 4.70756C11.7655 5.19446 11.5534 5.72262 11.1359 5.72521C11.0156 5.72604 10.8603 5.7695 10.7907 5.82211C10.6962 5.89363 10.7564 5.90655 11.0291 5.87342C11.2296 5.84896 11.4667 5.75852 11.5558 5.6726ZM17.9011 5.6116C17.7118 5.22621 17.6467 3.96861 17.7883 3.42984C17.933 2.87926 18.2985 2.5533 18.7228 2.59649C18.896 2.61403 19.0196 2.59741 18.9976 2.55948C18.9756 2.52155 18.8052 2.49045 18.6189 2.49045C18.2023 2.49045 17.8482 2.82629 17.7116 3.35075C17.5594 3.93438 17.5984 5.08344 17.7852 5.52181C17.8746 5.73167 17.9696 5.90351 17.9962 5.90351C18.0229 5.90351 17.98 5.77218 17.9011 5.6116ZM5.88654 5.73564C5.97822 5.67371 5.97478 5.58216 5.86713 5.22058L5.73619 4.78083L5.78384 5.19031C5.82645 5.55604 5.81048 5.61068 5.63472 5.70066C5.45595 5.7923 5.4534 5.80208 5.60648 5.80633C5.69913 5.80891 5.82522 5.77707 5.88654 5.73564ZM19.1332 5.64003C19.1812 5.54451 19.2199 5.413 19.2193 5.34812C19.2186 5.28324 19.1692 5.33096 19.1095 5.45444C19.0218 5.63587 18.9415 5.67703 18.6914 5.66891C18.5213 5.66337 18.4023 5.69383 18.427 5.73628C18.5172 5.89215 19.0425 5.82054 19.1332 5.64003ZM14.0993 5.36464C14.2049 5.13937 14.2467 4.8339 14.2467 4.28673C14.2467 3.32685 14.083 2.90814 13.6917 2.86754C13.5372 2.85139 13.3894 2.89486 13.3272 2.97441C13.2359 3.0918 13.256 3.09521 13.4894 3.00145C13.7297 2.90501 13.7712 2.9147 13.9124 3.10047C14.2179 3.50229 14.2426 4.94916 13.952 5.42167C13.8417 5.60099 13.757 5.64363 13.5695 5.61437C13.4369 5.59361 13.3489 5.61206 13.3741 5.65525C13.3992 5.69854 13.5395 5.72152 13.6857 5.70638C13.8935 5.68506 13.9842 5.61012 14.0993 5.36464ZM9.16007 2.93869C9.19916 2.89929 9.30707 2.8477 9.39981 2.82389C9.51319 2.79491 9.48231 2.77728 9.30531 2.77027L9.04228 2.75993L8.77793 3.72544C8.6326 4.25655 8.51604 4.75167 8.51887 4.82578C8.52178 4.89988 8.65122 4.52169 8.80651 3.9855C8.96181 3.44913 9.12098 2.9781 9.16007 2.93869ZM19.2469 4.4426L19.6842 4.40993L19.1994 4.39323C18.7205 4.3768 18.7149 4.37966 18.7262 4.62367C18.7357 4.82855 18.7438 4.83704 18.7737 4.67304C18.8042 4.50536 18.8758 4.47047 19.2469 4.4426ZM12.0165 4.47241C11.9859 4.41971 11.9206 4.37662 11.8713 4.37662C11.8154 4.37662 11.8218 4.4282 11.8882 4.51348C12.0038 4.66197 12.1072 4.62884 12.0165 4.47241ZM21.8336 3.73817V3.00994L22.0655 3.06715C22.2374 3.10988 22.2647 3.10112 22.1709 3.03347C22.1012 2.98336 21.978 2.94174 21.8969 2.94091C21.7685 2.93971 21.7494 3.03319 21.7494 3.6589V4.37818L21.3068 4.34293C20.9623 4.31543 20.9296 4.32235 21.1593 4.37431C21.8537 4.5312 21.8337 4.55002 21.8337 3.73817H21.8336ZM11.4699 4.03137C11.7099 3.82428 11.7282 3.35491 11.5049 3.13729C11.361 2.99702 11.3569 2.99692 11.4545 3.13563C11.5918 3.33082 11.5445 3.84421 11.3809 3.93336C11.3112 3.9712 11.1216 4.04189 10.9594 4.09043L10.6643 4.17857L10.9711 4.1878C11.1545 4.19333 11.3549 4.13039 11.4699 4.03137ZM16.6073 3.92755C16.8089 3.7127 16.8275 3.27683 16.6434 3.08063C16.4518 2.87649 16.408 2.90741 16.5604 3.13914C16.8535 3.58507 16.6691 3.9198 16.0732 4.02353L15.7222 4.08471L16.0805 4.09579C16.3363 4.10391 16.4869 4.05592 16.6073 3.92755ZM19.1029 3.32307C19.0748 3.29326 19.0549 3.34632 19.0586 3.44092C19.0625 3.54557 19.0824 3.56689 19.1094 3.49527C19.1338 3.4304 19.1308 3.35306 19.1029 3.32307Z" fill="#E2E2E2"/>
<path id="Vector_3" d="M14.2879 35.7866C13.274 35.2714 10.6204 32.9337 8.85045 30.9969C4.02151 25.7119 1.32698 19.4605 0.338126 11.2476C0.206656 10.1561 0.00168508 6.87248 0.000979193 5.84542C-0.000344336 4.18056 0.497656 3.16504 1.5848 2.61537C2.74916 2.02677 5.08466 1.2606 6.87054 0.881484C9.99036 0.218863 14.3577 -0.0746098 17.6605 0.156292C21.3609 0.414881 24.1461 0.958821 26.8295 1.94703C28.7466 2.65303 29.3212 3.06075 29.7477 4.01703C29.9662 4.50735 29.9677 4.52636 29.9522 6.48718C29.8881 14.5438 27.8883 21.6505 24.0942 27.3035C22.3114 29.9601 19.7841 32.6724 17.0618 34.8512C15.6073 36.0152 15.0848 36.1914 14.288 35.7865L14.2879 35.7866ZM16.1217 35.1557C18.1086 33.7424 21.2365 30.6619 22.7956 28.5826C24.4677 26.3527 26.246 23.1344 27.1383 20.7235C28.5097 17.0172 29.2789 13.2237 29.5875 8.64292C29.6907 7.11308 29.6952 4.99103 29.5963 4.53781C29.5468 4.31013 29.5536 4.19441 29.6177 4.17161C29.7412 4.12768 29.4566 3.65803 29.3065 3.65803C29.246 3.65803 29.1047 3.55283 28.9923 3.42455C28.1992 2.51875 24.119 1.24648 20.4003 0.745453C17.698 0.381565 13.152 0.335975 10.4532 0.645968C6.30319 1.12254 1.87713 2.43818 0.977832 3.46257C0.843273 3.61595 0.705185 3.723 0.671215 3.70067C0.235332 3.41366 0.240626 7.6836 0.680656 11.3824C1.64683 19.5054 4.41768 25.7911 9.35374 31.0584C11.0944 32.9157 13.2111 34.7822 14.3495 35.4636C14.9607 35.8295 15.2435 35.7803 16.1217 35.1557ZM14.5299 34.704C14.3382 34.5851 13.7911 34.1729 13.3143 33.7881C12.8375 33.4033 12.3973 33.0886 12.3364 33.0886C12.2754 33.0886 12.1017 32.9712 11.9504 32.8276L11.6754 32.5667L11.9915 32.8083C12.4166 33.1331 12.3935 33.0424 11.9557 32.6676C11.7621 32.5019 11.6316 32.4143 11.6657 32.4729C11.806 32.715 11.5607 32.554 11.25 32.2002C11.0667 31.9915 11.0116 31.9003 11.1275 31.9975C11.2434 32.0946 10.7112 31.4873 9.94483 30.6478C8.59377 29.1681 7.30183 27.5398 6.45336 26.2474C5.96983 25.511 5.84224 25.3533 5.98077 25.6636L6.0811 25.8882L5.90833 25.6636C5.8133 25.5401 5.75348 25.3865 5.77527 25.3221C5.79716 25.2579 5.77907 25.2288 5.73522 25.2577C5.65086 25.3133 5.37213 24.8203 5.4443 24.7433C5.46751 24.7186 5.2996 24.3322 5.07151 23.8846C4.46639 22.698 3.99998 21.648 3.45813 20.2522C3.19448 19.5729 2.95607 19.0414 2.92827 19.0709C2.90057 19.1004 2.89757 19.0297 2.92157 18.9137C2.95016 18.7759 2.93921 18.7414 2.89016 18.8144C2.78357 18.9728 2.49892 18.0994 2.56986 17.8314C2.61398 17.6648 2.60621 17.651 2.52963 17.7597C2.45569 17.8646 2.44624 17.8248 2.4871 17.5801C2.52848 17.3317 2.51904 17.2939 2.4421 17.4005C2.35951 17.5147 2.35227 17.5102 2.39463 17.3712C2.42198 17.2809 2.35201 16.8161 2.23889 16.3383C1.69051 14.0219 1.11874 9.89978 1.09051 8.05939C1.0861 7.77625 1.0651 7.70759 1.0201 7.83005C0.960626 7.99202 0.951803 7.9887 0.900715 7.7852C0.870362 7.66431 0.845038 7.35321 0.844421 7.09388C0.842656 6.37912 0.677479 6.47113 0.562244 7.25104C0.543979 7.37462 0.524479 6.86935 0.518832 6.12837C0.513185 5.3874 0.536479 4.74065 0.570538 4.69128C0.604597 4.64191 0.745773 4.60139 0.884215 4.60139C1.18757 4.60139 1.24907 4.40731 1.06827 4.02118C0.950215 3.76905 0.955332 3.74284 1.16745 3.51351C1.38292 3.28049 2.17713 2.84646 2.61345 2.72335C2.8171 2.66585 2.8163 2.66853 2.59227 2.80456C2.46486 2.88208 2.36057 2.98471 2.36057 3.03251C2.36057 3.14381 2.35827 3.14409 2.78207 2.98471C3.20913 2.82413 3.31766 2.81582 3.24001 2.94945C3.20242 3.01433 3.23736 3.03048 3.34051 2.99587C5.1548 2.38742 6.70819 1.98136 8.34566 1.68697C9.12116 1.54761 9.66195 1.41343 9.56798 1.38371C9.47524 1.35436 9.58907 1.35049 9.82086 1.37522C10.1428 1.40955 10.2125 1.39645 10.1159 1.32012C10.0197 1.24408 10.1 1.23061 10.453 1.26429C10.708 1.28856 11.7323 1.2737 12.7291 1.23107C16.09 1.08784 17.4924 1.05655 17.3875 1.12724C17.3301 1.16591 17.846 1.24694 18.534 1.3072C20.0622 1.44121 22.3912 1.79559 23.6516 2.08592C24.1666 2.20451 24.6794 2.28 24.7912 2.25352C24.9573 2.2142 24.9712 2.22445 24.8679 2.30907C24.7637 2.39435 24.7735 2.40302 24.924 2.35798C25.142 2.29311 25.5584 2.38982 25.4993 2.49171C25.4764 2.5313 25.5395 2.54081 25.6396 2.51284C25.772 2.47593 25.8035 2.493 25.7556 2.57578C25.7065 2.66041 25.738 2.67305 25.8793 2.62525C26.0007 2.58418 26.0499 2.59424 26.0157 2.65312C25.9851 2.70591 26.1512 2.81158 26.4057 2.90119C27.2472 3.19743 28.1983 3.67031 28.4368 3.91081C28.9375 4.41562 28.9578 4.52082 28.9391 6.51118C28.9245 8.05505 28.7612 10.7991 28.617 11.9215C28.5717 12.2745 28.5972 12.2141 28.8448 11.3826C28.9405 11.0616 29.0515 10.755 29.0915 10.7015C29.1316 10.6479 29.2008 10.3852 29.2453 10.1177C29.3223 9.65614 29.3242 9.66583 29.2821 10.3047C28.9872 14.7883 27.5307 20.1264 25.5741 23.8958C23.909 27.1035 21.5028 30.2791 19.1345 32.3945L18.5877 32.8829L18.9712 32.4394C19.1821 32.1955 19.4165 31.8491 19.492 31.6696C19.5675 31.4902 19.7534 31.1869 19.9051 30.9959L20.1809 30.6486L19.8901 30.923C19.7302 31.0738 19.3527 31.4351 19.0513 31.7257C18.3925 32.3611 16.6854 33.8197 15.9174 34.4037C15.2181 34.9351 14.9846 34.9858 14.53 34.7039L14.5299 34.704ZM12.392 24.0468C12.7495 23.6659 12.5344 23.396 12.1198 23.7056C11.9681 23.819 11.8292 23.9207 11.811 23.9321C11.7426 23.9748 11.996 24.2265 12.1073 24.2265C12.1711 24.2265 12.2992 24.1457 12.392 24.0468ZM10.1679 22.6965C10.1749 22.55 10.1534 22.4301 10.1202 22.4301C10.0058 22.4301 9.8408 22.8675 9.89666 23.0229C9.97757 23.2474 10.1518 23.0377 10.1679 22.6965ZM16.3451 22.6425C16.4997 22.5604 16.5154 22.5233 16.4211 22.4622C16.3558 22.4197 16.2217 22.2437 16.1231 22.0709C15.9005 21.6808 15.5931 21.3246 15.5337 21.3879C15.5092 21.414 15.6128 21.6404 15.7636 21.891C15.99 22.267 16.0302 22.408 15.9939 22.697C15.9451 23.0842 16.031 23.2845 16.1042 22.9543C16.1297 22.8397 16.238 22.6993 16.3451 22.6424V22.6425ZM20.8204 22.4975C20.8197 22.4357 20.7865 22.3303 20.7467 22.2634C20.654 22.1076 20.532 22.2883 20.6009 22.4793C20.6583 22.6389 20.8221 22.6525 20.8205 22.4975H20.8204ZM17.4497 20.5375C17.4497 20.4951 17.3738 20.4172 17.2812 20.3643C17.1885 20.3114 17.1126 20.2089 17.1126 20.1366C17.1126 20.0643 17.0747 20.005 17.0283 20.005C16.8838 20.005 16.9334 20.5287 17.0864 20.6199C17.2395 20.7111 17.4497 20.6635 17.4497 20.5375ZM10.8132 19.2865L10.8591 18.7924L10.7287 19.1068C10.6569 19.2796 10.5845 19.6232 10.5679 19.8702C10.5381 20.3122 10.5395 20.315 10.6525 20.0498C10.7157 19.9018 10.7879 19.5582 10.8132 19.2865ZM15.2409 19.8568C15.262 19.7051 15.3282 19.6787 15.6745 19.6842C16.1472 19.6916 16.3977 19.5079 16.4838 19.0902C16.5257 18.8873 16.496 18.774 16.3616 18.6214C16.2641 18.5109 16.0372 18.1069 15.8577 17.7237C15.4879 16.9349 15.5027 16.9014 16.1889 16.9718C16.4187 16.9954 16.6068 16.9866 16.6068 16.9524C16.6068 16.8346 17.0369 16.6817 17.3687 16.6817C17.6099 16.6817 17.7301 16.731 17.8065 16.8613C17.8644 16.96 17.9691 17.0397 18.0391 17.0382C18.14 17.0361 18.1358 17.0165 18.0188 16.944C17.7565 16.7812 17.8625 16.6724 18.1365 16.8231C18.3409 16.9358 18.3747 16.9873 18.284 17.0486C18.1978 17.1067 18.2228 17.1276 18.3771 17.1268C18.5876 17.1255 18.5876 17.1251 18.3126 16.8587C18.1025 16.655 17.9565 16.5918 17.6959 16.5918C17.5082 16.5918 17.2812 16.55 17.1915 16.4989C16.9915 16.3848 16.9656 16.0979 17.1627 16.1783C17.2365 16.2085 17.3978 16.2561 17.521 16.2841L17.745 16.3349L17.5341 16.1374C17.4184 16.0288 17.2191 15.9008 17.0916 15.8529C16.8136 15.7485 16.7892 15.536 17.0436 15.4357C17.2168 15.3674 17.2132 15.36 16.9804 15.3086C16.8218 15.2736 16.6805 15.1532 16.5859 14.9726C16.4559 14.7246 16.4079 14.6983 16.1821 14.7511C15.8941 14.8185 15.5111 14.6118 15.5111 14.3891C15.5111 14.3162 15.5909 14.1713 15.6886 14.0674L15.8661 13.8782L15.7032 13.3263C15.5474 12.798 15.5206 12.7643 15.0739 12.535C14.3817 12.1797 14.3578 11.8829 14.9847 11.429C15.3641 11.1543 15.6615 11.1434 16.1109 11.3876C16.4756 11.5859 16.6912 11.9788 16.6912 12.445C16.6912 12.6186 16.8432 12.9246 17.1492 13.3666C17.6244 14.0529 17.8212 14.5769 17.7729 15.0273C17.75 15.2408 17.6979 15.2968 17.492 15.3295C17.2696 15.3647 17.2849 15.3755 17.6185 15.4194C17.9356 15.4609 18.0189 15.5142 18.1269 15.7442C18.3004 16.1138 18.7122 16.664 18.7133 16.5277C18.7138 16.4678 18.6352 16.2051 18.5386 15.9439C18.442 15.6828 18.232 14.9435 18.0721 14.3014C17.9041 13.6266 17.6313 12.8136 17.426 12.3754C17.2304 11.9581 17.0579 11.5844 17.0424 11.5445C17.027 11.5046 17.092 11.4721 17.187 11.4721C17.4664 11.4721 17.9412 11.9912 18.3014 12.6908C18.656 13.379 18.9415 13.6571 19.2462 13.6109C19.4053 13.5867 19.4287 13.5313 19.4157 13.2099C19.3983 12.7787 19.1229 12.1498 18.881 11.9889C18.6354 11.8254 18.6771 11.7415 19.0044 11.7415C19.2955 11.7415 19.4622 11.6209 19.31 11.5206C19.2651 11.4911 18.9464 11.3901 18.6018 11.2962C18.2571 11.2022 17.5913 10.9379 17.1221 10.7089C16.6046 10.4561 16.2072 10.3134 16.1113 10.3458C16.0244 10.3751 15.7485 10.5901 15.4983 10.8234C14.8071 11.4675 14.2607 11.8679 13.6565 12.1723C12.6425 12.6832 12.434 13.0428 12.1902 14.701C12.1143 15.2174 12.0217 15.6619 11.9845 15.689C11.8262 15.8044 11.0286 16.994 10.9146 17.2846C10.7646 17.6668 10.759 17.8572 10.8882 18.1593C11.0101 18.4445 11.3212 18.4636 11.4967 18.1966C11.6917 17.8999 11.888 18.0369 11.8284 18.4282C11.7966 18.6362 11.813 18.7473 11.8752 18.7473C12.0245 18.7473 12.3105 18.4028 12.4442 18.0619C12.6042 17.6539 12.7596 17.6042 13.148 17.8367C13.5528 18.0792 14.0267 18.0848 14.3064 17.8504C14.4235 17.7523 14.5501 17.6922 14.5878 17.7171C14.6795 17.7776 14.7944 17.5773 14.7944 17.3568C14.7944 17.1146 15.0565 17.0768 15.17 17.3028C15.2379 17.4382 15.2348 17.5319 15.1578 17.6633C15.0087 17.9179 15.1445 18.0051 15.4239 17.8342L15.663 17.688L15.6987 18.0141C15.7308 18.3069 15.6932 18.3833 15.3317 18.7584C14.8865 19.2204 14.7658 19.5435 14.9113 19.8838C15.0207 20.1394 15.2034 20.1244 15.2409 19.8568ZM11.9705 17.9781C11.9705 17.7112 12.1081 17.4002 12.2262 17.4002C12.343 17.4002 12.3268 17.9724 12.2064 18.1007C12.0484 18.2693 11.9705 18.2289 11.9705 17.9781ZM13.1075 16.8024C13.0307 16.7207 12.9336 16.5581 12.892 16.4409C12.781 16.1299 12.5836 16.0884 12.3458 16.3264C12.0969 16.5755 12.0003 16.5079 12.1205 16.1681C12.169 16.0306 12.2542 15.538 12.3097 15.0731C12.4679 13.7459 12.8274 13.5271 13.1153 14.5827C13.1877 14.8479 13.301 15.1228 13.3673 15.1933C13.4336 15.2638 13.4877 15.4837 13.4877 15.6818C13.4877 15.9731 13.5523 16.1217 13.825 16.457C14.0105 16.6856 14.162 16.8899 14.162 16.9117C14.162 16.9336 13.9563 16.9512 13.7045 16.9512C13.3911 16.9512 13.203 16.9041 13.1075 16.8024ZM16.4803 11.1595C16.2773 10.9812 16.2508 10.921 16.3462 10.8538C16.5797 10.6896 17.0982 11.0494 16.9333 11.2612C16.8065 11.4242 16.7734 11.4167 16.4803 11.1595ZM18.9813 19.0379C19.0637 18.9502 18.9582 18.9271 18.4741 18.9271C17.552 18.9271 17.1126 18.6062 17.1126 17.9332C17.1126 17.1926 17.9981 16.9882 18.2233 17.6768C18.2705 17.8211 18.3448 17.9394 18.3882 17.9394C18.4346 17.9394 18.4311 17.8674 18.38 17.7656C18.2375 17.4817 18.2776 17.401 18.5667 17.3899C18.7716 17.382 18.7277 17.3594 18.3922 17.2999C18.1457 17.2562 17.873 17.1801 17.7867 17.1307C17.4425 16.9345 16.8666 17.0649 16.6305 17.3927C16.3345 17.8033 16.6795 18.6527 17.2811 18.9948C17.6022 19.1774 17.7536 19.2056 18.2689 19.1795C18.6037 19.1624 18.9242 19.0988 18.9813 19.0379ZM20.6882 18.4659C20.6555 18.4098 20.6249 18.2817 20.6201 18.1813C20.615 18.081 20.5583 17.9802 20.4939 17.9574C20.4228 17.9322 20.4 17.9557 20.4357 18.0173C20.4717 18.0795 20.4308 18.1188 20.33 18.1188C20.2395 18.1188 20.1436 18.1793 20.1169 18.2535C20.0807 18.3541 20.1303 18.3882 20.3136 18.3882C20.4485 18.3882 20.5823 18.4287 20.611 18.478C20.6397 18.5274 20.6821 18.5679 20.7051 18.5679C20.7284 18.5679 20.7207 18.522 20.6882 18.4659ZM20.3489 16.1806C20.412 16.0056 20.318 15.3345 20.2307 15.3345C20.0966 15.3345 20.0004 16.136 20.1192 16.2626C20.2115 16.3609 20.2947 16.3312 20.3489 16.1806ZM11.6352 15.6798C11.8196 15.3757 11.97 15.0826 11.9695 15.0285C11.9689 14.9745 11.8748 15.1048 11.7603 15.3183C11.6457 15.5317 11.473 15.8247 11.3762 15.9695C11.2794 16.1143 11.2227 16.2327 11.25 16.2327C11.2774 16.2327 11.4507 15.9838 11.6352 15.6798ZM20.6078 13.6981C20.5481 13.3213 20.4198 13.1809 20.3077 13.3694C20.1833 13.5787 20.2236 14.0683 20.3791 14.2375C20.5207 14.3915 20.5294 14.3906 20.5942 14.2174C20.6312 14.1181 20.6374 13.8845 20.6078 13.6981ZM12.1057 13.8318C12.0777 13.802 12.0578 13.855 12.0615 13.9496C12.0656 14.0543 12.0855 14.0755 12.1124 14.0039C12.1367 13.9391 12.1336 13.8617 12.1057 13.8318ZM12.7713 12.5501C12.8551 12.4512 12.905 12.3704 12.8816 12.3704C12.8585 12.3704 12.7709 12.4512 12.6869 12.5501C12.603 12.6488 12.5533 12.7297 12.5765 12.7297C12.5997 12.7297 12.6874 12.6488 12.7713 12.5501ZM20.1925 10.4533C20.3039 9.82087 19.7638 9.13139 19.05 8.99481C18.7579 8.93888 18.7583 8.93962 19.1351 9.15004C19.7983 9.52038 20.0968 10.3159 19.763 10.8237C19.6909 10.9335 19.6589 11.0704 19.6923 11.1278C19.7821 11.2825 20.1289 10.8149 20.1925 10.4533ZM15.1317 10.9332C15.2155 10.8345 15.2652 10.7536 15.242 10.7536C15.2187 10.7536 15.1312 10.8345 15.0473 10.9333C14.9634 11.032 14.9137 11.1129 14.9369 11.1129C14.9601 11.1129 15.0477 11.032 15.1317 10.9332ZM15.6795 10.4393C15.7372 10.3652 15.7655 10.3045 15.7423 10.3045C15.7191 10.3045 15.653 10.3652 15.5952 10.4393C15.5375 10.5134 15.5092 10.574 15.5325 10.574C15.5556 10.574 15.6218 10.5133 15.6795 10.4393ZM14.2044 8.72552C13.4765 8.44681 13.4401 7.92677 14.129 7.64649C14.4625 7.51074 14.6744 7.5148 15.0395 7.66403C15.1286 7.70058 15.1736 7.66957 15.1736 7.57248C15.1736 7.37868 15.505 7.2528 16.0432 7.24172C16.3886 7.23471 16.436 7.21764 16.2695 7.16088C15.4055 6.86602 13.811 7.33429 13.4477 7.98953L13.2932 8.26823L13.6 8.56789C13.8387 8.80091 13.9772 8.86598 14.2242 8.86108L14.5415 8.85481L14.2044 8.72552ZM2.78198 6.35688C2.78198 4.8562 2.80192 4.56724 2.90842 4.52378C3.01783 4.47902 3.03486 4.68334 3.03486 6.04098C3.03486 7.7841 3.00389 7.70879 3.62498 7.4753C4.03704 7.32026 4.13074 7.30983 4.13074 7.41836C4.13074 7.46118 3.84442 7.60746 3.49448 7.7434C3.14454 7.87943 2.87304 8.00641 2.89121 8.02579C2.9093 8.04508 3.21151 7.95077 3.56269 7.81621C4.12766 7.59961 4.20521 7.54249 4.23583 7.32017C4.27377 7.04423 4.2391 7.04331 3.63574 7.30651C3.09292 7.54323 3.10916 7.59029 3.13651 5.85853C3.15019 4.99407 3.15751 4.28669 3.15283 4.28678C3.14816 4.28678 3.02489 4.33127 2.87886 4.38544L2.61345 4.484V6.36666C2.61345 7.59906 2.64257 8.23021 2.69771 8.19394C2.74924 8.1598 2.78198 7.44771 2.78198 6.35688ZM16.7614 8.07028C16.8455 8.01343 16.8252 7.98067 16.6801 7.94034C16.5735 7.91062 16.4656 7.92188 16.4405 7.96544C16.4151 8.009 16.2621 8.0616 16.1003 8.08246C15.8637 8.11282 15.8887 8.12288 16.2274 8.13322C16.4592 8.14042 16.6994 8.11199 16.7614 8.07028ZM26.9087 6.20719L26.884 4.44487L27.1195 4.50689C27.3974 4.58007 27.2898 4.43001 26.9965 4.3356L26.8068 4.2746V6.122C26.8068 7.13799 26.8353 7.96941 26.8701 7.96941C26.9048 7.96941 26.9222 7.17638 26.9087 6.20719ZM25.2796 6.18319C24.9937 5.4341 24.7445 4.83737 24.7259 4.85703C24.7074 4.87696 24.8876 5.41342 25.1262 6.04937C25.365 6.68551 25.5953 7.30226 25.638 7.4203C25.6807 7.53824 25.7346 7.61466 25.7577 7.59011C25.7807 7.56556 25.5657 6.93247 25.2796 6.18319ZM5.09921 6.91226C5.17907 6.34516 5.2103 6.28618 5.46451 6.22168C5.58874 6.19011 5.75366 6.14443 5.83113 6.11997C5.94354 6.08444 5.99119 6.17442 6.0676 6.56692L6.16342 7.05826L6.41992 6.96302C6.71789 6.85227 6.73792 7.05706 6.21874 4.90963L5.85901 3.42187L5.5996 3.49348C5.35633 3.56076 5.33136 3.6082 5.19636 4.26279C5.11713 4.64643 4.92716 5.53044 4.77416 6.2273L4.49604 7.49422L4.7693 7.40489C5.01019 7.32598 5.04919 7.26775 5.09921 6.91226ZM4.83424 6.93247C4.8068 6.85624 4.80319 6.77374 4.82622 6.74928C4.84916 6.72464 4.88833 6.78712 4.91304 6.8879C4.96563 7.10191 4.90722 7.13495 4.83424 6.93247ZM4.89619 6.49466C4.89248 6.40007 4.91251 6.34691 4.94048 6.37681C4.96845 6.40671 4.97154 6.48414 4.9471 6.54892C4.92019 6.62063 4.90016 6.59931 4.89619 6.49466ZM5.06472 5.68641C5.06101 5.59172 5.08104 5.53866 5.10901 5.56856C5.13698 5.59846 5.14007 5.6758 5.11572 5.74068C5.0888 5.81229 5.06877 5.79097 5.06472 5.68641ZM5.40336 5.47673C5.40777 5.34089 5.45736 5.02766 5.51348 4.7807L5.61548 4.33164L5.72092 4.9518C5.80704 5.45865 5.80616 5.58582 5.71624 5.64663C5.50757 5.78756 5.39507 5.72656 5.40336 5.47673ZM5.14907 5.32704C5.14536 5.23245 5.1653 5.17929 5.19336 5.20919C5.22133 5.239 5.22424 5.31652 5.19998 5.38131C5.17307 5.45302 5.15313 5.4317 5.14907 5.32704ZM5.28027 4.7807C5.37574 4.17936 5.4841 3.9169 5.42869 4.42134C5.40151 4.66839 5.34424 4.93104 5.30136 5.00515C5.25045 5.093 5.24321 5.01465 5.28027 4.7807ZM5.48083 3.81511C5.47995 3.70944 5.54171 3.66025 5.66921 3.66505C5.79601 3.66966 5.81692 3.68904 5.73248 3.72337C5.66277 3.75161 5.57807 3.81917 5.5441 3.87352C5.50589 3.93443 5.48163 3.9121 5.48083 3.81511ZM24.2779 5.33203V3.59306L24.5097 3.63256C24.6909 3.66339 24.7138 3.6512 24.615 3.57664C24.5455 3.52403 24.4032 3.48047 24.299 3.47973L24.1092 3.47835V5.27472C24.1092 6.41243 24.1401 7.07109 24.1935 7.07109C24.2469 7.07109 24.2779 6.43154 24.2779 5.33203ZM7.5518 6.71172C7.64842 6.71172 7.67357 6.4834 7.68283 5.52168C7.68901 4.86709 7.71098 4.4326 7.73136 4.55608C7.79048 4.91397 8.27507 6.5696 8.34407 6.64989C8.37848 6.69012 8.43116 6.56867 8.46098 6.38041C8.4908 6.19214 8.64601 5.6135 8.80598 5.09485L9.09672 4.15168L9.04722 5.32806L8.99772 6.50435L9.25854 6.46365L9.51936 6.42286L9.54372 4.59115L9.56807 2.75943H9.3023C9.04571 2.75962 9.03019 2.78204 8.85072 3.4108C8.74854 3.76887 8.59924 4.33699 8.51913 4.6731L8.37327 5.28404L8.06445 4.25762C7.8946 3.6931 7.75563 3.18571 7.75563 3.13015C7.75563 3.01756 7.6388 3.00464 7.35522 3.08576C7.1663 3.13966 7.16551 3.14759 7.16551 4.98032C7.16551 6.62165 7.18007 6.8148 7.29892 6.76626C7.37216 6.73636 7.48598 6.71172 7.5518 6.71172ZM23.0309 5.03948L23.0062 3.27735L23.2206 3.33457C23.3385 3.36613 23.435 3.35533 23.435 3.31057C23.435 3.26581 23.3211 3.21146 23.1821 3.18958L22.9291 3.15008V4.9758C22.9291 5.97988 22.9575 6.80161 22.9924 6.8017C23.0271 6.8017 23.0444 6.00868 23.0309 5.03948ZM21.8111 5.25229C21.7941 4.99287 21.7801 5.20513 21.7801 5.72379C21.7801 6.24244 21.794 6.4547 21.811 6.19528C21.8282 5.93595 21.8283 5.51162 21.8111 5.25229ZM11.3858 6.16566C11.8454 6.04245 12.0761 5.72286 12.1208 5.14718C12.1542 4.71989 12.1332 4.63166 11.9535 4.44007C11.753 4.22643 11.7517 4.21646 11.9015 4.01943C12.1373 3.70916 12.1078 3.07755 11.8445 2.7969C11.6492 2.58889 11.5842 2.57477 10.9382 2.59885L10.2424 2.62497L10.2196 4.4757L10.1968 6.32651L10.6411 6.28628C10.8853 6.26413 11.2205 6.20995 11.3858 6.16566ZM10.706 5.13998V4.55617H11.03C11.4189 4.55617 11.6331 4.76917 11.6331 5.15557C11.6331 5.50959 11.4002 5.72379 11.0154 5.72379H10.706V5.13998ZM10.7395 3.98104C10.7152 3.91348 10.7072 3.68175 10.7217 3.46608C10.7454 3.11538 10.772 3.07109 10.9758 3.04608C11.3413 3.00123 11.549 3.17113 11.549 3.51536C11.549 3.86051 11.4492 3.96941 11.061 4.04785C10.8659 4.08735 10.7706 4.06751 10.7395 3.98104ZM20.4001 4.59059C20.4001 2.87295 20.4043 2.82976 20.5686 2.87562C20.6615 2.90146 20.7372 2.89067 20.7372 2.85163C20.7372 2.78813 20.4582 2.67435 20.2947 2.67121C20.2598 2.67047 20.2314 3.49856 20.2314 4.51123C20.2314 5.67884 20.2623 6.35235 20.3157 6.35235C20.3691 6.35235 20.4001 5.70533 20.4001 4.59059ZM25.9451 4.0616C26.1725 4.10766 26.1723 4.10682 25.9216 3.98131L25.6687 3.85479L25.6448 4.8921C25.6234 5.82576 25.6085 5.91261 25.4967 5.75932C25.3832 5.60354 25.3801 5.61193 25.4599 5.85843C25.645 6.4296 25.6693 6.36103 25.6922 5.20624L25.7157 4.01509L25.9451 4.0616ZM19.22 6.11859C19.3581 6.02815 19.3726 6.00259 19.2622 6.04402C19.1695 6.07881 18.9608 6.1376 18.7986 6.17461C18.5086 6.24087 18.5079 6.24198 18.7563 6.24918C18.8954 6.25305 19.1041 6.19436 19.22 6.11859ZM14.0618 5.99087C14.4001 5.77113 14.5751 5.35501 14.6397 4.61625C14.774 3.08567 14.1168 2.02667 13.2915 2.444C12.8679 2.6581 12.626 3.22225 12.5779 4.10821C12.4899 5.7272 13.1598 6.57689 14.0619 5.99087H14.0618ZM13.3253 5.46077C12.9785 5.09125 12.9738 3.55569 13.3182 3.16513C13.5753 2.8735 13.784 2.87904 13.9707 3.18248C14.0875 3.3725 14.1201 3.61346 14.1201 4.28669C14.1201 4.95993 14.0875 5.20089 13.9707 5.391C13.795 5.67654 13.5524 5.70274 13.3253 5.46077ZM17.1126 5.98957C17.1126 5.94934 17.0035 5.58785 16.87 5.18621L16.6275 4.45604L16.8274 4.3165C17.28 4.00042 17.2663 2.97234 16.8042 2.58492C16.6246 2.4344 16.4622 2.40034 15.9211 2.40034H15.258V6.08306H15.4687C15.6778 6.08306 15.6795 6.07706 15.6795 5.27463V4.46619L15.9114 4.46711C16.1302 4.46822 16.1566 4.51492 16.3837 5.3036C16.621 6.12819 16.6272 6.13843 16.8684 6.10078C17.0027 6.07983 17.1126 6.02972 17.1126 5.98957ZM16.7495 5.9258C16.7299 5.8888 16.6107 5.525 16.4848 5.11737L16.2558 4.37649H15.9255C15.7171 4.37649 15.5955 4.33496 15.596 4.26417C15.5965 4.1897 15.7538 4.14697 16.063 4.13746C16.3195 4.12944 16.5809 4.07729 16.6441 4.02146C16.9565 3.74534 16.852 3.04626 16.4707 2.86123C16.2205 2.73978 15.7084 2.72713 15.6425 2.84074C15.6166 2.88531 15.5881 3.36927 15.5789 3.91616C15.57 4.46305 15.5414 4.88794 15.5157 4.86063C15.4899 4.83312 15.4497 4.30875 15.4265 3.69522L15.3844 2.57966L15.9769 2.57984C16.666 2.58003 16.8851 2.70166 17.0285 3.16439C17.1601 3.58974 17.0658 3.97273 16.7681 4.22098L16.5207 4.42715L16.769 5.21012C16.9584 5.80694 16.9899 5.99299 16.9014 5.99299C16.8376 5.99326 16.7693 5.96299 16.7495 5.9258ZM15.714 3.89355C15.6896 3.82553 15.6813 3.57285 15.6955 3.33217C15.7207 2.91125 15.7321 2.89343 15.9943 2.86649C16.5387 2.81047 16.9199 3.56676 16.5038 3.8774C16.2708 4.05127 15.7745 4.06133 15.714 3.89355ZM18.2205 5.94537C17.8912 5.65005 17.7595 5.20892 17.7526 4.37649C17.745 3.47752 17.9535 2.87867 18.3327 2.70978C18.7168 2.53887 19.1732 2.69871 19.3723 3.07404C19.4247 3.17279 19.4689 3.20001 19.4702 3.13449C19.4716 3.06887 19.3618 2.89713 19.2263 2.7527C19.0373 2.55133 18.9025 2.49014 18.6475 2.49014C17.9172 2.49014 17.5829 3.14575 17.6325 4.48003C17.6668 5.39958 17.8475 5.95137 18.1582 6.08527C18.465 6.21761 18.4819 6.17968 18.2205 5.94537ZM19.0773 5.77307C19.3723 5.45883 19.3176 4.73576 18.9989 4.73576C18.935 4.73576 18.8828 4.67088 18.8828 4.59152C18.8828 4.49683 18.9287 4.46591 19.016 4.50163C19.0895 4.53162 19.2392 4.55608 19.349 4.55608C19.5294 4.55608 19.5513 4.60102 19.5792 5.02767L19.6101 5.49925L19.6259 4.93787L19.6415 4.37649H19.1779C18.7429 4.37649 18.7142 4.38996 18.7142 4.59502C18.7142 4.76668 18.7639 4.81974 18.9461 4.84208C19.1495 4.86699 19.1742 4.90345 19.1481 5.13998C19.1045 5.53746 18.9846 5.72406 18.7745 5.72185C18.4617 5.71853 18.2124 5.43982 18.1325 5.00413C18.0821 4.72976 18.0554 4.67808 18.0492 4.84226C18.0207 5.58139 18.6892 6.1867 19.0774 5.77307H19.0773ZM19.5409 5.67644C19.5149 5.64876 19.4678 5.69859 19.4361 5.78719C19.3902 5.91528 19.4 5.92553 19.4833 5.83748C19.541 5.77657 19.5668 5.70413 19.5409 5.67644ZM21.8331 3.78733C21.8331 3.13024 21.8367 3.11908 22.0489 3.11908C22.1712 3.11908 22.242 3.08022 22.2125 3.02928C22.1839 2.97991 22.0677 2.93939 21.9546 2.93939C21.7536 2.93939 21.7489 2.956 21.7489 3.65794C21.7489 4.17567 21.7194 4.37501 21.6435 4.37113C21.5855 4.36827 21.358 4.33422 21.1378 4.29564C20.9176 4.25688 20.7372 4.25688 20.7372 4.29546C20.7372 4.33404 20.9176 4.39144 21.1378 4.423C21.358 4.45465 21.5761 4.49212 21.6224 4.50624C21.7973 4.55958 21.8331 4.43721 21.8331 3.78733ZM18.164 3.63044C18.1936 3.44245 18.2915 3.20998 18.3816 3.114C18.4716 3.01793 18.5085 2.9393 18.4632 2.9393C18.3143 2.9393 18.1094 3.37443 18.0739 3.76675C18.0333 4.21046 18.0852 4.1322 18.164 3.63044ZM19.22 3.52745C19.22 3.40637 19.0144 3.03334 18.9282 2.99809C18.8615 2.97086 18.8724 3.05854 18.9606 3.25972C19.0732 3.51591 19.22 3.66763 19.22 3.52745ZM19.557 3.39132C19.557 3.34333 19.5002 3.32764 19.4307 3.35607C19.3611 3.38449 19.3042 3.42362 19.3042 3.443C19.3042 3.46238 19.3611 3.47835 19.4307 3.47835C19.5002 3.47835 19.557 3.43913 19.557 3.39132ZM2.23642 3.13643C2.21048 3.10874 2.14245 3.13633 2.08527 3.1977C2.0026 3.2863 2.0123 3.29673 2.13248 3.248C2.2156 3.21432 2.26236 3.16411 2.23642 3.13643Z" fill="#E2E2E2"/>
<path id="Vector_4" d="M14.8007 35.9111C14.483 35.8646 14.2683 35.755 13.8144 35.4085C12.259 34.2209 10.9734 33.1198 9.82192 31.9887C9.38022 31.5548 8.40998 30.512 8.06913 30.1049C6.67589 28.4407 5.52019 26.7351 4.10498 24.2551C3.79298 23.7084 3.41233 22.8919 2.8928 21.6539C1.20513 17.6338 0.323746 13.5754 0.0637163 8.62707C0.0131575 7.66378 -0.00360721 6.92105 0.000628084 5.82985C0.0041575 4.92756 0.00839277 4.81922 0.0495987 4.58112C0.127599 4.13039 0.278658 3.70328 0.461658 3.4159C0.688158 3.06023 1.30254 2.5472 1.79463 2.30283C2.48966 1.95758 4.18254 1.42287 5.70804 1.06664C6.12222 0.969924 6.93928 0.79504 7.21642 0.743636C7.2976 0.728685 7.46851 0.696569 7.59619 0.672575C7.7224 0.648652 7.84901 0.627054 7.97595 0.607789C8.05713 0.596253 8.1901 0.572166 8.27128 0.554263C8.35245 0.536359 8.50439 0.509965 8.60878 0.495937C8.71325 0.481817 8.93154 0.450994 9.09407 0.42746C9.22405 0.408368 9.35414 0.390095 9.48434 0.372642C9.99363 0.308779 10.1586 0.288845 10.497 0.250362C12.2137 0.055359 14.4946 -0.0367434 16.1403 0.0226894C16.8628 0.0487144 18.5022 0.147738 18.6319 0.173117C18.6679 0.180223 18.8292 0.19379 18.9905 0.203295C19.1517 0.212801 19.4165 0.237718 19.5789 0.258483C19.7414 0.279247 20.0024 0.311456 20.1591 0.330005C20.8939 0.417309 21.5318 0.504151 21.8045 0.553986C21.9032 0.571982 22.1642 0.61711 22.3847 0.654117C24.7064 1.04412 26.6292 1.61243 28.0595 2.33153C28.6783 2.64253 28.9255 2.81751 29.2263 3.15639C29.5769 3.55175 29.7857 3.96898 29.8953 4.49363C29.9884 4.93827 29.9465 7.70836 29.8203 9.46772C29.6481 11.8687 29.3516 13.8896 28.8612 16.0025C28.3314 18.2855 27.6207 20.3769 26.5873 22.6944C26.2379 23.4779 26.1433 23.6706 25.8535 24.1878C25.6977 24.4656 25.5655 24.7033 25.5597 24.7159C25.5538 24.7286 25.5207 24.7842 25.4858 24.8399C25.451 24.8955 25.4111 24.9608 25.3973 24.9853C25.3834 25.0099 25.3311 25.1006 25.2812 25.1872C25.2314 25.2736 25.1868 25.3544 25.1821 25.3667C25.1774 25.3791 25.1677 25.3942 25.1606 25.4004C25.1533 25.4065 25.1058 25.4824 25.0549 25.5689C24.9983 25.6645 24.9405 25.7593 24.8812 25.8531C24.8367 25.923 24.8002 25.9903 24.8002 26.0028C24.8002 26.0152 24.7932 26.0286 24.7843 26.0329C24.7628 26.043 24.6525 26.2253 24.6525 26.2507C24.6525 26.262 24.6383 26.2772 24.6209 26.2842C24.6035 26.2913 24.5893 26.3074 24.5893 26.32C24.5893 26.3326 24.5371 26.4231 24.4734 26.5212C24.4094 26.6192 24.3573 26.7092 24.3573 26.7212C24.3573 26.7331 24.3432 26.7487 24.3258 26.7558C24.3084 26.763 24.294 26.7843 24.294 26.8032C24.294 26.8221 24.2861 26.8375 24.2766 26.8375C24.2669 26.8375 24.2456 26.8654 24.2292 26.8994C24.2127 26.9332 24.1919 26.9712 24.1832 26.9835C24.1122 27.0827 24.0261 27.2096 23.8723 27.4429C23.7215 27.6713 23.5614 27.9044 23.3469 28.2073C21.448 30.8905 19.4619 32.9055 16.3425 35.3142C15.8872 35.6658 15.6737 35.7911 15.4081 35.863C15.2218 35.9133 14.9581 35.9343 14.8007 35.911V35.9111ZM15.3405 35.7074C15.6034 35.6364 15.8217 35.5102 16.2384 35.1885C20.2229 32.113 22.4493 29.6119 24.9869 25.3606C25.669 24.2178 25.9997 23.6126 26.271 23.0107C27.0095 21.3722 27.5412 20.0079 27.9783 18.6298C29.0405 15.2807 29.6138 11.7394 29.758 7.63748C29.792 6.67456 29.7856 4.80888 29.7477 4.57724C29.6442 3.94572 29.28 3.34512 28.7436 2.92189C28.5488 2.76804 27.8574 2.39585 27.4155 2.20694C26.1061 1.64703 24.6087 1.22667 22.6486 0.8685C21.4976 0.658363 19.9945 0.464744 18.5453 0.340065C18.3944 0.327144 18.2188 0.311456 18.155 0.305457C17.9578 0.28663 17.0311 0.22932 16.499 0.203018C15.4834 0.152814 13.6422 0.178747 12.3535 0.261528C8.98113 0.477941 5.28098 1.18468 2.74404 2.09693C2.04566 2.34795 1.79728 2.46516 1.43675 2.71396C0.851128 3.1179 0.583952 3.42541 0.391334 3.9172C0.165805 4.4928 0.125569 4.97906 0.159628 6.71692C0.202775 8.92138 0.326305 10.64 0.571246 12.4432C1.05769 16.0248 1.91004 19.0473 3.36707 22.3574C3.9338 23.645 4.09678 23.9559 4.99828 25.4675C5.22116 25.8413 5.82742 26.7998 6.07819 27.1746C7.77672 29.7136 9.42089 31.5478 11.8704 33.6358C12.5065 34.1781 14.0196 35.3797 14.2752 35.5455C14.3679 35.6056 14.6121 35.7051 14.7267 35.7296C14.89 35.7644 15.1669 35.7544 15.3405 35.7074ZM14.7732 34.8012C14.6443 34.7626 14.3511 34.5486 13.7517 34.0554C10.0694 31.0268 7.99007 28.6559 5.91486 25.1196C5.6371 24.6462 5.2666 23.9837 5.01698 23.5141C4.76789 23.0453 3.97422 21.287 3.57769 20.3253C2.17192 16.9162 1.39951 13.3787 1.16269 9.26561C1.07948 7.81947 1.06695 5.8389 1.13842 5.42554C1.21695 4.9714 1.35892 4.57419 1.55251 4.26642C1.76366 3.93077 2.15366 3.59734 2.52478 3.43519C3.28704 3.10203 5.01195 2.58199 6.48866 2.24007C9.05736 1.64546 11.4549 1.33806 14.1466 1.25814C14.8872 1.23626 16.1738 1.24365 16.4356 1.27133C16.482 1.27622 16.6624 1.2861 16.8364 1.29348C18.5022 1.36362 20.7384 1.61529 22.3426 1.91319C24.3226 2.28086 25.8305 2.74774 27.1209 3.39255C27.3238 3.49407 27.561 3.6121 27.6477 3.65492C28.3615 4.00718 28.6878 4.55103 28.7955 5.56776C28.8485 6.06814 28.7219 8.54401 28.5542 10.2873C28.0788 15.2288 27.1239 18.8381 25.3263 22.4891C24.6005 23.9631 23.4406 25.9775 22.5635 27.2867C21.0594 29.5319 19.6026 31.1008 16.67 33.6338C16.6107 33.685 16.3628 33.9001 16.1191 34.1118C15.8754 34.3235 15.6123 34.5424 15.5341 34.5981C15.2592 34.7952 14.9913 34.8666 14.7732 34.8012ZM9.30504 26.7738C9.56392 26.6486 9.64969 26.4573 9.68445 25.928C9.70775 25.576 9.77269 25.4424 9.93857 25.4055L10.0224 25.387L10.0118 25.1747C9.99592 24.8577 9.99901 24.3869 10.0173 24.3176C10.0261 24.284 10.1311 24.1273 10.2507 23.9695C10.5343 23.5952 10.7034 23.3361 10.751 23.2026C10.7721 23.1434 10.8098 22.9493 10.8346 22.7712C10.8853 22.4074 10.8634 22.4595 11.2443 21.7985C11.3574 21.6023 11.527 21.2751 11.621 21.0715C11.7236 20.8498 11.8242 20.6648 11.872 20.6103C11.9134 20.5631 11.9541 20.5154 11.9943 20.4671C12.0177 20.4384 12.046 20.4151 12.0573 20.4151C12.1004 20.4151 12.2262 20.5563 12.2729 20.6575C12.3199 20.7589 12.3218 20.7846 12.3218 21.2872C12.3218 21.8108 12.3218 21.8113 12.3716 21.8543C12.3989 21.8779 12.443 21.8973 12.4697 21.8973C12.5176 21.8973 12.5175 21.8963 12.4585 21.8294C12.3722 21.7312 12.3522 21.5962 12.3678 21.2153C12.38 20.9163 12.3771 20.877 12.3342 20.7419C12.3085 20.6608 12.2905 20.5618 12.2941 20.5217C12.3003 20.4526 12.3056 20.4485 12.3956 20.4418C12.5027 20.4336 12.5512 20.396 12.6086 20.2763C12.6489 20.1922 12.6596 20.1242 12.6527 19.9955C12.6493 19.9341 12.6335 19.9152 12.5397 19.8608C12.3957 19.7774 12.3559 19.7141 12.3297 19.527C12.2996 19.3109 12.3242 18.6424 12.368 18.4891C12.4066 18.3541 12.4242 18.3518 12.5751 18.4617C12.7224 18.5691 13.1702 18.7715 13.3912 18.8309C13.6621 18.9036 14.0305 18.9121 14.1476 18.8484C14.249 18.793 14.6269 18.4857 14.7852 18.3296C14.8576 18.2582 14.9738 18.1558 15.0434 18.1021C15.113 18.0483 15.2073 17.9708 15.2529 17.9298C15.2985 17.8888 15.3575 17.855 15.3839 17.855C15.4586 17.855 15.6595 17.9422 15.7294 18.0048C15.8564 18.1187 15.7927 18.2337 15.4839 18.4476C15.2402 18.6162 14.9795 18.9167 14.8592 19.1676C14.804 19.2832 14.5476 20.0911 14.5476 20.1501C14.5476 20.2448 14.6168 20.4417 14.6862 20.5441C14.94 20.9192 15.0625 21.1297 15.0885 21.2361C15.1043 21.3002 15.1317 21.3894 15.1493 21.4343C15.2177 21.6086 15.1357 21.7053 14.8583 21.7772C14.7514 21.8049 14.6097 21.8345 14.5437 21.8428L14.4237 21.8579L14.4576 21.9131C14.4867 21.9603 14.4942 21.9632 14.5102 21.9328C14.5255 21.9038 14.5722 21.8974 14.7696 21.8974C14.9637 21.8974 15.032 21.8882 15.1217 21.8507L15.2329 21.804L15.286 21.8741C15.3453 21.9528 15.6872 22.327 15.6872 22.3133C15.6872 22.2568 15.5239 21.8621 15.3944 21.6054C15.304 21.4264 15.1872 21.1838 15.135 21.0664C15.0816 20.9464 14.9646 20.7461 14.8675 20.6082C14.7725 20.4735 14.688 20.3372 14.6795 20.3052C14.65 20.1919 14.6656 20.0003 14.7172 19.8456C14.7987 19.6012 14.8636 19.6175 14.8642 19.8827C14.8647 20.0752 14.8882 20.1335 15.0909 20.4434C15.3235 20.7991 15.3399 20.8304 15.4559 21.1356C15.5541 21.3943 15.6749 21.632 15.8179 21.8483C15.8884 21.955 16.0249 22.3425 16.0249 22.4358C16.0249 22.4734 15.999 22.5216 15.9538 22.5682L15.8826 22.6417L15.8375 22.5805C15.8125 22.5469 15.7856 22.5263 15.7776 22.5348C15.7695 22.5434 15.7591 22.6155 15.7543 22.695C15.7458 22.8377 15.7467 22.8408 15.8219 22.9117C15.8937 22.9794 15.8982 22.9916 15.8982 23.1198C15.8982 23.282 15.944 23.3923 16.0389 23.4598C16.0775 23.4873 16.2039 23.5281 16.3401 23.557L16.5747 23.6067L16.6578 23.5366C16.8031 23.4141 16.9732 23.197 16.9966 23.104C17.024 22.9965 17.0068 22.9036 16.9497 22.8484C16.9212 22.819 16.8971 22.7853 16.8781 22.7485C16.8354 22.6607 16.8723 22.6385 17.0607 22.6385C17.2143 22.6385 17.2264 22.6348 17.2748 22.5736C17.3308 22.5025 17.4739 22.1691 17.5578 21.9135C17.6007 21.7828 17.6107 21.7104 17.6098 21.5396C17.6088 21.3666 17.6188 21.2965 17.6641 21.1578C17.7391 20.928 17.7397 20.7567 17.666 20.6061C17.6039 20.4793 17.5593 20.4322 17.4012 20.3271C17.2286 20.2122 17.2504 20.1402 17.4872 20.0447C17.6226 19.9901 17.6913 19.9297 17.6913 19.865C17.6913 19.8123 17.6902 19.812 17.5047 19.8247C17.3189 19.8375 17.3178 19.8374 17.2779 19.7756C17.1613 19.5955 17.0946 19.5695 16.9745 19.6574C16.8442 19.7527 16.5522 20.3161 16.5522 20.4717C16.5522 20.5621 16.6476 20.6538 16.8215 20.7299C16.9112 20.7692 17.0065 20.8161 17.033 20.8341C17.1201 20.893 17.1636 20.998 17.1636 21.1492C17.1638 21.2256 17.1737 21.3158 17.1857 21.3495C17.1977 21.3832 17.2082 21.4758 17.2086 21.5553C17.2095 21.6728 17.1976 21.726 17.1446 21.8406C17.0595 22.0246 16.7943 22.3885 16.7247 22.4165C16.6494 22.447 16.5711 22.3819 16.5333 22.257C16.5061 22.1675 16.5074 22.1518 16.5517 22.0457C16.6514 21.8059 16.6631 21.7167 16.6392 21.3703C16.6272 21.1947 16.6056 21.0236 16.5913 20.9903C16.5477 20.8883 16.4786 20.9194 16.3321 21.1072C16.1945 21.2835 16.1051 21.3581 16.0306 21.3583C15.9584 21.3583 15.9332 21.2822 15.9459 21.1019C15.9589 20.9206 15.9965 20.7985 16.1472 20.4476C16.261 20.183 16.4407 19.6833 16.502 19.461C16.5491 19.2907 16.5545 18.8637 16.5117 18.6865C16.4889 18.5917 16.4567 18.5346 16.3722 18.4394C16.182 18.2251 15.9327 17.8537 15.7991 17.5857C15.6462 17.2793 15.5432 16.9572 15.5982 16.9572C15.6268 16.9572 15.861 17.2758 15.9569 17.4453C16.0745 17.6529 16.1356 17.7061 16.2402 17.6913C16.3167 17.6804 16.3191 17.6823 16.3314 17.7622C16.3722 18.0278 16.4917 18.2891 16.6785 18.5208C16.7647 18.6277 17.1222 18.933 17.2258 18.9881C17.3464 19.0523 17.5438 19.121 17.7755 19.1795C17.9169 19.2153 18.0276 19.2248 18.2983 19.225C18.6586 19.225 18.7406 19.2084 18.826 19.1174C18.8489 19.0931 18.9233 19.0519 18.9913 19.0259C19.0593 19 19.1378 18.9659 19.1658 18.9504C19.2395 18.9092 19.296 18.818 19.282 18.7627C19.2709 18.7188 19.2508 18.7146 19.0027 18.7018C18.683 18.6852 18.3992 18.6149 18.1808 18.4978C18.085 18.4474 17.9871 18.4014 17.8875 18.3598C17.6397 18.2606 17.4515 18.1003 17.408 17.9518C17.3862 17.8773 17.4288 17.8144 17.5123 17.7976C17.5529 17.7896 17.5914 17.774 17.5977 17.763C17.6041 17.7521 17.6253 17.743 17.645 17.7427C17.735 17.7418 17.7404 17.7144 17.6935 17.5017C17.6374 17.247 17.6368 17.2041 17.6902 17.2041C17.7766 17.2041 17.8385 17.2604 17.9579 17.4477C18.0259 17.5541 18.1351 17.6995 18.2006 17.7707C18.3067 17.8863 18.329 17.9004 18.4049 17.9004C18.452 17.9004 18.4958 17.8906 18.5029 17.8787C18.5099 17.8668 18.4961 17.8166 18.4724 17.7673C18.4461 17.7124 18.4295 17.634 18.4295 17.5652C18.4295 17.4715 18.4404 17.4397 18.4948 17.3735C18.5556 17.2998 18.5693 17.2941 18.6816 17.2941C18.8241 17.2941 18.9172 17.349 18.9973 17.4802C19.0437 17.5562 19.0568 17.5636 19.1438 17.5636C19.2128 17.5636 19.2618 17.547 19.3201 17.5041C19.3885 17.4535 19.4085 17.4483 19.4523 17.4695C19.4805 17.4832 19.5268 17.5328 19.5549 17.5795C19.5884 17.6333 19.6271 17.6834 19.6703 17.729C19.73 17.789 19.7427 17.7926 19.848 17.7785C19.911 17.7701 19.986 17.7735 20.0169 17.7859C20.1125 17.8246 20.1237 17.8782 20.0833 18.1019C20.0495 18.2896 20.0494 18.3079 20.0827 18.4008C20.1021 18.4553 20.1469 18.5337 20.1818 18.5755C20.2533 18.6609 20.2544 18.6649 20.2866 18.9474C20.3173 19.2165 20.2917 19.4069 20.1852 19.7019C20.1393 19.8288 20.0675 20.029 20.0254 20.1465C19.9832 20.2642 19.9218 20.3948 19.8888 20.437L19.8288 20.5135L19.915 20.5832C20.0264 20.6734 20.1109 20.8255 20.2304 21.1514C20.4012 21.6168 20.4166 21.6745 20.4195 21.8525C20.4215 21.9949 20.4083 22.0652 20.333 22.3063C20.2137 22.6883 20.2103 22.8354 20.3177 22.985C20.3583 23.0417 20.3915 23.1049 20.3915 23.1256C20.3915 23.1462 20.3394 23.2548 20.2757 23.367C20.0123 23.8303 20.0132 24.041 20.2798 24.3005C20.4192 24.436 20.5423 24.5075 20.62 24.498C20.6726 24.4915 20.6769 24.4826 20.6829 24.3676C20.6903 24.229 20.7494 24.1364 20.8232 24.1476C20.8601 24.1534 20.8684 24.1764 20.8805 24.3077C20.8981 24.4976 20.9076 24.5247 20.9563 24.5247C21.0437 24.5247 21.3374 24.2809 21.3966 24.1593L21.4284 24.0935L21.3372 24.1607C21.287 24.1977 21.2229 24.2543 21.1947 24.2864C21.1335 24.3566 21.0702 24.3609 20.9971 24.2998C20.9229 24.2376 20.9104 24.1507 20.9514 23.9825C20.9994 23.7862 20.9842 23.6341 20.9098 23.5659C20.8613 23.5216 20.8298 23.5141 20.6909 23.5138C20.6016 23.5138 20.515 23.5042 20.4981 23.4929C20.4414 23.4547 20.5063 23.3638 20.6427 23.2907C20.8403 23.1844 20.8509 23.1092 20.681 23.0168C20.5683 22.9557 20.5407 22.9164 20.5398 22.8157C20.5389 22.6997 20.615 22.5909 20.7282 22.5465C20.8634 22.4932 20.9189 22.4145 20.9189 22.2755C20.9189 22.1214 20.8688 22.0208 20.7414 21.9188C20.5337 21.7527 20.5391 21.7623 20.5391 21.5612C20.5391 21.4157 20.5467 21.3727 20.5781 21.3393C20.607 21.3084 20.6201 21.2509 20.6288 21.115C20.6364 20.9971 20.6562 20.8977 20.6847 20.835C20.7546 20.6815 20.7474 20.642 20.6109 20.4263C20.5235 20.2886 20.4969 20.1487 20.4969 19.8296C20.4969 19.6963 20.4881 19.5627 20.4775 19.5329C20.4501 19.4563 20.4747 19.2014 20.5109 19.1866C20.5722 19.1616 20.6669 19.2313 20.7343 19.3513C20.8085 19.4833 20.824 19.4943 20.8406 19.427C20.8581 19.355 20.9608 19.3712 21.204 19.4838C21.7548 19.7391 22.3721 19.7911 22.7051 19.6102C22.8948 19.5073 23.2369 19.1917 23.3245 19.0388C23.4064 18.8959 23.4011 18.8933 23.0602 18.9056C22.715 18.9182 22.5078 18.8912 22.2795 18.8043C22.0859 18.7305 21.8719 18.578 21.7512 18.4278C21.698 18.3612 21.5562 18.2203 21.4364 18.1145C21.3167 18.0086 21.2132 17.9068 21.2066 17.8885C21.2027 17.879 21.1963 17.8709 21.1882 17.8649C21.1801 17.859 21.1706 17.8556 21.1607 17.855C21.0961 17.855 20.8107 17.7147 20.6544 17.606C20.5679 17.546 20.4579 17.4756 20.4102 17.4496C20.2582 17.367 19.6805 17.2423 19.3213 17.2143L19.1268 17.1992L19.1126 17.1173C19.0866 16.9677 19.044 16.8679 18.9155 16.6567C18.8094 16.4822 18.7881 16.431 18.7876 16.3485C18.7872 16.23 18.7414 16.1168 18.5891 15.8589C18.5134 15.7301 18.4597 15.6059 18.429 15.487C18.4036 15.3888 18.3462 15.22 18.3016 15.1121C18.1999 14.8659 18.1644 14.7308 18.1345 14.4755C18.1014 14.1925 18.0643 14.0338 17.9686 13.7652C17.9229 13.6372 17.8645 13.4212 17.8388 13.2854C17.7723 12.9327 17.7473 12.8677 17.5753 12.5992C17.4906 12.4671 17.4146 12.3249 17.4059 12.2833C17.3975 12.2416 17.3647 12.1762 17.3334 12.1379C17.3021 12.0997 17.2395 12.0038 17.1945 11.9246C17.1495 11.8454 17.0909 11.7465 17.0644 11.7047C17.0378 11.6628 17.0161 11.6008 17.0161 11.5671C17.0161 11.4715 17.0666 11.4431 17.2251 11.4498C17.5592 11.4635 17.8175 11.7301 18.1553 12.4095C18.4237 12.9494 18.6441 13.228 18.9185 13.3741C19.0264 13.4315 19.0958 13.4537 19.1674 13.4537C19.2935 13.4537 19.3392 13.4043 19.3527 13.2537C19.3645 13.1239 19.3405 13.0043 19.2259 12.6228C19.1599 12.4032 19.1387 12.2922 19.1285 12.1125C19.1124 11.8349 19.1006 11.8178 18.8614 11.7299C18.6556 11.6542 18.6433 11.6145 18.812 11.5692C18.9789 11.5242 19.1569 11.5721 19.3521 11.7146C19.48 11.808 19.5045 11.8177 19.5855 11.8081C19.6589 11.7993 19.6991 11.7745 19.7975 11.6768C19.9086 11.5665 19.9182 11.5494 19.9103 11.4759C19.9006 11.3854 19.9573 11.2467 20.0335 11.1745C20.096 11.1151 20.1314 11.0224 20.2045 10.7278C20.3015 10.3355 20.2761 10.0082 20.1276 9.73729C20.0089 9.52078 19.4452 9.04393 19.1178 8.88317C18.8187 8.73625 18.8042 8.73505 17.1849 8.71493C15.3787 8.69241 14.5751 8.65051 14.3416 8.56635C14.0045 8.44518 13.7618 8.22525 13.7975 8.07353C13.8178 7.98678 13.9311 7.86792 14.0322 7.82676C14.2202 7.75044 14.4856 7.80489 15.0014 8.02518C15.4744 8.22728 15.761 8.27869 16.3082 8.25922C16.7942 8.24187 17.1779 8.18003 17.2767 8.10325C17.3127 8.0751 17.3127 8.07243 17.276 8.03745C17.2549 8.01733 17.1001 7.96344 16.9318 7.91766C16.5632 7.81707 16.3622 7.73613 16.3622 7.68805C16.3622 7.65787 16.3987 7.65511 16.6417 7.66618C16.9243 7.67901 17.2393 7.7354 17.4839 7.81707C17.6352 7.86764 17.977 7.87918 18.089 7.83765C18.1627 7.81024 18.1761 7.75274 18.1222 7.69553C17.9871 7.55156 17.2453 7.26944 16.6753 7.14504C16.316 7.06659 16.0376 7.04749 15.4385 7.06004C14.7012 7.07545 14.3964 7.13267 14.0438 7.32213C13.756 7.47681 13.4193 7.80258 13.3132 8.02887C13.1892 8.2941 13.2729 8.47083 13.6302 8.6986C13.8775 8.85622 14.0712 8.92082 14.4846 8.98395C15.2334 9.0982 15.7621 9.12515 17.2166 9.12367C17.927 9.12275 18.4932 9.13161 18.5668 9.14453C18.7855 9.18273 19.0424 9.28056 19.1764 9.37635C19.3334 9.48894 19.5267 9.73 19.6276 9.93958C19.6938 10.0773 19.7034 10.1177 19.7046 10.2652C19.7058 10.4102 19.6976 10.4497 19.6452 10.5503C19.5637 10.7068 19.3964 10.9032 19.3135 10.9398C19.2147 10.9834 18.9764 10.9389 18.6944 10.8256C18.4985 10.7466 18.428 10.7296 18.2303 10.7143C17.9734 10.6944 17.9444 10.6854 17.5624 10.5054C17.1722 10.3216 16.5784 10.1165 16.2807 10.0627C16.1387 10.037 16.0007 10.066 15.803 10.1633C15.6035 10.2616 15.4887 10.3582 15.0919 10.7625C14.718 11.1436 14.5482 11.2855 14.3392 11.3919C13.9597 11.5852 12.8752 12.2336 12.7745 12.3275C12.6264 12.4653 12.377 12.787 12.272 12.9755C12.0797 13.3207 12.0202 13.5922 11.9974 14.2286C11.9817 14.662 11.9788 14.6843 11.9131 14.8624C11.8397 15.0611 11.6444 15.4192 11.3807 15.8384C11.1327 16.2324 10.9543 16.5461 10.8352 16.7971C10.6005 17.2912 10.5603 17.4804 10.54 18.1809L10.525 18.6974L10.4486 18.9343C10.4065 19.0645 10.3187 19.3071 10.2534 19.4733C10.0114 20.0891 10.016 20.0577 9.99363 21.1901L9.97713 22.021L9.88872 22.2068C9.8401 22.309 9.75875 22.4572 9.70783 22.5361C9.59101 22.7179 9.55801 22.8639 9.51486 23.3907C9.50158 23.5567 9.48716 23.7226 9.47163 23.8884C9.46281 23.9708 9.43016 24.0185 9.19572 24.2926C8.74881 24.815 8.57772 25.087 8.57772 25.2753C8.57772 25.3685 8.57101 25.381 8.48772 25.442C8.32422 25.5617 8.09392 25.8419 8.01672 26.0151C7.92557 26.2196 7.90404 26.4099 7.95936 26.5235C8.02139 26.6508 8.0626 26.6296 8.23695 26.3813L8.39189 26.1604L8.44263 26.2111C8.47051 26.239 8.49336 26.2745 8.49336 26.2899C8.49336 26.3053 8.45507 26.4021 8.40822 26.5049C8.3611 26.6083 8.32581 26.7169 8.32916 26.748C8.3371 26.8233 8.41051 26.8347 8.85204 26.8294C9.16369 26.8253 9.21054 26.8197 9.30504 26.7738ZM9.10898 25.5559C9.03601 25.5255 8.92722 25.2655 8.94513 25.164C8.96048 25.0771 8.98095 25.0708 9.09072 25.1197C9.20454 25.1704 9.26048 25.1612 9.36689 25.0748C9.47066 24.9905 9.50366 24.9807 9.54336 25.0232C9.58069 25.0628 9.57425 25.1327 9.52413 25.2328C9.49878 25.2834 9.47349 25.3341 9.44825 25.3847C9.38913 25.5031 9.20525 25.5959 9.10898 25.5559ZM9.78928 23.4365C9.74242 23.3866 9.73748 23.3631 9.73748 23.1913C9.73748 23.0867 9.73281 22.9878 9.72716 22.9713C9.72151 22.9547 9.7261 22.9263 9.73739 22.9077C9.7546 22.8796 9.76854 22.8861 9.82263 22.9471C9.87539 23.0066 9.90345 23.02 9.97457 23.02C10.0345 23.02 10.0767 23.0051 10.1096 22.9723C10.174 22.9078 10.2232 22.9311 10.2212 23.0249C10.2178 23.1768 10.1268 23.3481 10.0047 23.4324C9.89825 23.5059 9.85528 23.5067 9.78928 23.4365ZM16.5029 23.2349C16.4471 23.2189 16.3917 23.1957 16.3802 23.1832C16.3437 23.1444 16.3087 22.8704 16.3316 22.8013C16.376 22.6663 16.5353 22.7287 16.575 22.8968C16.598 22.9942 16.6015 22.9974 16.6799 22.9974C16.7733 22.9974 16.8048 23.0388 16.8048 23.1615C16.8048 23.2301 16.7973 23.2404 16.7388 23.2528C16.6518 23.2715 16.6231 23.2693 16.5029 23.2349ZM10.2293 21.3707C10.141 21.3292 10.1098 21.2189 10.1206 20.9855C10.1305 20.7705 10.2132 20.5698 10.3251 20.4896L10.3955 20.4391L10.448 20.5057C10.4798 20.5461 10.5209 20.5722 10.5522 20.5722C10.6295 20.5722 10.7895 20.4755 10.9083 20.3571C10.9663 20.2992 11.0676 20.2018 11.1335 20.1406C11.2827 20.0022 11.32 19.9093 11.3188 19.6792C11.3172 19.3811 11.2976 19.3191 11.1638 19.1913C11.029 19.0624 10.9767 18.9491 10.9764 18.7847C10.976 18.592 11.0646 18.4839 11.2229 18.4839C11.31 18.4839 11.3707 18.5454 11.4805 18.7453C11.6615 19.0748 11.9256 19.2024 12.0995 19.0443C12.1826 18.9687 12.2101 18.9631 12.257 19.0131C12.284 19.0419 12.29 19.1077 12.29 19.371C12.29 19.5484 12.2988 19.7179 12.3095 19.7478C12.3226 19.7847 12.3666 19.8184 12.4475 19.8533C12.5915 19.9156 12.6375 19.9911 12.6218 20.1394C12.6091 20.2597 12.5444 20.3397 12.4346 20.3711C12.3166 20.4049 12.2295 20.372 11.8684 20.1571C11.7592 20.0922 11.6374 20.084 11.5617 20.1367C11.5333 20.1566 11.4618 20.2422 11.4027 20.327C11.3188 20.4474 11.2489 20.5144 11.0855 20.6309C10.8558 20.7948 10.79 20.8647 10.656 21.087C10.5602 21.2462 10.4457 21.3805 10.4054 21.3811C10.3919 21.3811 10.3617 21.3861 10.3386 21.3919C10.3155 21.3978 10.2664 21.3882 10.2293 21.3707ZM13.6192 16.6177C13.5438 16.5805 13.4346 16.5392 13.3766 16.5261C13.2416 16.4956 13.1637 16.4528 13.1232 16.387C13.0943 16.34 13.0944 16.3206 13.124 16.1975C13.1622 16.0387 13.1426 15.9145 13.0684 15.8431C13.0309 15.8071 12.9942 15.8009 12.8415 15.804C12.7368 15.8061 12.62 15.8228 12.567 15.8433C12.5163 15.8628 12.4723 15.8789 12.4694 15.8789C12.4595 15.8789 12.4841 15.6656 12.5036 15.5829C12.5173 15.5245 12.5449 15.4859 12.5975 15.4512C12.7235 15.3685 12.7409 15.3205 12.7272 15.095C12.7107 14.8242 12.743 14.6906 12.8252 14.6891C12.8353 14.6891 12.879 14.7267 12.9222 14.773C12.977 14.8315 13.0157 14.9052 13.0492 15.0144C13.1315 15.2818 13.1664 15.3399 13.2451 15.3403C13.3713 15.3412 13.3765 15.3541 13.3765 15.6704C13.3765 16.0161 13.3968 16.0697 13.6165 16.3006C13.9543 16.6557 13.9554 16.7835 13.6192 16.6177ZM17.0495 14.8133C17.0418 14.7806 17.0418 14.6645 17.0495 14.5553L17.0637 14.3569L17.0036 14.3152C16.9501 14.2779 16.8966 14.2733 16.5102 14.2726C16.1317 14.2717 16.0662 14.2667 15.9926 14.2299L15.9081 14.1878L15.9714 14.1715C16.0062 14.1624 16.1249 14.1539 16.2351 14.1523C16.4667 14.1492 16.5572 14.1271 16.6551 14.0502C16.9297 13.8346 16.8744 13.5679 16.4659 13.1382C16.2113 12.8704 16.1667 12.797 16.176 12.6608L16.1825 12.5666L16.2879 12.6801C16.3459 12.7427 16.4264 12.8538 16.4668 12.9272C16.5826 13.1374 16.9668 13.6967 17.1111 13.865C17.3211 14.11 17.3996 14.3237 17.3655 14.5578C17.3475 14.6817 17.2235 14.84 17.1293 14.8593C17.0711 14.8712 17.062 14.8661 17.0495 14.8133ZM16.5906 11.2586C16.5542 11.215 16.5202 11.1693 16.4887 11.1216C16.462 11.0801 16.395 10.9914 16.3399 10.9243C16.2196 10.7779 16.2029 10.7259 16.2578 10.6675C16.3142 10.6076 16.5528 10.6066 16.6574 10.6659C16.7637 10.7262 16.8449 10.9051 16.8614 11.1155L16.8745 11.2805L16.8105 11.2656C16.7631 11.2545 16.7435 11.2597 16.7341 11.2855C16.7149 11.3392 16.6496 11.3269 16.5906 11.2586ZM15.9715 8.09301C15.9483 8.0871 15.8846 8.06181 15.8299 8.03708C15.7096 7.98263 15.6805 7.91757 15.7497 7.85795C15.811 7.80516 15.8587 7.80664 15.9657 7.86469C16.0136 7.89071 16.1106 7.91711 16.181 7.92338C16.2702 7.93114 16.3331 7.95181 16.3882 7.99121C16.475 8.05342 16.4844 8.07492 16.434 8.0955C16.3954 8.11119 16.0343 8.10934 15.9715 8.09301ZM11.6279 25.6413C11.7731 25.5619 11.9067 25.3976 12.0259 25.1519C12.0849 25.0304 12.1665 24.9035 12.2278 24.8378C12.3519 24.7051 12.3775 24.6547 12.4355 24.4281C12.4902 24.2148 12.5832 24.0146 12.7525 23.7451C12.9441 23.4401 13.0297 23.3535 13.2817 23.2095C13.6791 22.9825 13.7028 22.9521 13.7279 22.636C13.7376 22.5126 13.7597 22.3829 13.7768 22.3477C13.8162 22.2665 14.0147 22.0748 14.1762 21.9617L14.3008 21.8747H13.7163C13.2627 21.8747 13.0993 21.8825 12.9872 21.9098C12.9077 21.929 12.7966 21.9416 12.7404 21.9378L12.6382 21.9309L12.5067 22.2788C12.4346 22.4704 12.3752 22.6466 12.375 22.6705C12.3741 22.7451 12.3076 23.0049 12.2682 23.0874C12.2137 23.2014 11.8557 23.5983 11.7609 23.6498C11.7164 23.674 11.6524 23.6938 11.6187 23.6938C11.5446 23.6938 11.4611 23.7595 11.4267 23.8447C11.4128 23.8792 11.3348 23.9572 11.252 24.0194C11.0627 24.1619 10.8291 24.3912 10.7703 24.4925C10.7002 24.6134 10.6662 24.7851 10.6659 25.0203C10.6656 25.2598 10.7104 25.4679 10.7621 25.4679C10.7795 25.4679 10.8613 25.4174 10.944 25.3557C11.1854 25.1752 11.2346 25.2135 11.0876 25.4679C11.0412 25.5482 11.0031 25.6255 11.0031 25.6397C11.0031 25.6835 11.1526 25.7131 11.3406 25.7066C11.4853 25.7015 11.5409 25.6888 11.6279 25.6413ZM11.8344 24.4167C11.6989 24.3113 11.573 24.1758 11.573 24.1354C11.573 24.1127 11.6228 24.0717 11.7017 24.0294L11.8303 23.9602L11.9158 24.0204C12.0321 24.1024 12.1281 24.1122 12.2656 24.0565C12.4191 23.9943 12.4362 24.005 12.413 24.1496C12.4026 24.2138 12.3827 24.2907 12.3686 24.3206C12.3352 24.3911 12.1992 24.454 12.0442 24.4708C11.9307 24.483 11.9142 24.4788 11.8345 24.4167L11.8344 24.4167ZM14.0517 24.4572C14.0992 24.4442 14.0764 24.4394 13.9605 24.4373C13.8255 24.435 13.8069 24.4297 13.8128 24.3953C13.8165 24.3738 13.8689 24.3307 13.929 24.2999C13.9892 24.2691 14.0462 24.2353 14.0556 24.225C14.0651 24.2147 14.0728 24.1266 14.0728 24.0291C14.0728 23.8172 14.102 23.7726 14.2618 23.7409C14.3721 23.719 14.4209 23.6725 14.4209 23.5893C14.4209 23.5508 14.3983 23.5278 14.3277 23.4946C14.2115 23.4399 14.1715 23.373 14.2252 23.323C14.2458 23.3039 14.3411 23.2163 14.437 23.1282C14.5914 22.9866 14.6147 22.955 14.6399 22.8537C14.695 22.6328 14.7384 22.3528 14.7242 22.3105C14.7041 22.2503 14.6298 22.1665 14.5965 22.1665C14.5812 22.1665 14.5496 22.1462 14.5264 22.1217C14.4981 22.0918 14.4842 22.0866 14.4842 22.1067C14.4842 22.1232 14.4211 22.247 14.3441 22.3817C14.267 22.5165 14.1657 22.7109 14.1192 22.8138C14.0436 22.9806 14.0207 23.0106 13.906 23.0933C13.5852 23.3248 13.4135 23.6182 13.3668 24.0144C13.3449 24.1999 13.3591 24.3223 13.4024 24.3223C13.4194 24.3223 13.4832 24.2768 13.5443 24.2212C13.6054 24.1656 13.672 24.1201 13.6922 24.1201C13.725 24.1201 13.7274 24.1367 13.7145 24.2735L13.7 24.4269L13.7704 24.4509C13.8524 24.479 13.9623 24.4813 14.0517 24.4572ZM20.639 16.7183C20.6787 16.6859 20.7536 16.5987 20.8049 16.5244L20.8985 16.3892L20.8452 16.3193C20.6341 16.0422 20.5028 15.8352 20.402 15.6213C20.3377 15.4851 20.2855 15.3585 20.286 15.3398C20.2872 15.2854 20.3516 15.2151 20.4783 15.1301C20.7645 14.9377 20.7957 14.8569 20.8082 14.275C20.814 14.0013 20.8085 13.8016 20.7923 13.7137C20.7581 13.5254 20.6597 13.3216 20.5293 13.1689L20.4193 13.0401L20.3367 13.0666C20.2356 13.0991 20.0817 13.2536 20.0297 13.3751C19.9747 13.5036 19.9812 13.6543 20.0551 13.9602C20.0992 14.1429 20.1199 14.2825 20.12 14.3984C20.1203 14.6008 20.1123 14.6536 20.022 15.048C19.9305 15.4471 19.9033 15.6653 19.904 15.9976C19.9043 16.2924 19.9322 16.4361 20.0132 16.562C20.1531 16.7793 20.4673 16.8578 20.639 16.7183ZM2.83969 8.21169C3.03407 8.10187 3.54822 7.87106 3.97289 7.70291L4.33669 7.55885V7.25006C4.33669 7.076 4.32839 6.94127 4.31728 6.94127C4.29116 6.94127 3.67219 7.20853 3.46404 7.30967C3.37263 7.35397 3.2896 7.39043 3.27945 7.39043C3.26904 7.39043 3.26092 6.69717 3.26092 5.80724C3.26092 4.93651 3.25386 4.22396 3.24522 4.22378C3.23639 4.22378 3.09054 4.2918 2.92078 4.37541L2.61213 4.52731L2.60313 6.39114C2.59819 7.41617 2.59766 8.26254 2.6018 8.27177C2.61839 8.30831 2.70945 8.28524 2.83969 8.21169ZM27.3148 7.41857C27.3112 6.97707 27.3018 6.12748 27.2937 5.53093L27.2792 4.44601L27.005 4.32391C26.8541 4.25673 26.7046 4.20182 26.6727 4.20182H26.6147V7.94655L26.7043 7.97174C26.7537 7.98559 26.9032 8.04649 27.0366 8.10713C27.17 8.16776 27.2887 8.21815 27.3003 8.21935C27.314 8.22064 27.3191 7.94443 27.3148 7.41857ZM26.1475 5.03046L26.1505 3.98411L25.9131 3.9005C25.7827 3.85436 25.6594 3.80729 25.6393 3.79594C25.619 3.78449 25.574 3.77508 25.539 3.77508H25.4754L25.473 4.72379C25.4716 5.24558 25.472 5.68515 25.4739 5.70065C25.4892 5.82551 25.3844 5.57957 25.0112 4.61434C24.6881 3.77868 24.5696 3.49527 24.5374 3.48087C24.458 3.44506 24.0656 3.34825 24.0003 3.34825H23.9355V7.12086H23.9893C24.0334 7.12086 24.4458 7.222 24.5949 7.26935C24.63 7.28042 24.6313 7.22154 24.6186 6.12868C24.6094 5.33224 24.6119 4.98321 24.6271 4.99871C24.6392 5.01108 24.872 5.59674 25.1444 6.30052L25.6399 7.57989L25.8794 7.65981L26.119 7.73973L26.1319 6.90813C26.1388 6.45113 26.1459 5.60596 26.1476 5.03046H26.1475ZM4.62513 7.46942C4.65954 7.45124 4.78148 7.40556 4.89601 7.36791C5.01054 7.33044 5.10557 7.29731 5.10725 7.29454C5.10883 7.29168 5.15613 7.04924 5.21216 6.75577L5.31416 6.22226L5.41095 6.1918C5.74386 6.08733 5.96569 6.03667 5.98033 6.06186C5.98881 6.07644 6.03707 6.28289 6.08745 6.52053C6.13783 6.75817 6.18522 6.96028 6.19281 6.9696C6.20031 6.97883 6.34351 6.95243 6.51107 6.91072C6.76184 6.84833 6.8146 6.82831 6.80931 6.79748C6.80578 6.7769 6.72689 6.48509 6.63389 6.14898C6.54081 5.81278 6.32683 5.03766 6.15866 4.42635C5.99048 3.81504 5.84869 3.3106 5.84392 3.30562C5.83916 3.30045 5.73778 3.32297 5.61875 3.35545C5.49972 3.38794 5.37892 3.41747 5.35033 3.42079C5.29942 3.4267 5.29325 3.45143 5.04089 4.6507C4.89928 5.32384 4.70789 6.23158 4.6156 6.66791C4.44936 7.4542 4.44822 7.46139 4.4926 7.4805C4.55401 7.50698 4.55436 7.50698 4.62513 7.46942ZM5.41289 5.73341C5.41289 5.69788 5.62378 4.59662 5.63745 4.561C5.65281 4.52094 5.67919 4.62237 5.80219 5.19538L5.89254 5.61639L5.80572 5.64011C5.71466 5.66503 5.51304 5.72317 5.44986 5.74283C5.42948 5.74901 5.41289 5.74486 5.41289 5.73341ZM23.4786 5.08454L23.4912 3.21656L23.3706 3.19072C23.2564 3.16578 23.1422 3.14006 23.0283 3.11357C22.9065 3.08533 22.7903 3.06253 22.7699 3.06309C22.7352 3.06401 22.7327 3.14568 22.7277 4.41315C22.7225 5.72068 22.7298 6.81013 22.7436 6.82526C22.7595 6.84261 23.441 6.97753 23.4529 6.96554C23.4601 6.95852 23.4717 6.11188 23.4786 5.08454ZM7.42933 6.70566C7.57775 6.67474 7.70198 6.64955 7.70542 6.64955C7.70886 6.64955 7.71416 6.22263 7.71716 5.70083C7.72122 4.99318 7.72845 4.76634 7.74566 4.80814C7.75828 4.83906 7.89989 5.24078 8.06022 5.70083C8.22063 6.16089 8.36225 6.53714 8.37478 6.53696C8.44298 6.53594 8.43672 6.55569 8.87631 4.96531C8.93604 4.74926 8.99278 4.56284 9.00248 4.55112C9.01219 4.5394 9.02004 4.95626 9.02004 5.4775C9.02004 5.99864 9.0271 6.42501 9.03584 6.42492C9.06116 6.42492 9.53039 6.35976 9.60133 6.34675L9.66575 6.33475L9.6586 4.52178C9.65472 3.52452 9.64642 2.67474 9.64025 2.6334C9.62966 2.56298 9.62481 2.55901 9.56172 2.57046C9.3811 2.6034 9.07819 2.63414 9.03045 2.62454C9.00089 2.61854 8.97292 2.6202 8.96816 2.62823C8.96348 2.63644 8.83033 3.08219 8.67239 3.61893C8.51445 4.15567 8.37504 4.62837 8.36295 4.66934C8.3506 4.71032 8.33648 4.73948 8.33154 4.73394C8.32651 4.72868 8.18966 4.31625 8.02739 3.81744C7.86504 3.31872 7.72863 2.89946 7.72404 2.8858C7.71831 2.86855 7.63889 2.87704 7.46595 2.9133C7.32857 2.9421 7.18686 2.96582 7.15113 2.96618L7.08584 2.96711L7.07198 3.67809C7.06431 4.0692 7.05804 4.91732 7.05804 5.56277C7.05804 6.8176 7.05257 6.74202 7.14575 6.75964C7.15334 6.76103 7.28101 6.73694 7.42933 6.70612V6.70566ZM22.2635 4.84598L22.2689 2.96757L22.2213 2.95677C22.0157 2.90989 21.7033 2.85433 21.6462 2.85433H21.5766L21.5884 3.58423C21.5997 4.29087 21.5988 4.31404 21.5599 4.31404C21.5378 4.31404 21.3631 4.28893 21.1716 4.2582C20.9803 4.22756 20.8166 4.20228 20.8078 4.20209C20.799 4.20209 20.792 3.86857 20.792 3.46121V2.72061L20.7446 2.71018C20.6505 2.68951 20.2105 2.62971 20.1538 2.6298H20.0959V6.39428L20.4282 6.44033C20.6108 6.46562 20.7661 6.48297 20.7732 6.47881C20.7802 6.47466 20.7813 6.08539 20.7755 5.61399L20.7649 4.75665L20.8153 4.7692C20.8431 4.77603 21.02 4.80445 21.2087 4.83223L21.5515 4.88271V6.62712L21.62 6.62832C21.6578 6.62924 21.8071 6.65296 21.9523 6.68138C22.0974 6.70999 22.2255 6.73122 22.2372 6.72891C22.251 6.72605 22.2601 6.07589 22.2636 4.84616V4.84598H22.2635ZM19.0055 6.32396C19.3259 6.23518 19.5343 6.0219 19.634 5.68109C19.669 5.56157 19.6737 5.46919 19.6737 4.91833V4.29152H18.7034V4.40042C18.7034 4.46031 18.6972 4.58675 18.6898 4.68115L18.6762 4.85299H19.0873L19.08 5.15219C19.0731 5.43182 19.069 5.45729 19.0165 5.54164C18.8606 5.79229 18.5382 5.74799 18.3499 5.45018C18.2135 5.23442 18.2076 5.18412 18.2076 4.2355C18.2076 3.40021 18.2087 3.38 18.2539 3.2902C18.3101 3.17845 18.4303 3.06198 18.5087 3.04371C18.5404 3.03632 18.5774 3.02663 18.5911 3.0223C18.6409 3.00624 18.7698 3.06078 18.8424 3.12861C18.9339 3.21416 18.9954 3.3381 19.0127 3.47192L19.0257 3.57306H19.3392C19.6975 3.57306 19.6719 3.59364 19.6225 3.34576C19.5207 2.83412 19.1266 2.49515 18.6335 2.49515C18.1468 2.49515 17.7478 2.81788 17.6028 3.32878C17.5816 3.40326 17.5749 3.64228 17.5752 4.31413C17.5756 5.29403 17.5873 5.41133 17.7123 5.67721C17.7922 5.84757 17.9655 6.05226 18.119 6.15793C18.233 6.23638 18.431 6.3198 18.5558 6.34205C18.6783 6.36392 18.8929 6.35524 19.0055 6.32396H19.0055ZM11.0243 6.20121C11.747 6.13661 11.794 6.12259 11.9772 5.91411C12.3144 5.53038 12.3613 4.73551 12.0654 4.4174C11.9992 4.34615 11.8603 4.27039 11.7942 4.26965C11.7669 4.26965 11.7845 4.25211 11.844 4.22064C12.1625 4.05286 12.2569 3.35241 12.0297 2.84307C11.9413 2.64503 11.8202 2.51047 11.6606 2.43267L11.5418 2.37472L11.1933 2.40222C10.8366 2.43037 10.1525 2.49709 10.1441 2.50456C10.1414 2.50678 10.1329 3.3561 10.1247 4.39174L10.1101 6.27468L10.3086 6.26102C10.418 6.25345 10.7401 6.2265 11.0243 6.20121ZM10.7448 5.67084C10.736 5.66152 10.7289 5.41964 10.7289 5.13327V4.61259L11.0401 4.59967L11.3512 4.58702L11.4207 4.65799C11.459 4.69703 11.5159 4.78461 11.5474 4.85272C11.5966 4.9594 11.6045 5.00434 11.6045 5.17849C11.6045 5.35928 11.5983 5.39195 11.5456 5.48719C11.4561 5.64925 11.4024 5.67029 11.0559 5.6797C10.8935 5.68413 10.7535 5.6797 10.7448 5.67084ZM10.8498 4.02795L10.7282 4.01983L10.7338 3.53255L10.7395 3.04527L11.0271 3.03909L11.3147 3.03291L11.4122 3.14827C11.6413 3.4195 11.6156 3.85832 11.3626 3.99408C11.2664 4.04567 11.1905 4.05065 10.8499 4.02795H10.8498ZM13.8995 6.12231C14.3396 6.0231 14.6423 5.69188 14.6939 5.25324C14.7045 5.1628 14.711 4.68457 14.7084 4.19046C14.7029 3.19976 14.6992 3.16746 14.5618 2.88802C14.4815 2.72467 14.2801 2.5054 14.1344 2.42261C13.9947 2.34325 13.8097 2.28787 13.6447 2.27606C13.2759 2.24967 12.8713 2.54028 12.6681 2.97781C12.5236 3.28882 12.5161 3.36745 12.5331 4.39211C12.5493 5.35503 12.5577 5.43615 12.6645 5.645C12.8595 6.02661 13.3992 6.23518 13.8995 6.12231ZM13.448 5.54062C13.3317 5.49633 13.245 5.42157 13.1859 5.31406L13.1323 5.2166L13.1279 4.27685L13.1235 3.33718L13.1817 3.21093C13.3289 2.8918 13.6794 2.83394 13.9323 3.08708C14.0284 3.18306 14.084 3.30654 14.1051 3.4697C14.1148 3.54501 14.1257 3.9603 14.1292 4.39257C14.1356 5.17286 14.1353 5.17932 14.0874 5.28342C13.9799 5.51654 13.6905 5.63291 13.448 5.54062ZM17.2477 6.1045C17.2477 6.08899 17.1101 5.71016 16.9418 5.26256C16.7735 4.81497 16.6358 4.43992 16.6358 4.42893C16.6358 4.41795 16.671 4.40189 16.7141 4.39331C17.0267 4.33083 17.2047 4.00515 17.205 3.49444C17.2054 3.01039 17.0142 2.56972 16.7259 2.38976C16.6178 2.32239 16.4462 2.30559 15.6285 2.28178L15.1169 2.26693V6.03805L15.1854 6.04913C15.2232 6.05513 15.3707 6.06195 15.5134 6.06389L15.7728 6.06758L15.7698 5.26376L15.7667 4.45994L15.9437 4.45348L16.1207 4.44702L16.3094 5.09349C16.4133 5.44908 16.5228 5.82072 16.5528 5.91946L16.6074 6.09924L16.8377 6.10551C16.9647 6.10902 17.0825 6.11539 17.1 6.11973C17.1758 6.13855 17.2477 6.13108 17.2477 6.1045ZM15.764 3.93991C15.7563 3.9316 15.7499 3.69534 15.7499 3.41479V2.90491L16.0099 2.88894C16.2975 2.87131 16.3813 2.89143 16.4933 3.00559C16.6767 3.19256 16.6664 3.70826 16.4757 3.88656L16.4024 3.95486H16.0904C15.9185 3.95486 15.7718 3.94812 15.764 3.93991H15.764Z" fill="#161718"/>
<path id="Vector_5" d="M14.4334 34.5789C13.7285 34.1215 11.9709 32.6255 10.7904 31.4783C8.853 29.5956 6.91014 27.0728 5.586 24.7206C2.76238 19.7048 1.29547 13.8559 1.12279 6.92525C1.07232 4.90139 1.07585 4.83744 1.25947 4.43331C1.50282 3.89768 1.72147 3.74023 2.87982 3.26652C6.07791 1.95873 9.45423 1.3536 14.078 1.25974C19.2985 1.15361 23.6148 1.81245 27.0886 3.24576C28.2926 3.74245 28.5067 3.89546 28.7514 4.43386C28.9356 4.83937 28.9388 4.89927 28.8873 6.97056C28.6044 18.3525 24.8714 26.794 17.2546 33.2763C16.3308 34.0626 15.3669 34.7794 15.1269 34.8588C15.008 34.8982 14.7898 34.8102 14.4334 34.5789ZM9.31456 26.8154C9.44664 26.7513 9.54353 26.5865 9.61491 26.3045C9.67288 26.0756 9.7792 25.8153 9.85129 25.7259C9.93061 25.6277 9.99635 25.3289 10.0179 24.9677C10.0494 24.4404 10.0908 24.3214 10.3766 23.936C10.5611 23.6874 10.7585 23.2805 10.8367 22.9878C10.9121 22.7058 11.0328 22.3538 11.1051 22.2057C11.646 21.0967 11.9953 20.4541 12.0571 20.4541C12.2433 20.4541 12.3922 20.88 12.3922 21.4127C12.3922 21.8327 12.4259 21.9922 12.5275 22.0528C12.6483 22.1248 12.6495 22.1613 12.5393 22.3941C12.4714 22.5374 12.3891 22.7734 12.3563 22.9188C12.2748 23.2802 12.0045 23.6645 11.7229 23.8195C11.594 23.8907 11.3125 24.1311 11.0974 24.3538C10.7872 24.6749 10.7065 24.8199 10.7075 25.0541C10.7093 25.45 10.8306 25.6569 10.9724 25.5059C11.1422 25.325 11.2192 25.3773 11.159 25.6328C11.1049 25.8627 11.1129 25.869 11.3849 25.8111C11.734 25.7367 12.0499 25.5228 12.1077 25.3217C12.1317 25.2382 12.1849 25.1091 12.2258 25.0351C12.2666 24.9611 12.4228 24.6241 12.5728 24.2863C12.7594 23.8658 12.9642 23.5685 13.2219 23.3435C13.429 23.1626 13.6535 22.8741 13.7209 22.7023C13.9201 22.1943 14.4997 21.7608 14.4997 22.1197C14.4997 22.3303 14.1737 22.9657 13.9352 23.2197C13.6354 23.539 13.4045 23.9672 13.404 24.2043C13.4037 24.4124 13.5222 24.4756 13.6145 24.3166C13.7063 24.1584 13.811 24.2207 13.7654 24.4065C13.7284 24.5575 13.7628 24.5861 13.9811 24.5861C14.4143 24.5861 14.8218 24.3262 14.8844 24.01C14.9146 23.8576 15.0124 23.6044 15.1019 23.4474C15.2084 23.2606 15.2462 23.0838 15.2112 22.9357C15.1542 22.6939 15.3089 22.0712 15.4259 22.0712C15.5131 22.0712 15.8182 22.7408 15.8966 23.1041C15.9286 23.2522 16.0293 23.461 16.1202 23.5679C16.2743 23.7488 16.3416 23.759 17.0996 23.7137C17.884 23.6669 17.9214 23.655 18.1244 23.388C18.2771 23.1871 18.3482 22.9618 18.3828 22.5685C18.4435 21.8754 18.7293 21.4038 19.3856 20.9131L19.8765 20.5462L19.9974 20.7473C20.0639 20.8578 20.2079 21.181 20.3173 21.4654C20.5 21.9406 20.5076 22.0186 20.4093 22.4271C20.3505 22.6715 20.3276 22.9562 20.3584 23.0596C20.3897 23.1644 20.3482 23.4437 20.2648 23.6907L20.1153 24.1336L20.3147 24.3599C20.541 24.6165 20.6973 24.6481 20.7681 24.4513C20.8324 24.273 20.9905 24.2784 20.9905 24.4587C20.9905 24.6497 21.1561 24.5798 21.3465 24.308C21.4921 24.1001 21.4935 24.0613 21.3686 23.6849C21.2953 23.4642 21.2524 23.2139 21.2731 23.1288C21.2938 23.0436 21.2733 22.8011 21.2272 22.5899C21.1221 22.1072 21.1278 21.5419 21.2436 20.9475C21.325 20.5299 21.3135 20.4393 21.1234 20.0022C21.0078 19.7363 20.9291 19.5019 20.9485 19.4813C20.9678 19.4607 21.1274 19.5041 21.3032 19.5777C22.1205 19.9201 22.7591 19.842 23.1469 19.3523L23.3768 19.0621L22.8791 19.0169C22.3134 18.9654 22.2874 18.9519 21.6904 18.3948C21.2695 18.0023 21.2541 17.9715 21.2992 17.6203C21.3259 17.413 21.2842 16.9577 21.203 16.5691C21.0712 15.9374 21.0705 15.8454 21.1939 15.3933C21.2675 15.1235 21.3277 14.784 21.3277 14.639C21.3277 14.2049 21.1008 13.5351 20.8336 13.1808C20.6957 12.9981 20.5415 12.6859 20.4915 12.487C20.4412 12.2883 20.307 11.9794 20.1932 11.8007C19.9981 11.4943 19.9932 11.4577 20.109 11.1625C20.1766 10.9903 20.2318 10.6272 20.2318 10.3556C20.2318 9.92661 20.196 9.81826 19.9579 9.52931C19.4414 8.9025 19.1996 8.84537 16.7336 8.76776C13.8867 8.67824 13.4383 8.56445 13.8806 8.04376C14.0614 7.83058 14.3567 7.83612 14.9711 8.06434C15.6424 8.31333 16.4636 8.37517 16.9444 8.21293C17.3571 8.07357 17.3646 8.08096 16.6493 7.92268C16.5334 7.89712 16.4384 7.83114 16.4384 7.77622C16.4384 7.70913 16.5695 7.69501 16.8389 7.73322C17.941 7.88937 18.1244 7.90081 18.1244 7.81323C18.1244 7.66742 17.3841 7.36813 16.6119 7.20137C15.3701 6.93337 14.1731 7.1555 13.6066 7.75897C13.2585 8.12996 13.2188 8.52393 13.5091 8.72567C13.8742 8.97937 14.4744 9.05698 16.6181 9.12851C18.5785 9.19375 18.8136 9.21839 19.1543 9.39411C19.5734 9.61034 19.7554 9.89246 19.7444 10.3087C19.7352 10.6544 19.518 11.023 19.3237 11.023C18.9946 11.0228 17.9057 10.7319 17.1345 10.4382C16.6821 10.2659 16.236 10.1251 16.1434 10.1254C15.934 10.1259 15.6881 10.2978 14.9595 10.9532C14.6452 11.2359 14.086 11.6347 13.7167 11.8394C12.5214 12.5021 12.1523 13.0289 11.9863 14.3106C11.8963 15.0048 11.7847 15.2824 11.2706 16.0916C10.8439 16.7632 10.5416 17.666 10.5394 18.2762C10.5382 18.5708 10.4394 19.0428 10.2761 19.5336C10.0598 20.1833 10.0113 20.4747 9.99564 21.2176C9.97941 21.9879 9.94614 22.1753 9.762 22.5345C9.62938 22.7932 9.52447 23.1799 9.48758 23.5462C9.43332 24.0866 9.39132 24.1849 9.0142 24.6544C8.78656 24.9377 8.59994 25.2188 8.5995 25.2788C8.59906 25.3389 8.48426 25.5269 8.34432 25.6967C8.0227 26.087 7.86503 26.5346 7.99897 26.6773C8.07017 26.7531 8.1277 26.7286 8.22485 26.5806C8.40979 26.2994 8.51576 26.3333 8.43132 26.6467C8.38279 26.827 8.39153 26.9258 8.45841 26.9568C8.58538 27.0159 9.06476 26.9367 9.31456 26.8154ZM15.7663 7.97289C15.5299 7.81342 15.7553 7.7717 16.1171 7.9081L16.4805 8.04506L16.1854 8.05078C16.0233 8.05392 15.8346 8.01885 15.7663 7.97289ZM3.60423 7.86334C4.25753 7.60955 4.2997 7.57725 4.2997 7.33223C4.2997 7.18863 4.28664 7.07124 4.27076 7.07124C4.25479 7.07124 4.02123 7.15209 3.75176 7.25083C3.4822 7.34958 3.24864 7.43052 3.23276 7.43052C3.21679 7.43052 3.20382 6.72314 3.20382 5.85868C3.20382 4.99423 3.1905 4.28685 3.17426 4.28685C3.15794 4.28685 3.02514 4.33115 2.8792 4.38541L2.61379 4.48398V6.37106C2.61379 8.13218 2.6235 8.2539 2.76132 8.19576C2.84241 8.16143 3.22173 8.01183 3.60423 7.86334ZM27.3971 6.36146V4.48398L27.1315 4.38541C26.9855 4.33124 26.8528 4.28685 26.8365 4.28685C26.8202 4.28685 26.8069 5.1298 26.8069 6.16009V8.03334L27.0808 8.12701C27.1795 8.16026 27.2779 8.19453 27.3759 8.22981C27.3875 8.23471 27.3971 7.39406 27.3971 6.36146ZM26.1131 5.84263L26.0904 3.98526L25.8586 3.91927L25.6268 3.85329L25.6254 4.85589C25.624 6.00505 25.6154 6.00164 25.1106 4.64612C24.7406 3.65265 24.6203 3.47851 24.304 3.47851H24.1093V5.31964C24.1093 6.73227 24.1339 7.16132 24.2147 7.16233C24.2726 7.16298 24.4041 7.18752 24.507 7.21696C24.6918 7.26957 24.6943 7.2572 24.7178 6.17652L24.7416 5.08264L25.2026 6.30794C25.4561 6.982 25.7216 7.5695 25.7927 7.6138C26.1278 7.82301 26.137 7.7729 26.1131 5.84263ZM5.06947 7.37616C5.09885 7.35798 5.14888 7.1208 5.18064 6.8492C5.24576 6.29474 5.24029 6.30194 5.65976 6.21814L5.96506 6.15714L6.06714 6.61027C6.1672 7.05482 6.17426 7.06238 6.43561 7.0095C6.58208 6.97988 6.71744 6.94158 6.73641 6.92432C6.77876 6.88584 5.97935 3.54449 5.90947 3.46845C5.88176 3.43827 5.74288 3.4475 5.60082 3.48921C5.34458 3.56415 5.34 3.57633 5.02782 5.02607C4.88573 5.68751 4.74211 6.3486 4.59697 7.00932L4.48085 7.53157L4.74847 7.47038C4.89573 7.43679 5.04008 7.39452 5.06947 7.37616ZM5.43476 5.55349C5.46273 5.45991 5.51497 5.20732 5.55079 4.99229L5.61608 4.60118L5.72717 5.08292C5.8207 5.48834 5.81982 5.57702 5.72223 5.64282C5.51894 5.78006 5.38014 5.73696 5.43485 5.55358L5.43476 5.55349ZM23.5194 5.1454C23.5194 4.13559 23.491 3.29227 23.4561 3.2716C23.4214 3.25074 23.2886 3.20728 23.1611 3.1747L22.9293 3.11564V6.87966L23.1611 6.91703C23.2886 6.93761 23.4214 6.96041 23.4561 6.96779C23.4909 6.97536 23.5194 6.1552 23.5194 5.1454ZM7.60138 6.75618C7.68344 6.72277 7.70629 6.54724 7.68635 6.10223C7.67135 5.76769 7.67135 5.33348 7.68635 5.13746C7.71159 4.80698 7.73753 4.85589 8.04158 5.8071L8.36956 6.83314L8.67379 5.68251L8.97803 4.53169L9.00185 5.54057C9.0225 6.40779 9.04411 6.54179 9.15626 6.49593C9.22809 6.46658 9.35964 6.44258 9.44859 6.44258C9.60282 6.44258 9.61032 6.35611 9.61032 4.57442V2.70616L9.32259 2.74206C9.04076 2.77713 9.03035 2.79365 8.81214 3.55483C8.6895 3.98212 8.53976 4.49339 8.47914 4.69107L8.36885 5.05034L8.09444 4.10717C7.94356 3.58851 7.79047 3.12976 7.75411 3.08767C7.71785 3.04568 7.57058 3.03876 7.42694 3.07235L7.16576 3.13354V4.96765C7.16576 6.71585 7.17335 6.80177 7.3275 6.80177C7.41635 6.80177 7.53961 6.78119 7.60138 6.75618ZM22.2356 4.84823L22.2126 2.9845L21.9809 2.95607L21.7491 2.92765V4.37858L21.3908 4.32524C20.8029 4.23757 20.8217 4.26562 20.8217 3.48118C20.8217 2.96456 20.7919 2.7595 20.7165 2.75858C20.6585 2.75793 20.5257 2.73301 20.4214 2.7032L20.2317 2.64903V6.42265L20.5268 6.45929L20.8219 6.49593V5.66073C20.8219 4.73555 20.7943 4.77053 21.4331 4.88312L21.7492 4.93877V5.77378C21.7492 6.49343 21.7695 6.61433 21.8967 6.64977C22.2684 6.7535 22.2594 6.8013 22.2356 4.84823ZM11.6259 6.14164C11.9722 5.96537 12.1684 5.59345 12.1752 5.10008C12.18 4.75447 12.1397 4.60672 11.9996 4.45749C11.8191 4.26498 11.8189 4.26166 11.9783 3.98332C12.1717 3.64527 12.1833 3.29061 12.0124 2.93835C11.8533 2.61055 11.4466 2.49168 10.7485 2.56911L10.2427 2.62513L10.2198 4.49819L10.1971 6.37125L10.81 6.30812C11.1468 6.27351 11.5141 6.19858 11.6259 6.14164ZM10.7905 5.20095C10.7905 4.73361 10.8125 4.66089 10.9682 4.61761C11.4401 4.4861 11.7819 4.9839 11.5384 5.44819C11.4483 5.62031 11.3376 5.6862 11.104 5.70696L10.7905 5.73483V5.20095ZM10.7905 3.61085V3.11914H11.0687C11.4057 3.11914 11.5492 3.25527 11.5492 3.57523C11.5492 3.86076 11.4342 3.97271 11.0644 4.04737L10.7905 4.10265V3.61085ZM19.3592 6.1277C19.5824 5.97174 19.7249 5.49092 19.7255 4.89032C19.7261 4.41799 19.7188 4.41162 19.1148 4.34998L18.7144 4.309V4.61235C18.7144 4.87601 18.7419 4.9157 18.9251 4.9157C19.0952 4.9157 19.1359 4.95999 19.1359 5.14614C19.1359 5.67836 18.7343 5.91516 18.4331 5.5605C18.0199 5.07406 18.1121 3.22094 18.557 3.0706C18.7426 3.00784 19.0515 3.24336 19.0515 3.44759C19.0515 3.52576 19.1556 3.5684 19.3466 3.5684C19.6812 3.5684 19.7188 3.44907 19.5156 3.03055C19.3374 2.66324 19.0678 2.49058 18.6721 2.49058C17.9486 2.49058 17.6211 3.0658 17.624 4.33189C17.6258 5.16884 17.7462 5.69737 18.0041 6.00081C18.302 6.3515 18.9514 6.41231 19.3592 6.1277ZM14.1447 6.03237C14.2484 5.95503 14.4159 5.72265 14.517 5.51593C14.7814 4.97531 14.7865 3.61823 14.5264 3.01329C14.3491 2.60095 14.0056 2.31089 13.6946 2.31089C13.3999 2.31089 13.0029 2.60003 12.8192 2.94841C12.4274 3.69114 12.5041 5.33496 12.9572 5.90889C13.1335 6.13204 13.2272 6.17301 13.5611 6.17301C13.7833 6.17301 14.0387 6.11146 14.1447 6.03237ZM13.3424 5.39134C13.2334 5.21443 13.1861 4.92806 13.1679 4.33595C13.1464 3.64056 13.1681 3.48035 13.3175 3.22546C13.5357 2.85354 13.8094 2.86508 13.993 3.25388C14.183 3.65625 14.1683 5.06981 13.9707 5.39107C13.7801 5.70097 13.5331 5.70115 13.3424 5.39134ZM15.764 5.33597C15.764 4.57737 15.7717 4.54507 15.9444 4.57257C16.0879 4.59537 16.1779 4.76167 16.3852 5.38719L16.6455 6.17311H17.2758L16.999 5.32646L16.7219 4.47982L16.9482 4.25224C17.2246 3.97437 17.3106 3.5696 17.1926 3.10299C17.0612 2.58286 16.7311 2.40143 15.9147 2.40106L15.2647 2.40069L15.2404 4.24966C15.2269 5.26666 15.2223 6.10518 15.23 6.1134C15.2377 6.12152 15.3611 6.12816 15.5039 6.12816H15.7639V5.33597H15.764ZM15.8272 3.96542C15.7924 3.92813 15.764 3.67674 15.764 3.40671V2.91593L16.1193 2.96668C16.624 3.03867 16.8378 3.4104 16.5856 3.7777C16.472 3.94327 15.9314 4.07699 15.8272 3.96542ZM0.0136719 6.4424C0.0136719 6.31901 0.0329072 6.26844 0.0562895 6.33018C0.0796719 6.39192 0.0796719 6.49307 0.0562895 6.55481C0.0329072 6.61655 0.0137601 6.56588 0.0137601 6.44249L0.0136719 6.4424ZM0.0256719 5.63396C0.0256719 5.36246 0.041466 5.25125 0.0607895 5.3871C0.0801131 5.52294 0.0801131 5.74517 0.0607895 5.88111C0.0413778 6.01705 0.0256719 5.90575 0.0256719 5.63396Z" fill="#161718"/>
</g>
<defs>
<clipPath id="clip0_1159_4220">
<rect width="30" height="36" fill="white"/>
</clipPath>
</defs>
</svg>
