<svg width="480" height="548" viewBox="0 0 480 548" fill="none" xmlns="http://www.w3.org/2000/svg">
<mask id="mask0_1042_2534" style="mask-type:alpha" maskUnits="userSpaceOnUse" x="0" y="0" width="480" height="548">
<rect width="480" height="548" rx="4" fill="#161718"/>
</mask>
<g mask="url(#mask0_1042_2534)">
<g opacity="0.4">
<path d="M1014.66 91.6386C1014.66 91.6386 1145.84 -315.28 817.931 -452.589C651.638 -522.218 336.119 -449.811 409.355 -81.7747C462.502 185.302 750.076 317.814 750.076 317.814" stroke="white" stroke-width="6" stroke-linecap="round" stroke-linejoin="round"/>
<path d="M761.936 -416.683C761.936 -416.683 285.201 -515.763 283.765 -129.494C282.329 256.776 646.747 241.869 773.422 50.0012" stroke="white" stroke-width="6" stroke-linecap="round" stroke-linejoin="round"/>
<path d="M521.909 117.718C584.074 55.5524 584.074 -45.2373 521.909 -107.403C459.744 -169.568 358.954 -169.568 296.789 -107.403C234.623 -45.2373 234.623 55.5524 296.789 117.718C358.954 179.883 459.744 179.883 521.909 117.718Z" stroke="white" stroke-width="6" stroke-linecap="round" stroke-linejoin="round"/>
<path d="M1313.31 -428.076C1313.31 -428.076 1156.67 -273.421 734.668 -330.502C312.656 -387.571 137.784 -304.483 136.535 -59.0474C135.694 105.856 217.475 391.365 1007.3 225.703" stroke="white" stroke-width="6" stroke-linecap="round" stroke-linejoin="round"/>
<path d="M1360 -341.696C1360 -341.696 1203.36 -214.076 781.359 -261.176C359.359 -308.276 223.205 -259.927 241.59 -37.1722C252.785 98.4441 374.055 319.6 1053.98 127.767" stroke="white" stroke-width="6" stroke-linecap="round" stroke-linejoin="round"/>
<path d="M325.974 261.037C462.568 261.037 573.3 156.89 573.3 28.418C573.3 -100.054 462.568 -204.201 325.974 -204.201C189.379 -204.201 78.6475 -100.054 78.6475 28.418C78.6475 156.89 189.379 261.037 325.974 261.037Z" stroke="white" stroke-width="6" stroke-linecap="round" stroke-linejoin="round"/>
<path d="M294.562 50.0364C412.202 155.128 561.032 169.731 615.008 112.16C722.947 -2.97043 691.757 -172.076 557.437 -229.636C423.116 -287.207 215.268 -229.379 205.509 -18.6238C195.552 196.31 423.957 281.278 497.123 319.6" stroke="white" stroke-width="6" stroke-linecap="round" stroke-linejoin="round"/>
<path d="M621.789 165.505C621.789 165.505 853.567 139.918 855.318 -60.4363C857.057 -260.779 602.75 -394.761 409.353 -248.021C195.936 -86.0935 456.115 245.535 667.033 19.0681C877.952 -207.399 642.777 -465.616 480.756 -460.76C318.736 -455.904 283.752 -339.175 283.752 -339.175" stroke="white" stroke-width="6" stroke-linecap="round" stroke-linejoin="round"/>
<path d="M86.3524 -168.715C86.3524 -168.715 -105.738 55.3239 119.445 244.11" stroke="white" stroke-width="6" stroke-linecap="round" stroke-linejoin="round"/>
</g>
</g>
</svg>
