<svg width="16" height="16" viewBox="0 0 16 16" fill="none" xmlns="http://www.w3.org/2000/svg">
<g id="Frame 23" clip-path="url(#clip0_1636_1526)">
<g id="Group 82">
<path id="Vector" d="M0 7H5V9H0M8 14V12H16V14M11 2H16V4H11V2Z" fill="#161718"/>
<path id="Vector_2" d="M10 15.5L10 10.5L8 10.5L8 15.5L10 15.5Z" fill="#161718"/>
<path id="Vector_3" d="M6 10.5L6 5.5L4 5.5L4 10.5L6 10.5Z" fill="#161718"/>
<path id="Vector_4" d="M12 5.5L12 0.5L10 0.5L10 5.5L12 5.5Z" fill="#161718"/>
<path id="Vector_5" d="M0 4L8 4L8 2L1.74845e-07 2L0 4Z" fill="#161718"/>
<path id="Vector_6" d="M8 9L16 9L16 7L8 7L8 9Z" fill="#161718"/>
<rect id="Rectangle 10" y="12" width="6" height="2" fill="#161718"/>
</g>
</g>
<defs>
<clipPath id="clip0_1636_1526">
<rect width="16" height="16" fill="white"/>
</clipPath>
</defs>
</svg>
