<svg aria-hidden="true" xmlns="http://www.w3.org/2000/svg" xmlns:xlink="http://www.w3.org/1999/xlink"><symbol viewBox="0 0 70 48" id="arrow-left" xmlns="http://www.w3.org/2000/svg">
<path d="M70 22.1455L70 25.8545L7.15308 25.8544L18.5451 37.2465L15.8958 39.8958L-8.37534e-05 23.9999L15.8959 8.10398L18.5452 10.7533L7.15308 22.1454L70 22.1455Z"/>
</symbol><symbol viewBox="0 0 18 18" id="arrow-left-2" xmlns="http://www.w3.org/2000/svg">
<g id="amaterial-symbols:arrow-outward" clip-path="url(#aclip0_1636_1541)">
<path id="aVector" d="M16.0847 8.08453L16.0847 9.91531H3.53072L9.15385 15.5384L7.84615 16.8461L-8.02938e-05 8.99992L7.84615 1.15369L9.15385 2.4614L3.53072 8.08453L16.0847 8.08453Z"/>
</g>
<defs>
<clipPath id="aclip0_1636_1541">
<rect width="18" height="18"/>
</clipPath>
</defs>
</symbol><symbol viewBox="0 0 70 48" id="arrow-right" xmlns="http://www.w3.org/2000/svg">
<path d="M-8.91548e-06 25.8545L-3.86537e-06 22.1455L62.8469 22.1456L51.4549 10.7535L54.1042 8.10419L70.0001 24.0001L54.1041 39.896L51.4548 37.2467L62.8469 25.8546L-8.91548e-06 25.8545Z"/>
</symbol><symbol viewBox="0 0 18 18" id="arrow-top-right" xmlns="http://www.w3.org/2000/svg">
<path d="M3.50769 16L2 14.4923L12.3385 4.15385H3.07692V2H16V14.9231H13.8462V5.66154L3.50769 16Z"/>
</symbol><symbol viewBox="0 0 15 16" id="calendar" xmlns="http://www.w3.org/2000/svg">
<path id="eVector" d="M6.4 9.6V8H8V9.6H6.4ZM3.2 9.6V8H4.8V9.6H3.2ZM9.6 9.6V8H11.2V9.6H9.6ZM6.4 12.8V11.2H8V12.8H6.4ZM3.2 12.8V11.2H4.8V12.8H3.2ZM9.6 12.8V11.2H11.2V12.8H9.6ZM0 16V1.6H2.4V0H4V1.6H10.4V0H12V1.6H14.4V16H0ZM1.6 14.4H12.8V6.4H1.6V14.4Z"/>
</symbol><symbol viewBox="0 0 18 18" id="close" xmlns="http://www.w3.org/2000/svg">
<line x1="1.70711" y1="1.29289" x2="16.5563" y2="16.1421" stroke="#161718" stroke-width="2"/>
<line x1="1.22185" y1="16.435" x2="16.0711" y2="1.58574" stroke="#161718" stroke-width="2"/>
</symbol><symbol viewBox="0 0 16 16" id="filter" xmlns="http://www.w3.org/2000/svg">
<g id="gFrame 23" clip-path="url(#gclip0_1636_1526)">
<g id="gGroup 82">
<path id="gVector" d="M0 7H5V9H0M8 14V12H16V14M11 2H16V4H11V2Z"/>
<path id="gVector_2" d="M10 15.5L10 10.5L8 10.5L8 15.5L10 15.5Z"/>
<path id="gVector_3" d="M6 10.5L6 5.5L4 5.5L4 10.5L6 10.5Z"/>
<path id="gVector_4" d="M12 5.5L12 0.5L10 0.5L10 5.5L12 5.5Z"/>
<path id="gVector_5" d="M0 4L8 4L8 2L1.74845e-07 2L0 4Z"/>
<path id="gVector_6" d="M8 9L16 9L16 7L8 7L8 9Z"/>
<rect id="gRectangle 10" y="12" width="6" height="2"/>
</g>
</g>
<defs>
<clipPath id="gclip0_1636_1526">
<rect width="16" height="16"/>
</clipPath>
</defs>
</symbol><symbol viewBox="0 0 180 34" id="logo" xmlns="http://www.w3.org/2000/svg">
<path d="M89.6442 2.13453V0.000137329H63.5572C62.2474 0.000137329 61.1857 1.0618 61.1857 2.37168V17.0752H89.6442V14.9409H71.1462V9.24915H88.2213V7.11476H71.1462V2.13453H89.6442Z"/>
<path d="M149.407 0.000137329H139.447H130.909H120.949V2.13453H130.909V17.0752H139.447V2.13453H149.407V0.000137329Z"/>
<path d="M180 4.98038V2.37168C180 1.0618 178.938 0.000137329 177.628 0.000137329H153.202C151.892 0.000137329 150.83 1.0618 150.83 2.37168V9.24915H170.039V14.9409H160.79V11.3835H150.83V14.7037C150.83 16.0136 151.892 17.0752 153.202 17.0752H177.628C178.938 17.0752 180 16.0136 180 14.7037V7.11476H160.79V2.13453H170.039V4.98038H180Z"/>
<path d="M115.968 0.000137329H93.4386C92.1287 0.000137329 91.067 1.0618 91.067 2.37168V17.0752H101.027V9.24915H109.565V17.0752H119.526V0.000137329H115.968ZM101.027 7.11476V2.13453H109.565V7.11476H101.027Z"/>
<path d="M59.0513 2.37168C59.0513 1.0618 57.9896 0.000137329 56.6798 0.000137329H30.5928V17.0752H40.5533V9.24915H44.822L48.3794 17.0752H59.0513L56.1406 10.6721H59.0513V2.37168ZM40.5533 7.11476V2.13453H49.0908V7.11476H40.5533Z"/>
<path d="M9.96048 14.9407V2.13439H28.4585V0H2.37154C1.06166 0 0 1.06166 0 2.37154V17.0751H26.087C27.3968 17.0751 28.4585 16.0134 28.4585 14.7036V7.11463H14.2293V9.24901H18.498V14.9407H9.96048Z"/>
<path d="M30.6091 27.1923H33.095C33.5476 27.1923 33.9451 27.2419 34.2875 27.3412C34.63 27.4342 34.9449 27.611 35.2323 27.8716C35.8744 28.4548 36.1955 29.2954 36.1955 30.3935C36.1955 31.5661 35.8897 32.4626 35.2782 33.083C35.0091 33.356 34.7156 33.5483 34.3976 33.66C34.0857 33.7654 33.6729 33.8182 33.1592 33.8182H30.6091V27.1923ZM31.7466 28.1787V32.841H33.095C33.8105 32.841 34.315 32.6301 34.6086 32.2082C34.9021 31.7864 35.0489 31.2001 35.0489 30.4494C35.0489 29.7359 34.8838 29.1807 34.5535 28.7836C34.2233 28.3803 33.7127 28.1787 33.0216 28.1787H31.7466Z"/>
<path d="M42.5678 27.1923V28.1694H38.9995V29.9282H42.3109V30.8682H38.9995V32.8224H42.6228V33.8182H37.862V27.1923H42.5678Z"/>
<path d="M48.7585 32.8131V33.8182H44.2821V27.1923H45.4379V32.8131H48.7585Z"/>
<path d="M55.5026 27.1923V31.2497C55.5026 33.0489 54.6159 33.9485 52.8425 33.9485C51.9191 33.9485 51.2372 33.7251 50.7969 33.2784C50.3627 32.8317 50.1456 32.1493 50.1456 31.2311V27.1923H51.2922V31.4637C51.2922 32.4812 51.8151 32.9899 52.8608 32.9899C53.1788 32.9899 53.4387 32.9465 53.6405 32.8596C53.8484 32.7728 54.0013 32.6394 54.0992 32.4595C54.197 32.2796 54.2643 32.0872 54.301 31.8825C54.3377 31.6716 54.356 31.411 54.356 31.1008V27.1923H55.5026Z"/>
<path d="M56.7197 33.8182L59.0496 30.3842L56.8848 27.1923H58.2516L59.7376 29.5374L61.2879 27.1923H62.5721L60.4072 30.3842L62.728 33.8182H61.3337L59.7009 31.2869L58.0406 33.8182H56.7197Z"/>
<path d="M68.7495 27.1923V28.1694H65.1812V29.9282H68.4927V30.8682H65.1812V32.8224H68.8045V33.8182H64.0438V27.1923H68.7495Z"/>
<path d="M76.6493 27.183L79.1719 33.8182H77.9427L77.3189 32.0593H74.7322L74.0901 33.8182H72.9067L75.4293 27.183H76.6493ZM77.0162 31.1846L76.0439 28.3928L75.0257 31.1846H77.0162Z"/>
<path d="M85.7305 27.1923V31.2497C85.7305 33.0489 84.8438 33.9485 83.0703 33.9485C82.1469 33.9485 81.4651 33.7251 81.0248 33.2784C80.5906 32.8317 80.3735 32.1493 80.3735 31.2311V27.1923H81.5201V31.4637C81.5201 32.4812 82.043 32.9899 83.0887 32.9899C83.4067 32.9899 83.6666 32.9465 83.8684 32.8596C84.0763 32.7728 84.2292 32.6394 84.327 32.4595C84.4249 32.2796 84.4922 32.0872 84.5288 31.8825C84.5655 31.6716 84.5839 31.411 84.5839 31.1008V27.1923H85.7305Z"/>
<path d="M92.378 27.1923V28.1973H90.2957V33.8182H89.1491V28.1973H87.0668V27.1923H92.378Z"/>
<path d="M96.5863 27.0341C97.5097 27.0341 98.2589 27.3567 98.8337 28.0019C99.4146 28.6409 99.7051 29.4754 99.7051 30.5052C99.7051 31.5351 99.4146 32.3726 98.8337 33.0178C98.2527 33.6569 97.4975 33.9764 96.568 33.9764C95.6323 33.9764 94.874 33.6569 94.2931 33.0178C93.7182 32.3788 93.4308 31.5413 93.4308 30.5052C93.4308 29.5002 93.7121 28.6719 94.2747 28.0205C94.8434 27.3629 95.614 27.0341 96.5863 27.0341ZM96.568 28.0112C95.9687 28.0112 95.4886 28.2377 95.1278 28.6905C94.767 29.1372 94.5866 29.7359 94.5866 30.4866C94.5866 31.2559 94.7639 31.867 95.1186 32.3199C95.4794 32.7728 95.9687 32.9992 96.5863 32.9992C97.1795 32.9992 97.6534 32.7728 98.0081 32.3199C98.3689 31.8608 98.5493 31.2528 98.5493 30.4959C98.5493 29.739 98.3689 29.1372 98.0081 28.6905C97.6534 28.2377 97.1734 28.0112 96.568 28.0112Z"/>
<path d="M110.31 30.2726V33.8182H109.576L109.402 33.0272C108.882 33.66 108.203 33.9764 107.365 33.9764C106.448 33.9764 105.702 33.66 105.127 33.0272C104.558 32.3943 104.274 31.5692 104.274 30.5518C104.274 29.5529 104.561 28.7216 105.136 28.0577C105.711 27.3877 106.488 27.0527 107.466 27.0527C108.176 27.0527 108.793 27.2543 109.319 27.6576C109.851 28.0608 110.154 28.6099 110.227 29.3047H109.117C109.05 28.9077 108.867 28.5975 108.567 28.3741C108.273 28.1446 107.904 28.0298 107.457 28.0298C106.827 28.0298 106.332 28.2532 105.971 28.6999C105.61 29.1465 105.43 29.7576 105.43 30.5331C105.43 31.3148 105.61 31.929 105.971 32.3757C106.338 32.8162 106.846 33.0365 107.494 33.0365C108.063 33.0365 108.5 32.8565 108.806 32.4967C109.117 32.1369 109.273 31.6933 109.273 31.1659H107.512V30.2726H110.31Z"/>
<path d="M115.16 27.183L117.683 33.8182H116.454L115.83 32.0593H113.243L112.601 33.8182H111.418L113.94 27.183H115.16ZM115.527 31.1846L114.555 28.3928L113.537 31.1846H115.527Z"/>
<path d="M123.407 32.8131V33.8182H118.931V27.1923H120.086V32.8131H123.407Z"/>
<path d="M129.316 32.8131V33.8182H124.84V27.1923H125.996V32.8131H129.316Z"/>
<path d="M135.455 27.1923V28.1694H131.887V29.9282H135.198V30.8682H131.887V32.8224H135.51V33.8182H130.749V27.1923H135.455Z"/>
<path d="M137.169 27.1923H140.261C140.909 27.1923 141.438 27.3412 141.848 27.639C142.257 27.9306 142.462 28.3959 142.462 29.0349C142.462 29.4319 142.367 29.7731 142.178 30.0585C141.988 30.3377 141.722 30.5393 141.38 30.6634C141.539 30.7006 141.676 30.7565 141.793 30.8309C141.909 30.9054 141.997 30.986 142.059 31.0729C142.126 31.1597 142.181 31.2714 142.224 31.4079C142.266 31.5444 142.294 31.6654 142.306 31.7708C142.325 31.8701 142.34 32.0035 142.352 32.171C142.358 32.2144 142.364 32.2982 142.37 32.4223C142.383 32.5463 142.389 32.6301 142.389 32.6735C142.395 32.7107 142.401 32.779 142.407 32.8783C142.419 32.9775 142.429 33.0489 142.435 33.0923C142.441 33.1295 142.45 33.1885 142.462 33.2691C142.48 33.3436 142.496 33.4025 142.508 33.4459C142.52 33.4831 142.536 33.5297 142.554 33.5855C142.572 33.6351 142.594 33.6786 142.618 33.7158C142.643 33.753 142.67 33.7871 142.701 33.8182H141.471C141.453 33.7933 141.435 33.7654 141.416 33.7344C141.404 33.6972 141.392 33.66 141.38 33.6227C141.368 33.5793 141.358 33.5421 141.352 33.5111C141.346 33.4738 141.337 33.4273 141.325 33.3715C141.319 33.3094 141.312 33.2598 141.306 33.2226C141.306 33.1854 141.303 33.1295 141.297 33.0551C141.291 32.9806 141.285 32.9248 141.279 32.8876C141.279 32.8503 141.276 32.7852 141.27 32.6921C141.264 32.5991 141.26 32.5339 141.26 32.4967C141.23 31.957 141.117 31.5878 140.921 31.3893C140.732 31.1846 140.368 31.0822 139.83 31.0822H138.307V33.8182H137.169V27.1923ZM138.307 28.1415V30.2167H139.82C140.04 30.2167 140.227 30.2043 140.38 30.1795C140.533 30.1547 140.686 30.1113 140.839 30.0492C140.998 29.981 141.117 29.8724 141.196 29.7235C141.282 29.5746 141.325 29.3854 141.325 29.1558C141.325 28.9449 141.288 28.7712 141.215 28.6347C141.141 28.492 141.034 28.3865 140.894 28.3183C140.759 28.2501 140.618 28.2035 140.472 28.1787C140.331 28.1539 140.163 28.1415 139.967 28.1415H138.307Z"/>
<path d="M149.259 27.1923L146.801 31.1846V33.8182H145.673V31.1846L143.205 27.1923H144.526L146.26 30.1237L147.975 27.1923H149.259Z"/>
</symbol><symbol viewBox="0 0 24 24" id="phone" xmlns="http://www.w3.org/2000/svg">
<path d="M21.5576 2.15479L21.8795 2.47675C23.4416 4.03884 23.4416 6.5715 21.8795 8.1336L8.63404 21.3791C7.07195 22.9412 4.53929 22.9412 2.97719 21.3791L2.65523 21.0571L21.5576 2.15479Z"/>
<rect x="19.1947" y="-0.208008" width="3.34149" height="7.79681" transform="rotate(45 19.1947 -0.208008)"/>
<rect x="5.80566" y="13.1812" width="3.34149" height="7.79681" transform="rotate(45 5.80566 13.1812)"/>
</symbol><symbol viewBox="0 0 16 14" id="print" xmlns="http://www.w3.org/2000/svg">
<path id="jVector" d="M12.8 3.11111H3.2V0H12.8V3.11111ZM12.8 7.38889C13.0267 7.38889 13.2168 7.31422 13.3704 7.16489C13.524 7.01556 13.6005 6.83096 13.6 6.61111C13.6 6.39074 13.5232 6.20589 13.3696 6.05656C13.216 5.90722 13.0261 5.83281 12.8 5.83333C12.5733 5.83333 12.3832 5.908 12.2296 6.05733C12.076 6.20667 11.9995 6.39126 12 6.61111C12 6.83148 12.0768 7.01633 12.2304 7.16567C12.384 7.315 12.5739 7.38941 12.8 7.38889ZM11.2 12.4444V9.33333H4.8V12.4444H11.2ZM12.8 14H3.2V10.8889H0V6.22222C0 5.56111 0.233333 5.00682 0.7 4.55933C1.16667 4.11185 1.73333 3.88837 2.4 3.88889H13.6C14.28 3.88889 14.8501 4.11263 15.3104 4.56011C15.7707 5.00759 16.0005 5.56163 16 6.22222V10.8889H12.8V14Z"/>
</symbol><symbol viewBox="0 0 18 14" id="share" xmlns="http://www.w3.org/2000/svg">
<g id="kFrame 19">
<path id="kVector" d="M9.615 10.8837L5.6403 8.8302C5.25877 9.18894 4.77365 9.43266 4.24611 9.53062C3.71857 9.62858 3.17222 9.5764 2.67594 9.38066C2.17966 9.18492 1.75566 8.85438 1.45741 8.43072C1.15916 8.00705 1 7.50922 1 7C1 6.49078 1.15916 5.99295 1.45741 5.56929C1.75566 5.14562 2.17966 4.81508 2.67594 4.61934C3.17222 4.4236 3.71857 4.37142 4.24611 4.46938C4.77365 4.56734 5.25877 4.81106 5.6403 5.1698L9.615 3.11635C9.47868 2.51051 9.57714 1.87843 9.89237 1.3357C10.2076 0.792973 10.7185 0.375862 11.3317 0.160645C11.945 -0.0545713 12.6195 -0.0535114 13.2319 0.163631C13.8444 0.380774 14.3538 0.799489 14.6672 1.34321C14.9805 1.88692 15.0767 2.51931 14.9383 3.12472C14.7998 3.73012 14.436 4.2681 13.9132 4.64027C13.3904 5.01243 12.7437 5.19391 12.0913 5.15153C11.4389 5.10914 10.8244 4.84572 10.3602 4.40943L6.38546 6.46288C6.46464 6.81678 6.46464 7.18248 6.38546 7.53639L10.3602 9.59057C10.8244 9.15429 11.4389 8.89086 12.0913 8.84848C12.7437 8.80609 13.3904 8.98757 13.9132 9.35974C14.436 9.7319 14.7998 10.2699 14.9383 10.8753C15.0767 11.4807 14.9805 12.1131 14.6672 12.6568C14.3538 13.2005 13.8444 13.6192 13.2319 13.8364C12.6195 14.0535 11.945 14.0546 11.3317 13.8394C10.7185 13.6241 10.2076 13.207 9.89237 12.6643C9.57714 12.1216 9.47868 11.4895 9.615 10.8837Z"/>
</g>
</symbol><symbol viewBox="0 0 16 12" id="sorting" xmlns="http://www.w3.org/2000/svg">
<path id="lVector" d="M0 5H10.6667V7H0M0 12V10H16V12M0 0H5.33333V2H0V0Z"/>
</symbol><symbol viewBox="0 0 16 14" id="telegram" xmlns="http://www.w3.org/2000/svg">
<path d="M14.2823 0.647753L0.992986 5.9517C0.458201 6.1987 0.277323 6.69333 0.863729 6.96177L4.273 8.08313L12.5162 2.81043C12.9663 2.47942 13.4271 2.56769 13.0306 2.93182L5.95078 9.56635L5.72838 12.3741C5.93437 12.8076 6.31154 12.8096 6.55212 12.5941L8.51085 10.6759L11.8655 13.2758C12.6446 13.7532 13.0686 13.4451 13.2362 12.5701L15.4366 1.78673C15.665 0.709653 15.2754 0.235083 14.2823 0.647753Z"/>
</symbol><symbol viewBox="0 0 14 14" id="whatsapp" xmlns="http://www.w3.org/2000/svg">
<path d="M7.00001 0C10.8661 0 14 3.1339 14 7C14 10.8661 10.8661 14 7.00001 14C5.76295 14.002 4.54767 13.6746 3.47901 13.0515L0.00280985 14L0.949209 10.5224C0.325575 9.45341 -0.00205686 8.23759 9.71617e-06 7C9.71617e-06 3.1339 3.13391 0 7.00001 0ZM4.61441 3.71L4.47441 3.7156C4.38377 3.72112 4.29519 3.74493 4.21401 3.7856C4.13807 3.8286 4.06875 3.88235 4.00821 3.9452C3.92421 4.0243 3.87661 4.0929 3.82551 4.1594C3.56659 4.49603 3.42719 4.90932 3.42931 5.334C3.43071 5.677 3.52031 6.0109 3.66031 6.3231C3.94661 6.95449 4.41771 7.62299 5.03931 8.24249C5.18911 8.39159 5.33611 8.54139 5.49431 8.68069C6.26668 9.36072 7.18708 9.85112 8.1823 10.1129L8.5799 10.1738C8.7094 10.1808 8.8389 10.171 8.9691 10.1647C9.17297 10.1542 9.37203 10.099 9.5522 10.003C9.64387 9.95578 9.73333 9.90439 9.8203 9.84899C9.8203 9.84899 9.8504 9.82939 9.9078 9.78599C10.0023 9.71599 10.0604 9.66629 10.1388 9.58439C10.1969 9.52419 10.2473 9.45349 10.2858 9.37299C10.3404 9.25889 10.395 9.04119 10.4174 8.85989C10.4342 8.72129 10.4293 8.64569 10.4272 8.59879C10.4244 8.52389 10.3621 8.44619 10.2942 8.41329L9.8868 8.23059C9.8868 8.23059 9.2778 7.96529 8.9054 7.79589C8.86644 7.77888 8.82468 7.76915 8.7822 7.76719C8.73431 7.76228 8.68592 7.76766 8.64028 7.783C8.59464 7.79833 8.55281 7.82326 8.5176 7.85609C8.5141 7.85469 8.4672 7.89459 7.9611 8.50779C7.93206 8.54683 7.89204 8.57633 7.84617 8.59253C7.80029 8.60874 7.75062 8.61092 7.7035 8.59879C7.6579 8.58657 7.61323 8.57113 7.5698 8.55259C7.483 8.51619 7.4529 8.50219 7.3934 8.47699C6.99165 8.30168 6.61969 8.0648 6.29091 7.77489C6.20271 7.6979 6.12081 7.61389 6.03681 7.53269C5.76142 7.26896 5.52141 6.9706 5.32281 6.6451L5.28151 6.5786C5.25184 6.53391 5.22786 6.48571 5.21011 6.4351C5.18351 6.3322 5.25281 6.2496 5.25281 6.2496C5.25281 6.2496 5.42291 6.0634 5.50201 5.9626C5.57901 5.8646 5.64411 5.7694 5.68611 5.7015C5.76871 5.5685 5.79461 5.432 5.75121 5.3263C5.55521 4.8475 5.35221 4.3708 5.14361 3.8976C5.10231 3.8038 4.97981 3.7366 4.86851 3.7233C4.83071 3.7191 4.79291 3.7149 4.75511 3.7121C4.6611 3.70743 4.5669 3.70836 4.47301 3.7149L4.61371 3.7093L4.61441 3.71Z"/>
</symbol></svg>