<svg viewBox="0 0 730 708" fill="none" xmlns="http://www.w3.org/2000/svg">
<mask id="mask0_1035_2151" style="mask-type:alpha" maskUnits="userSpaceOnUse" x="0" y="0" >
<rect width="730" height="708" rx="5" fill="#161718"/>
</mask>
<g mask="url(#mask0_1035_2151)">
<path d="M-1022.1 621.707C-1022.1 621.707 -1237.82 -47.4484 -698.6 -273.245C-425.141 -387.747 93.7142 -268.677 -26.7185 336.539C-114.116 775.732 -587.017 993.64 -587.017 993.64" stroke="#161718" stroke-width="6" stroke-linecap="round" stroke-linejoin="round"/>
<path d="M-606.519 -214.2C-606.519 -214.2 177.445 -377.131 179.807 258.068C182.168 893.267 -417.098 868.754 -625.407 553.237" stroke="#161718" stroke-width="6" stroke-linecap="round" stroke-linejoin="round"/>
<path d="M-211.808 664.593C-314.036 562.366 -314.036 396.623 -211.808 294.395C-109.581 192.168 56.1621 192.168 158.389 294.395C260.617 396.623 260.617 562.366 158.389 664.593C56.1621 766.82 -109.581 766.82 -211.808 664.593Z" stroke="#161718" stroke-width="6" stroke-linecap="round" stroke-linejoin="round"/>
<path d="M-1513.22 -232.935C-1513.22 -232.935 -1255.63 21.3867 -561.678 -72.4794C132.297 -166.326 419.865 -29.6926 421.919 373.913C423.301 645.088 288.818 1114.59 -1010.01 842.168" stroke="#161718" stroke-width="6" stroke-linecap="round" stroke-linejoin="round"/>
<path d="M-1590 -90.8877C-1590 -90.8877 -1332.42 118.977 -638.459 41.5231C55.4971 -35.9309 279.394 43.577 249.161 409.885C230.752 632.899 31.3299 996.577 -1086.77 681.118" stroke="#161718" stroke-width="6" stroke-linecap="round" stroke-linejoin="round"/>
<path d="M110.397 900.273C-114.226 900.273 -296.318 729.009 -296.318 517.745C-296.318 306.48 -114.226 135.216 110.397 135.216C335.019 135.216 517.111 306.48 517.111 517.745C517.111 729.009 335.019 900.273 110.397 900.273Z" stroke="#161718" stroke-width="6" stroke-linecap="round" stroke-linejoin="round"/>
<path d="M162.051 553.295C-31.4015 726.112 -276.144 750.126 -364.905 655.454C-542.406 466.128 -491.115 188.043 -270.232 93.3896C-49.3493 -1.28275 292.446 93.8119 308.494 440.387C324.867 793.834 -50.7314 933.559 -171.049 996.577" stroke="#161718" stroke-width="6" stroke-linecap="round" stroke-linejoin="round"/>
<path d="M-376.055 743.177C-376.055 743.177 -757.201 701.101 -760.081 371.629C-762.941 42.1759 -344.747 -178.15 -26.7157 63.1566C324.236 329.437 -103.613 874.782 -450.457 502.369C-797.301 129.957 -410.569 -294.667 -144.135 -286.682C122.299 -278.696 179.828 -86.7412 179.828 -86.7412" stroke="#161718" stroke-width="6" stroke-linecap="round" stroke-linejoin="round"/>
<path d="M504.441 193.57C504.441 193.57 820.322 561.99 450.021 872.439" stroke="#161718" stroke-width="6" stroke-linecap="round" stroke-linejoin="round"/>
</g>
</svg>
