<svg width="1480" height="340" viewBox="0 0 1480 340" fill="none" xmlns="http://www.w3.org/2000/svg">
<mask id="mask0_1035_2010" style="mask-type:alpha" maskUnits="userSpaceOnUse" x="0" y="0" width="1480" height="340">
<rect width="1480" height="340" rx="5" fill="#161718"/>
</mask>
<g mask="url(#mask0_1035_2010)">
<path d="M2333.1 621.707C2333.1 621.707 2548.82 -47.4484 2009.6 -273.245C1736.14 -387.747 1217.28 -268.677 1337.72 336.539C1425.11 775.732 1898.01 993.64 1898.01 993.64" stroke="#161718" stroke-width="6" stroke-linecap="round" stroke-linejoin="round"/>
<path d="M1917.52 -214.2C1917.52 -214.2 1133.55 -377.132 1131.19 258.067C1128.83 893.267 1728.1 868.754 1936.41 553.237" stroke="#161718" stroke-width="6" stroke-linecap="round" stroke-linejoin="round"/>
<path d="M1522.81 664.593C1625.03 562.366 1625.03 396.623 1522.81 294.395C1420.58 192.168 1254.84 192.168 1152.61 294.395C1050.38 396.623 1050.38 562.366 1152.61 664.593C1254.84 766.82 1420.58 766.82 1522.81 664.593Z" stroke="#161718" stroke-width="6" stroke-linecap="round" stroke-linejoin="round"/>
<path d="M2824.22 -232.935C2824.22 -232.935 2566.63 21.3867 1872.68 -72.4794C1178.7 -166.326 891.133 -29.6926 889.079 373.913C887.697 645.088 1022.18 1114.59 2321.01 842.168" stroke="#161718" stroke-width="6" stroke-linecap="round" stroke-linejoin="round"/>
<path d="M2901 -90.8877C2901 -90.8877 2643.41 118.977 1949.46 41.5231C1255.5 -35.9309 1031.6 43.577 1061.84 409.885C1080.25 632.899 1279.67 996.577 2397.77 681.118" stroke="#161718" stroke-width="6" stroke-linecap="round" stroke-linejoin="round"/>
<path d="M1200.6 900.273C1425.22 900.273 1607.32 729.009 1607.32 517.745C1607.32 306.48 1425.22 135.216 1200.6 135.216C975.979 135.216 793.887 306.48 793.887 517.745C793.887 729.009 975.979 900.273 1200.6 900.273Z" stroke="#161718" stroke-width="6" stroke-linecap="round" stroke-linejoin="round"/>
<path d="M1148.95 553.295C1342.4 726.112 1587.14 750.126 1675.9 655.454C1853.4 466.128 1802.11 188.043 1581.23 93.3895C1360.35 -1.28287 1018.55 93.8118 1002.5 440.387C986.131 793.834 1361.73 933.558 1482.05 996.577" stroke="#161718" stroke-width="6" stroke-linecap="round" stroke-linejoin="round"/>
<path d="M1687.05 743.177C1687.05 743.177 2068.2 701.101 2071.08 371.629C2073.94 42.1759 1655.75 -178.15 1337.71 63.1566C986.762 329.437 1414.61 874.782 1761.45 502.369C2108.3 129.957 1721.57 -294.667 1455.13 -286.682C1188.7 -278.696 1131.17 -86.7412 1131.17 -86.7412" stroke="#161718" stroke-width="6" stroke-linecap="round" stroke-linejoin="round"/>
<path d="M806.557 193.57C806.557 193.57 490.676 561.99 860.977 872.439" stroke="#161718" stroke-width="6" stroke-linecap="round" stroke-linejoin="round"/>
</g>
</svg>
